<?xml version="1.0" encoding="UTF-8"?>
<!DOCTYPE svg PUBLIC "-//W3C//DTD SVG 1.1//EN" "http://www.w3.org/Graphics/SVG/1.1/DTD/svg11.dtd">
<svg version="1.1" xmlns="http://www.w3.org/2000/svg" xmlns:xlink="http://www.w3.org/1999/xlink" x="0" y="0" width="667.001" height="657.088" viewBox="0, 0, 667.001, 657.088">
  <g id="Layer_2" transform="translate(-274.912, -36.956)">
    <path d="M520.435,379.747 L520.435,379.747" fill-opacity="0" stroke="#000000" stroke-width="1" stroke-linecap="round" stroke-linejoin="round"/>
    <path d="M514.88,495.002 L514.682,495.002" fill-opacity="0" stroke="#000000" stroke-width="1" stroke-linecap="round" stroke-linejoin="round"/>
    <path d="M520.435,379.747 C520.435,379.747 514.682,495.002 514.682,495.002 L471.437,495.002 L471.437,462.072 L477.983,458.303 L482.744,454.534 L487.108,447.987 L489.489,441.243 L490.282,430.927 L491.076,418.033 L491.671,405.932 L491.869,390.063 L492.266,378.755 L520.435,379.747 z" fill-opacity="0" stroke="#000000" stroke-width="1"/>
    <path d="M471.437,452.748 L481.355,442.036 L482.347,428.348 L482.546,406.131 L482.149,388.872 L482.943,381.334 C482.943,381.334 478.38,376.772 478.38,376.772 C478.38,376.772 444.26,376.375 444.26,376.375 L442.871,382.723 C442.871,382.723 446.442,406.131 446.244,406.131 C446.045,406.131 447.434,422.992 447.434,422.992 C447.434,422.992 449.616,435.688 449.616,435.688 L451.996,445.805 C451.996,445.805 457.749,450.764 457.749,450.764 C457.749,450.764 466.478,452.947 466.478,452.947 L471.437,452.748 z" fill-opacity="0" stroke="#000000" stroke-width="1"/>
    <path d="M463.7,496.985 L463.7,459.295 L456.757,458.699 C456.757,458.699 451.996,454.137 451.996,454.137 C451.996,454.137 444.855,446.202 444.855,446.202 C444.855,446.202 440.292,433.903 440.292,433.903 C440.292,433.903 438.309,423.389 438.309,423.389 C438.309,423.389 437.912,412.875 437.912,412.677 C437.912,412.479 437.515,403.949 437.515,403.949 C437.515,403.949 436.523,396.014 436.523,396.014 C436.523,396.014 436.127,388.476 436.127,388.476 C436.127,388.476 435.135,377.962 435.135,377.962 C435.135,377.962 434.341,374.59 434.341,374.59 L403.99,378.557 L418.472,494.406 L463.7,496.985 z" fill-opacity="0" stroke="#000000" stroke-width="1"/>
    <path d="M468.461,326.187 L468.66,334.32 L476.198,337.494 L483.339,341.858 C483.339,341.858 488.299,347.214 488.299,347.214 C488.299,347.214 490.877,352.173 490.877,352.372 C490.877,352.57 492.464,357.926 492.464,357.926 C492.464,357.926 492.861,365.266 492.861,365.266 C492.861,365.266 494.051,371.019 494.051,371.019 L521.03,370.82 L524.601,284.727 L468.858,305.953 L468.461,326.187 z" fill-opacity="0" stroke="#000000" stroke-width="1"/>
    <path d="M461.717,308.333 C461.717,308.333 462.51,333.725 462.51,333.725 C462.51,333.725 455.17,336.105 454.972,336.105 C454.774,336.105 445.648,339.279 445.648,339.279 L440.888,343.445 L436.325,348.404 C436.325,348.404 432.754,356.538 432.754,356.538 C432.754,356.538 431.366,367.25 431.366,367.25 L404.387,371.614 L400.618,332.336 L461.717,308.333 z" fill-opacity="0" stroke="#000000" stroke-width="1"/>
    <path d="M460.328,302.977 L400.023,326.385 L396.651,300.597 L447.831,277.189 L460.328,302.977 z" fill-opacity="0" stroke="#000000" stroke-width="1"/>
    <path d="M527.18,245.647 L526.386,274.213 L465.882,299.208 L454.972,274.61 L527.18,245.647 z" fill-opacity="0" stroke="#000000" stroke-width="1"/>
    <path d="M441.086,368.242 L442.276,357.728 C442.276,357.728 446.64,349.991 446.64,349.991 C446.64,349.991 457.352,344.635 457.352,344.635 L465.089,343.643 L472.826,345.23 L478.578,349.793 C478.578,349.793 483.934,356.141 483.934,356.141 C483.934,356.141 485.521,361.695 485.521,361.695 L485.521,368.242 L485.521,369.63 L441.086,368.242 z" fill-opacity="0" stroke="#000000" stroke-width="1"/>
    <path d="M532.932,372.407 L536.701,273.221 L630.73,247.433 L645.211,292.265 L606.132,304.961 L598.197,310.714 L601.371,324.203 L603.156,330.749 L575.582,337.692 L568.838,338.883 L566.457,314.483 L560.109,292.662 L559.316,298.018 C559.316,298.018 563.482,317.26 563.482,317.26 C563.482,317.26 562.688,328.964 562.688,328.964 C562.688,328.964 564.275,345.826 564.275,345.826 C564.275,345.826 565.664,355.347 565.664,355.347 L566.259,365.464 L566.06,371.019 L532.932,372.407 z" fill-opacity="0" stroke="#000000" stroke-width="1"/>
    <path d="M572.21,345.23 L603.156,336.7 C603.156,336.7 607.719,340.469 607.719,340.469 C607.719,340.469 657.113,327.179 657.113,327.179 L666.437,361.894 L611.885,373.201 C611.885,373.201 598.395,375.78 598.395,375.78 C598.395,375.78 572.21,374.193 572.21,374.193 C572.21,374.193 572.21,345.23 572.21,345.23 z" fill-opacity="0" stroke="#000000" stroke-width="1"/>
    <path d="M533.329,378.954 C533.329,378.954 564.87,379.747 564.87,379.747 L564.672,404.94 C564.672,404.94 569.433,405.734 569.433,405.536 C569.433,405.337 570.226,379.35 570.226,379.35 C570.226,379.35 594.031,380.342 594.031,380.342 C594.031,380.342 599.982,422.397 599.982,422.397 L528.171,420.215 L533.329,378.954 z" fill-opacity="0" stroke="#000000" stroke-width="1"/>
    <path d="M598.792,381.136 L669.016,366.456 L677.347,406.527 L671.396,429.142 L667.826,432.911 L623.589,425.373 L606.529,422.992 L603.95,421.802 L598.792,381.136 z" fill-opacity="0" stroke="#000000" stroke-width="1"/>
    <path d="M536.21,266.499 L628.625,237.67 L618.926,211.265 L542.676,237.67 L538.904,242.25 L535.941,244.136 C535.941,244.136 536.21,266.499 536.21,266.499 z" fill-opacity="0" stroke="#000000" stroke-width="1"/>
    <path d="M666.031,438.066 L657.047,472.879 L654.239,486.074 L650.309,494.778 L645.536,495.62 C645.536,495.62 640.763,497.304 640.483,497.304 C640.202,497.304 619.426,499.55 619.426,499.55 L606.512,499.55 L603.423,483.548 L600.616,467.264 L595.281,459.403 L587.701,453.507 L582.532,453.471 C582.532,453.471 575.667,453.576 575.667,453.576 C575.667,453.576 570.492,456.533 570.492,456.533 C570.492,456.533 565.845,460.652 565.845,460.652 L561.409,466.672 C561.409,466.672 558.663,474.593 558.663,474.593 C558.663,474.593 557.607,481.247 557.607,481.247 C557.607,481.247 556.656,487.795 556.656,487.795 L554.861,496.878 L525.289,495.716 L529.091,426.961 L611.892,427.912 L666.031,438.066 z" fill-opacity="0" stroke="#000000" stroke-width="1"/>
    <path d="M601.575,498.399 C601.575,498.399 597.722,475.797 597.722,475.797 C597.722,475.797 595.647,467.646 595.647,467.646 C595.647,467.646 591.052,461.94 591.052,461.94 C591.052,461.94 584.605,458.679 584.605,458.679 L578.084,458.161 L571.637,461.644 L567.636,465.942 C567.636,465.942 561.189,496.398 561.189,496.398 C561.189,496.398 601.575,498.399 601.575,498.399 z" fill-opacity="0" stroke="#000000" stroke-width="1"/>
    <path d="M523.236,504.219 C523.236,504.597 638.869,503.086 638.869,503.086 L614.307,656.507 L536.462,613.05 L516.057,611.917 L523.236,504.219 z" fill-opacity="0" stroke="#000000" stroke-width="1"/>
    <path d="M469.955,502.33 L516.812,502.708 L511.522,610.027 L462.397,603.603 L469.955,502.33 z" fill-opacity="0" stroke="#000000" stroke-width="1"/>
    <path d="M417.806,501.574 L463.153,501.952 L457.862,602.469 L420.074,599.824 L423.097,567.704 L417.806,501.574 z" fill-opacity="0" stroke="#000000" stroke-width="1"/>
    <path d="M652.473,504.219 C652.473,504.219 656.252,584.709 656.252,584.709 L655.874,615.695 L668.344,685.604 L622.998,661.42 L644.916,514.044 L652.473,504.219 z" fill-opacity="0" stroke="#000000" stroke-width="1"/>
    <path d="M404.295,463.514 L411.899,533.742 L330.666,541.545 L324.663,476.119 L404.295,463.514 z" fill-opacity="0" stroke="#000000" stroke-width="1"/>
    <path d="M382.734,431.094 L385.031,459.422 L403.662,457.891 L400.599,428.286 L382.734,431.094 z" fill-opacity="0" stroke="#000000" stroke-width="1"/>
    <path d="M400.305,423.98 L381.827,426.71 L380.882,402.248 L397.155,400.569 L400.305,423.98 z" fill-opacity="0" stroke="#000000" stroke-width="1"/>
    <path d="M397.365,396.684 L380.462,398.469 L378.258,375.372 L394.845,374.007 L397.155,396.054 z" fill-opacity="0" stroke="#000000" stroke-width="1"/>
    <path d="M391.801,346.816 L394.215,369.703 L376.788,370.963 L374.163,348.181 C374.163,348.181 392.011,346.816 391.801,346.816 z" fill-opacity="0" stroke="#000000" stroke-width="1"/>
    <path d="M391.276,342.197 L373.848,343.562 L371.644,318.89 L388.546,317.42 L391.276,342.197 z" fill-opacity="0" stroke="#000000" stroke-width="1"/>
    <path d="M321.986,328.759 C321.986,328.759 365.659,323.195 365.659,323.195 L369.334,358.26 L378.573,461.46 L296.684,473.743 L282.406,345.556 L321.986,328.759 z" fill-opacity="0" stroke="#000000" stroke-width="1"/>
    <path d="M446.469,251.896 L525.383,218.206 L531.425,232.488 L452.512,267.093 L446.469,250.797" fill-opacity="0" stroke="#000000" stroke-width="1"/>
    <path d="M395.569,288.515 L448.667,269.656 L440.794,250.248 L525.017,214.361 C525.017,214.361 505.609,165.475 505.609,165.475 C505.609,165.475 492.06,169.686 492.06,169.686 L497.736,195.137 L428.892,218.39 L410.034,222.235 L405.273,221.685 C405.273,221.685 401.611,195.869 401.794,195.869 C401.977,195.869 384.4,201.911 384.4,201.911 C384.4,201.911 393.555,290.346 393.555,290.346 L395.569,288.515 z" fill-opacity="0" stroke="#000000" stroke-width="1"/>
    <path d="M625.461,209.401 L730.411,165.974 L746.532,163.013 L763.969,224.535 L644.543,261.712 L625.461,209.401 z" fill-opacity="0" stroke="#000000" stroke-width="1"/>
    <path d="M648.162,266.318 L766.601,231.444 L773.839,263.028 L656.716,291.651 L648.162,266.318 z" fill-opacity="0" stroke="#000000" stroke-width="1"/>
    <path d="M658.361,296.586 L774.497,268.95 L783.38,299.547 L667.573,324.879 L658.361,296.586 z" fill-opacity="0" stroke="#000000" stroke-width="1"/>
    <path d="M669.547,329.156 C669.547,329.156 782.722,305.139 782.722,305.139 L788.972,336.394 L677.114,360.411 L669.547,329.156 z" fill-opacity="0" stroke="#000000" stroke-width="1"/>
    <path d="M677.114,366.004 L790.946,342.316 L794.894,362.056 L792.92,374.229 L758.376,383.112 L747.19,390.35 L684.023,397.917 L677.114,366.004 z" fill-opacity="0" stroke="#000000" stroke-width="1"/>
    <path d="M686.654,404.825 L708.697,402.522 L713.303,426.539 L702.446,431.474 L707.052,466.019 L718.567,467.006 L722.186,490.694 L660.335,498.589 L673.824,436.738 L677.114,432.79 L686.654,404.825 z" fill-opacity="0" stroke="#000000" stroke-width="1"/>
    <path d="M708.697,434.106 L726.463,432.79 C726.463,432.79 730.082,459.439 730.411,459.439 C730.74,459.439 714.29,460.097 714.29,460.097 L708.697,434.106 z" fill-opacity="0" stroke="#000000" stroke-width="1"/>
    <path d="M714.948,402.193 L719.554,427.197 L731.727,426.21 C731.727,426.21 736.991,462.4 736.991,462.4 C736.991,462.4 725.147,466.677 725.147,466.677 C725.147,466.677 729.424,490.694 729.424,490.694 L767.259,485.759 L791.933,379.493 L757.718,388.047 L753.112,394.298 L714.948,402.193 z" fill-opacity="0" stroke="#000000" stroke-width="1"/>
    <path d="M662.638,505.169 C662.967,505.169 721.199,495.958 721.199,495.958 L719.225,559.125 L705.407,563.402 L703.104,570.64 L663.296,572.285 L662.638,505.169 z" fill-opacity="0" stroke="#000000" stroke-width="1"/>
    <path d="M709.026,568.995 L731.727,568.337 L731.398,586.761 L708.697,586.432 L709.026,568.995 z" fill-opacity="0" stroke="#000000" stroke-width="1"/>
    <path d="M663.296,578.536 L702.117,581.168 L701.13,590.708 C701.13,590.708 716.922,594.327 716.922,594.327 C716.922,594.327 712.316,674.274 712.316,674.274 L676.456,683.815 L670.205,654.205 L663.296,578.536 z" fill-opacity="0" stroke="#000000" stroke-width="1"/>
    <path d="M738.965,580.51 L760.679,581.497 L755.415,665.391 C755.415,665.391 746.532,666.049 746.532,666.049 C746.532,666.049 718.238,674.274 718.238,674.274 L723.173,593.341 L737.978,592.025 L738.965,580.51 z" fill-opacity="0" stroke="#000000" stroke-width="1"/>
    <path d="M729.753,495.957 L765.943,492.01 L761.666,574.259 L739.294,574.917 L738.965,561.428 L725.805,561.757 L729.753,495.957 z" fill-opacity="0" stroke="#000000" stroke-width="1"/>
    <path d="M391.087,540.459 L412.821,537.794 L415.282,571.421 L412.616,597.667 L395.188,598.077 L394.777,558.298 L391.087,540.459 z" fill-opacity="0" stroke="#000000" stroke-width="1"/>
    <path d="M388.626,541.69 L391.702,584.954 L335.109,585.979 L332.239,546.406 L388.626,541.69 z" fill-opacity="0" stroke="#000000" stroke-width="1"/>
    <path d="M335.52,590.49 L391.702,589.67 L391.702,599.307 L335.93,599.922 L335.52,590.49 z" fill-opacity="0" stroke="#000000" stroke-width="1"/>
    <path d="M819.932,258.971 C819.932,258.971 832.076,321.379 832.076,321.379 C832.076,321.379 796.318,328.463 796.318,328.463 C796.318,328.463 784.849,267.067 784.849,267.067 L819.932,258.971 z" fill-opacity="0" stroke="#000000" stroke-width="1"/>
    <path d="M803.065,331.162 L832.076,325.764 L838.823,365.233 L802.053,371.305 L801.9,363.978 L796.318,332.511 L803.065,331.162 z" fill-opacity="0" stroke="#000000" stroke-width="1"/>
    <path d="M887.142,309.068 L906.707,304.903 L907.843,316.011 L887.773,319.167 L887.142,309.068 z" fill-opacity="0" stroke="#000000" stroke-width="1"/>
    <path d="M825.039,258.578 L898.25,242.926 L905.95,301.747 L836.021,314.37 L825.039,258.578 z" fill-opacity="0" stroke="#000000" stroke-width="1"/>
    <path d="M799.278,379.986 L772.82,496.355 L821.648,495.925 L822.078,457.207 L813.69,455.486 L814.12,406.228 L824.445,404.937 L823.799,373.317 L799.278,379.986 z" fill-opacity="0" stroke="#000000" stroke-width="1"/>
    <path d="M772.605,501.733 L800.784,502.163 L800.138,565.402 L769.164,566.263 L772.605,501.733 z" fill-opacity="0" stroke="#000000" stroke-width="1"/>
    <path d="M806.591,502.163 L821.433,502.163 L821.433,564.112 C821.433,564.112 805.946,565.617 805.946,565.617 C805.946,565.617 806.591,502.163 806.591,502.163 z" fill-opacity="0" stroke="#000000" stroke-width="1"/>
    <path d="M819.997,411.199 L833.545,411.199 L833.069,449.466 L818.333,449.942 L819.997,411.199 z" fill-opacity="0" stroke="#000000" stroke-width="1"/>
    <path d="M830.738,372.925 L914.342,359.122 L918.68,392.248 L859.921,401.713 L860.634,449.659 C860.634,449.659 837.81,452.359 837.932,452.359 C838.055,452.359 838.184,406.333 838.184,406.333 L829.471,405.765 L830.738,372.925 z" fill-opacity="0" stroke="#000000" stroke-width="1"/>
    <path d="M830.986,457.283 C830.986,457.283 877.959,453.874 877.959,453.874 C877.959,453.874 879.095,524.332 879.095,524.332 L880.61,535.128 L841.025,540.81 L841.025,565.054 L826.44,564.675 L827.009,457.662 L830.986,457.283 z" fill-opacity="0" stroke="#000000" stroke-width="1"/>
    <path d="M845.381,544.22 L880.989,545.356 L880.989,564.297 L845.192,565.433 L845.381,544.22 z" fill-opacity="0" stroke="#000000" stroke-width="1"/>
    <path d="M882.694,452.927 L925.499,447.055 L932.318,504.066 L912.809,564.297 C912.809,564.297 885.914,564.486 885.914,564.486 C885.914,564.486 885.535,532.287 885.535,532.287 L883.451,524.9 L882.694,452.927 z" fill-opacity="0" stroke="#000000" stroke-width="1"/>
    <path d="M863.943,405.197 L882.315,402.356 L884.777,445.54 L865.268,448.381 L863.943,405.197 z" fill-opacity="0" stroke="#000000" stroke-width="1"/>
    <path d="M887.997,401.787 L919.438,397.052 L925.12,441.373 L888.755,444.782 L887.997,401.787 z" fill-opacity="0" stroke="#000000" stroke-width="1"/>
    <path d="M905.781,306.028" fill-opacity="0" stroke="#000000" stroke-width="1"/>
    <path d="M908.474,319.419 L913.145,355.141 C913.145,355.141 844.225,365.365 844.225,365.365 C844.225,365.365 841.575,350.597 841.575,350.597 C841.575,350.597 890.803,342.14 890.803,342.14 L888.657,322.322 L908.474,319.419 z" fill-opacity="0" stroke="#000000" stroke-width="1"/>
    <path d="M882.346,312.35 L887.647,339.363 L853.692,345.295 L848.77,317.652 L882.346,312.35 z" fill-opacity="0" stroke="#000000" stroke-width="1"/>
    <path d="M837.662,317.778 L846.497,317.021 L850.789,345.169 L840.691,346.053 L837.662,317.778 z" fill-opacity="0" stroke="#000000" stroke-width="1"/>
    <path d="M406.41,194.282 L486.695,171.381 L492.749,190.86 L424.047,214.024 L409.043,215.603 L406.41,194.282 z" fill-opacity="0" stroke="#000000" stroke-width="1"/>
    <path d="M648.422,298.939 L655.676,320.474 L608.978,332.262 L603.538,310.5 L648.422,298.939 z" fill-opacity="0" stroke="#000000" stroke-width="1"/>
    <path d="M702.633,47.582 L744.352,152.804 L699.679,170.156 L663.129,63.458 L702.633,47.582 z" fill-opacity="0" stroke="#000000" stroke-width="1"/>
    <path d="M615.133,131.39 C615.133,131.39 671.251,108.131 671.251,108.131 C671.251,108.131 695.618,172.002 695.618,172.002 L640.977,191.2 L628.793,163.88 L615.133,131.39 z" fill-opacity="0" stroke="#000000" stroke-width="1"/>
    <path d="M670.143,100.747 L658.698,64.934 L594.089,92.624 L611.441,123.268 L670.143,100.747 z" fill-opacity="0" stroke="#000000" stroke-width="1"/>
    <path d="M572.675,71.949 L635.439,196.738 L610.703,207.076 L586.705,164.987 L563.076,176.063 L555.323,161.295 L518.403,179.386 L490.344,114.776 L501.42,107.392 L513.234,133.605 L531.694,124.745 L522.095,98.532 L572.675,71.949 z" fill-opacity="0" stroke="#000000" stroke-width="1"/>
    <path d="M517.664,102.224 L526.525,121.422 L514.711,125.852 L507.327,106.654 L517.664,102.224 z" fill-opacity="0" stroke="#000000" stroke-width="1"/>
    <path d="M564.922,180.124 L585.228,170.894 L605.903,207.076 L582.643,216.675 L564.922,180.124 z" fill-opacity="0" stroke="#000000" stroke-width="1"/>
    <path d="M552.369,167.572" fill-opacity="0" stroke="#000000" stroke-width="1"/>
    <path d="M552.369,167.572 L577.105,216.306 L539.816,230.705 L520.618,182.34 L552.369,167.572 z" fill-opacity="0" stroke="#000000" stroke-width="1"/>
    <path d="M910.848,570.457 L770.413,574.587 L762.152,670.414 L663.848,693.544 L534.152,621.674 L418.5,605.979 L329.282,610.109 L317.717,475.457 L290.456,478.761 L276.412,339.978 L359.847,311.891 L387.934,304.457 L373.891,192.109 C373.891,192.109 501.935,156.587 501.935,155.761 C501.935,154.935 481.282,111.978 481.282,111.978 L563.891,64.891 L573.804,63.239 L593.63,87.195 L701.022,38.456 L723.326,73.152 L752.239,163.196 C752.239,163.196 764.631,192.935 764.631,192.935 C764.631,192.935 783.631,254.891 783.631,254.891 L906.718,232.587 L919.109,336.674 L941.413,508.5 L918.283,572.109 L910.848,570.457 z" fill-opacity="0" stroke="#000000" stroke-width="1"/>
  </g>
</svg>
