<?xml version="1.0"?>
<svg version="1.1" xmlns="http://www.w3.org/2000/svg" xmlns:xlink="http://www.w3.org/1999/xlink" x="0" y="0" width="993.727" height="854.514" viewBox="0, 0, 993.727, 854.514">
	<g id="Layer_2">
		<path d="M538.405,382.947 L538.405,382.947" fill-opacity="0" stroke="#000000" stroke-width="1" stroke-linecap="round" stroke-linejoin="round" />
		<path d="M534.524,465.455 L534.386,465.455" fill-opacity="0" stroke="#000000" stroke-width="1" stroke-linecap="round" stroke-linejoin="round" />
		<path d="M538.405,382.947 L534.386,465.455 L504.171,465.455 L504.171,441.881 L508.745,439.183 L512.071,436.485 L515.121,431.799 L516.784,426.970 L517.338,419.586 L517.893,410.355 L518.308,401.692 L518.447,390.332 L518.724,382.237 L538.405,382.947 z" fill-opacity="0" stroke="#000000" stroke-width="1" />
		<path d="M506.161,432.505 L510.161,426.755 L511.794,417.740 L511.933,401.834 L511.656,389.480 L512.210,384.083 L509.022,380.817 L485.183,380.533 L484.213,385.077 L484.320,385.797 L484.601,387.695 L484.995,390.379 L485.443,393.455 L485.885,396.532 L486.260,399.216 L486.508,401.114 L486.569,401.834 L486.523,402.335 L486.486,403.658 L486.458,405.527 L486.438,407.670 L486.425,409.812 L486.416,411.681 L486.412,413.004 L486.411,413.505 L487.661,422.005 L488.911,428.255 L494.608,433.787 L500.706,435.349 L506.161,432.505 z" fill-opacity="0" stroke="#000000" stroke-width="1" />
		<path d="M498.766,466.875 L498.766,439.893 L493.915,439.467 L490.588,436.201 L485.599,430.521 L482.411,421.716 L481.025,414.189 L480.748,406.521 L480.471,400.272 L479.778,394.592 L479.501,389.196 L478.661,384.755 L477.911,381.005 L457.047,382.095 L467.165,465.029 L498.766,466.875 z" fill-opacity="0" stroke="#000000" stroke-width="1" />
		<path d="M502.092,344.604 L502.231,350.427 L507.498,352.699 L512.487,355.823 L515.952,359.657 L516.029,359.810 L516.234,360.214 L516.522,360.788 L516.853,361.450 L517.184,362.119 L517.472,362.713 L517.677,363.151 L517.754,363.350 L518.863,367.326 L519.140,372.580 L519.972,376.699 L538.821,376.557 L541.316,314.924 L502.369,330.119 L502.092,344.604 z" fill-opacity="0" stroke="#000000" stroke-width="1" />
		<path d="M497.380,331.823 L497.934,350.001 L492.667,351.705 L486.153,353.977 L482.827,356.959 L479.639,360.509 L477.144,366.332 L476.174,374.000 L457.325,377.125 L454.691,349.007 L497.380,331.823 z" fill-opacity="0" stroke="#000000" stroke-width="1" />
		<path d="M496.410,327.989 L454.275,344.746 L451.919,326.285 L487.678,309.528 L496.410,327.989 z" fill-opacity="0" stroke="#000000" stroke-width="1" />
		<path d="M543.118,286.948 L542.563,307.398 L500.290,325.291 L492.667,307.682 L543.118,286.948 z" fill-opacity="0" stroke="#000000" stroke-width="1" />
		<path d="M482.966,374.710 L483.797,367.184 L486.846,361.646 L494.331,357.811 L499.736,357.101 L505.141,358.237 L509.161,361.504 L512.903,366.048 L514.012,370.024 L514.012,374.710 L514.012,375.705 L482.966,374.710 z" fill-opacity="0" stroke="#000000" stroke-width="1" />
		<path d="M547.137,377.693 L548.911,307.755 L615.466,288.226 L625.584,320.321 L598.280,329.409 L592.736,333.527 L594.954,343.184 L596.201,347.871 L576.936,352.841 L572.223,353.693 L570.560,336.226 L566.125,320.605 L565.571,324.439 L568.481,338.214 L567.927,346.592 L569.036,358.663 L570.006,365.480 L570.422,372.722 L570.283,376.699 L547.137,377.693 z" fill-opacity="0" stroke="#000000" stroke-width="1" />
		<path d="M574.580,358.237 L596.201,352.131 L599.389,354.829 L633.900,345.314 L640.414,370.166 L602.300,378.261 L592.875,380.107 L574.580,378.971 L574.580,358.237 z" fill-opacity="0" stroke="#000000" stroke-width="1" />
		<path d="M546.661,383.755 L569.452,382.947 L569.313,400.982 L569.456,401.006 L569.833,401.069 L570.365,401.154 L570.976,401.248 L571.587,401.336 L572.119,401.401 L572.496,401.430 L572.639,401.408 L573.194,382.663 L589.826,383.373 L593.984,413.479 L544.911,411.505 L546.661,383.755 z" fill-opacity="0" stroke="#000000" stroke-width="1" />
		<path d="M593.152,383.941 L642.216,373.432 L648.037,402.118 L643.879,418.308 L641.385,421.006 L610.477,415.609 L598.557,413.905 L596.756,413.053 L593.152,383.941 z" fill-opacity="0" stroke="#000000" stroke-width="1" />
		<path d="M549.427,301.875 L613.996,281.237 L607.219,262.335 L553.945,281.237 L551.310,284.516 L549.239,285.866 L549.427,301.875 z" fill-opacity="0" stroke="#000000" stroke-width="1" />
		<path d="M640.131,424.696 L633.854,449.618 L631.892,459.064 L629.146,465.295 L625.811,465.898 L625.667,465.950 L625.287,466.086 L624.746,466.280 L624.120,466.501 L623.484,466.722 L622.915,466.916 L622.489,467.052 L622.281,467.104 L607.569,468.711 L598.546,468.711 L596.388,457.255 L594.426,445.598 L590.699,439.971 L585.403,435.750 L581.791,435.724 L576.995,435.800 L573.379,437.917 L570.132,440.865 L567.033,445.175 L565.114,450.845 L564.377,455.608 L563.712,460.296 L562.458,466.798 L541.797,465.967 L544.453,416.747 L602.305,417.427 L640.131,424.696 z" fill-opacity="0" stroke="#000000" stroke-width="1" />
		<path d="M595.096,467.887 L592.404,451.707 L590.954,445.872 L587.744,441.787 L583.240,439.453 L578.684,439.082 L574.179,441.575 L571.384,444.652 L566.879,466.455 L595.096,467.887 z" fill-opacity="0" stroke="#000000" stroke-width="1" />
		<path d="M540.363,472.054 L543.834,472.097 L552.986,472.041 L565.925,471.916 L580.758,471.749 L595.591,471.570 L608.530,471.407 L617.682,471.288 L621.153,471.242 L603.992,581.073 L549.603,549.963 L535.346,549.152 L540.363,472.054 z" fill-opacity="0" stroke="#000000" stroke-width="1" />
		<path d="M503.135,470.701 L535.874,470.972 L532.178,547.799 L497.855,543.200 L503.135,470.701 z" fill-opacity="0" stroke="#000000" stroke-width="1" />
		<path d="M466.700,470.160 L498.383,470.431 L494.687,542.389 L468.285,540.495 L470.397,517.501 L466.700,470.160 z" fill-opacity="0" stroke="#000000" stroke-width="1" />
		<path d="M630.658,472.054 L633.298,529.674 L633.034,551.857 L641.747,601.903 L610.064,584.590 L625.378,479.087 L630.658,472.054 z" fill-opacity="0" stroke="#000000" stroke-width="1" />
		<path d="M442.196,419.705 L443.801,439.984 L456.818,438.888 L454.678,417.695 L442.196,419.705 z" fill-opacity="0" stroke="#000000" stroke-width="1" />
		<path d="M454.472,414.613 L441.562,416.567 L440.902,399.055 L452.272,397.853 L454.472,414.613 z" fill-opacity="0" stroke="#000000" stroke-width="1" />
		<path d="M452.418,395.072 L440.609,396.350 L439.068,379.815 L450.658,378.838 L452.272,394.621 z" fill-opacity="0" stroke="#000000" stroke-width="1" />
		<path d="M448.531,359.373 L450.218,375.757 L438.042,376.659 L436.208,360.350 L436.743,360.308 L438.154,360.197 L440.146,360.041 L442.424,359.862 L444.696,359.682 L446.667,359.526 L448.043,359.415 L448.531,359.373 z" fill-opacity="0" stroke="#000000" stroke-width="1" />
		<path d="M448.164,356.066 L435.988,357.043 L434.447,339.381 L446.257,338.329 L448.164,356.066 z" fill-opacity="0" stroke="#000000" stroke-width="1" />
		<path d="M399.752,346.446 L430.266,342.462 L432.834,367.565 L439.289,441.443 L382.074,450.237 L372.099,358.471 L399.752,346.446 z" fill-opacity="0" stroke="#000000" stroke-width="1" />
		<path d="M486.727,291.421 L541.863,267.304 L546.084,277.527 L490.948,302.300 L486.727,290.635" fill-opacity="0" stroke="#000000" stroke-width="1" />
		<path d="M451.164,317.636 L488.262,304.135 L482.761,290.242 L541.607,264.551 L528.047,229.555 L518.580,232.569 L522.546,250.789 L474.446,267.435 L461.270,270.187 L457.944,269.794 L457.834,269.000 L457.546,266.906 L457.141,263.946 L456.680,260.553 L456.226,257.161 L455.839,254.201 L455.581,252.107 L455.513,251.313 L455.028,251.499 L453.668,251.989 L451.724,252.681 L449.485,253.475 L447.239,254.270 L445.277,254.962 L443.887,255.452 L443.360,255.638 L449.756,318.947 L451.164,317.636 z" fill-opacity="0" stroke="#000000" stroke-width="1" />
		<path d="M611.785,261.000 L685.112,229.912 L696.375,227.792 L708.558,271.834 L625.117,298.448 L611.785,261.000 z" fill-opacity="0" stroke="#000000" stroke-width="1" />
		<path d="M627.646,301.746 L710.397,276.780 L715.454,299.390 L633.622,319.881 L627.646,301.746 z" fill-opacity="0" stroke="#000000" stroke-width="1" />
		<path d="M634.772,323.414 L715.914,303.630 L722.120,325.533 L641.208,343.668 L634.772,323.414 z" fill-opacity="0" stroke="#000000" stroke-width="1" />
		<path d="M642.587,346.730 L721.661,329.537 L726.028,351.912 L647.874,369.105 L642.587,346.730 z" fill-opacity="0" stroke="#000000" stroke-width="1" />
		<path d="M647.874,373.108 L727.407,356.151 L730.165,370.282 L728.786,378.997 L704.651,385.356 L696.835,390.537 L652.701,395.954 L647.874,373.108 z" fill-opacity="0" stroke="#000000" stroke-width="1" />
		<path d="M654.540,400.900 L669.941,399.251 L673.159,416.444 L665.574,419.977 L668.792,444.707 L676.837,445.413 L679.365,462.371 L636.151,468.024 L645.575,423.746 L647.874,420.919 L654.540,400.900 z" fill-opacity="0" stroke="#000000" stroke-width="1" />
		<path d="M669.941,421.861 L682.354,420.919 L682.463,421.739 L682.753,423.900 L683.166,426.955 L683.647,430.457 L684.138,433.960 L684.584,437.015 L684.927,439.176 L685.112,439.996 L684.694,440.016 L683.449,440.070 L681.649,440.145 L679.567,440.231 L677.473,440.318 L675.641,440.393 L674.342,440.447 L673.849,440.467 L669.941,421.861 z" fill-opacity="0" stroke="#000000" stroke-width="1" />
		<path d="M674.308,399.016 L677.527,416.915 L686.032,416.209 L689.709,442.116 L681.434,445.178 L684.422,462.371 L710.857,458.838 L728.097,382.765 L704.191,388.888 L700.973,393.363 L674.308,399.016 z" fill-opacity="0" stroke="#000000" stroke-width="1" />
		<path d="M637.760,472.734 L678.676,466.139 L677.297,511.359 L667.642,514.421 L666.033,519.603 L638.220,520.780 L637.760,472.734 z" fill-opacity="0" stroke="#000000" stroke-width="1" />
		<path d="M670.171,518.425 L686.032,517.954 L685.802,531.143 L669.941,530.908 L670.171,518.425 z" fill-opacity="0" stroke="#000000" stroke-width="1" />
		<path d="M638.220,525.255 L665.344,527.139 L664.654,533.969 L675.688,536.560 L672.469,593.792 L647.414,600.622 L643.047,579.425 L638.220,525.255 z" fill-opacity="0" stroke="#000000" stroke-width="1" />
		<path d="M691.088,526.668 L706.260,527.375 L702.582,587.433 L696.375,587.904 L676.607,593.792 L680.055,535.854 L690.399,534.911 L691.088,526.668 z" fill-opacity="0" stroke="#000000" stroke-width="1" />
		<path d="M684.652,466.139 L709.937,463.313 L706.949,522.193 L691.318,522.664 L691.089,513.008 L681.894,513.244 L684.652,466.139 z" fill-opacity="0" stroke="#000000" stroke-width="1" />
		<path d="M448.032,497.997 L463.218,496.089 L464.937,520.162 L463.074,538.951 L450.897,539.244 L450.611,510.768 L448.032,497.997 z" fill-opacity="0" stroke="#000000" stroke-width="1" />
		<path d="M446.313,498.878 L448.462,529.850 L408.921,530.584 L406.916,502.254 L446.313,498.878 z" fill-opacity="0" stroke="#000000" stroke-width="1" />
		<path d="M409.208,533.813 L448.462,533.226 L448.462,540.125 L409.495,540.565 L409.208,533.813 z" fill-opacity="0" stroke="#000000" stroke-width="1" />
		<path d="M747.659,296.486 L756.144,341.163 L731.160,346.234 L723.147,302.282 L747.659,296.486 z" fill-opacity="0" stroke="#000000" stroke-width="1" />
		<path d="M735.874,348.166 L756.144,344.302 L760.858,372.557 L735.167,376.904 L735.060,371.658 L731.160,349.132 L735.874,348.166 z" fill-opacity="0" stroke="#000000" stroke-width="1" />
		<path d="M794.617,332.350 L808.287,329.368 L809.081,337.320 L795.058,339.579 L794.617,332.350 z" fill-opacity="0" stroke="#000000" stroke-width="1" />
		<path d="M751.227,296.205 L802.378,285.000 L807.758,327.109 L758.900,336.145 L751.227,296.205 z" fill-opacity="0" stroke="#000000" stroke-width="1" />
		<path d="M733.228,383.118 L714.743,466.424 L748.858,466.116 L749.158,438.399 L743.297,437.167 L743.598,401.904 L750.812,400.980 L750.361,378.344 L733.228,383.118 z" fill-opacity="0" stroke="#000000" stroke-width="1" />
		<path d="M714.593,470.274 L734.280,470.582 L733.829,515.853 L712.188,516.469 L714.593,470.274 z" fill-opacity="0" stroke="#000000" stroke-width="1" />
		<path d="M738.338,470.582 L748.708,470.582 L748.708,514.929 L737.887,516.007 L738.338,470.582 z" fill-opacity="0" stroke="#000000" stroke-width="1" />
		<path d="M747.704,405.462 L757.170,405.462 L756.838,432.857 L746.541,433.198 L747.704,405.462 z" fill-opacity="0" stroke="#000000" stroke-width="1" />
		<path d="M755.209,378.063 L813.621,368.182 L816.652,391.896 L775.598,398.672 L776.097,432.996 L775.412,433.079 L773.607,433.298 L771.056,433.607 L768.134,433.962 L765.216,434.317 L762.678,434.626 L760.892,434.845 L760.235,434.928 L760.267,433.512 L760.299,429.780 L760.328,424.503 L760.355,418.453 L760.378,412.404 L760.396,407.127 L760.407,403.395 L760.411,401.979 L754.323,401.573 L755.209,378.063 z" fill-opacity="0" stroke="#000000" stroke-width="1" />
		<path d="M755.382,438.453 L788.201,436.012 L788.995,486.452 L790.054,494.181 L762.396,498.248 L762.396,515.604 L752.206,515.333 L752.603,438.724 L755.382,438.453 z" fill-opacity="0" stroke="#000000" stroke-width="1" />
		<path d="M765.440,500.689 L790.318,501.503 L790.318,515.062 L765.307,515.875 L765.440,500.689 z" fill-opacity="0" stroke="#000000" stroke-width="1" />
		<path d="M791.509,435.335 L821.417,431.131 L826.181,471.944 L812.550,515.062 L793.759,515.197 L793.494,492.147 L792.039,486.859 L791.509,435.335 z" fill-opacity="0" stroke="#000000" stroke-width="1" />
		<path d="M778.408,401.166 L791.245,399.132 L792.965,430.047 L779.335,432.080 L778.408,401.166 z" fill-opacity="0" stroke="#000000" stroke-width="1" />
		<path d="M795.215,398.725 L817.182,395.335 L821.152,427.064 L795.744,429.504 L795.215,398.725 z" fill-opacity="0" stroke="#000000" stroke-width="1" />
		<path d="M809.522,339.759 L812.785,365.332 L764.632,372.651 L762.780,362.079 L797.175,356.025 L795.676,341.838 L809.522,339.759 z" fill-opacity="0" stroke="#000000" stroke-width="1" />
		<path d="M791.266,334.699 L794.970,354.037 L771.247,358.284 L767.807,338.494 L791.266,334.699 z" fill-opacity="0" stroke="#000000" stroke-width="1" />
		<path d="M760.046,338.585 L766.220,338.043 L769.218,358.193 L762.163,358.826 L760.046,338.585 z" fill-opacity="0" stroke="#000000" stroke-width="1" />
		<path d="M458.738,250.177 L514.832,233.783 L519.061,247.727 L471.060,264.310 L460.577,265.440 L458.738,250.177 z" fill-opacity="0" stroke="#000000" stroke-width="1" />
		<path d="M627.828,325.098 L632.896,340.515 L600.269,348.954 L596.468,333.375 L627.828,325.098 z" fill-opacity="0" stroke="#000000" stroke-width="1" />
		<path d="M665.704,145.158 L694.853,220.483 L663.640,232.906 L638.103,156.523 L665.704,145.158 z" fill-opacity="0" stroke="#000000" stroke-width="1" />
		<path d="M604.569,205.154 L643.778,188.503 L660.803,234.227 L622.626,247.971 L614.113,228.412 L604.569,205.154 z" fill-opacity="0" stroke="#000000" stroke-width="1" />
		<path d="M643.004,183.217 L634.838,162.441 L589.008,182.539 L598.400,201.697 L643.004,183.217 z" fill-opacity="0" stroke="#000000" stroke-width="1" />
		<path d="M574.905,162.602 L618.757,251.935 L601.474,259.336 L584.707,229.205 L568.198,237.134 L562.781,226.562 L536.986,239.513 L517.381,193.260 L525.120,187.974 L533.374,206.740 L546.272,200.397 L539.565,181.631 L574.905,162.602 z" fill-opacity="0" stroke="#000000" stroke-width="1" />
		<path d="M536.470,184.274 L542.660,198.018 L534.406,201.189 L529.247,187.446 L536.470,184.274 z" fill-opacity="0" stroke="#000000" stroke-width="1" />
		<path d="M569.488,240.042 L583.675,233.434 L598.120,259.336 L581.869,266.207 L569.488,240.042 z" fill-opacity="0" stroke="#000000" stroke-width="1" />
		<path d="M560.717,231.055 L578.000,265.943 L551.947,276.251 L538.533,241.627 L560.717,231.055 z" fill-opacity="0" stroke="#000000" stroke-width="1" />
		<path d="M808.662,522.072 L714.748,520.618 L711.423,543.058 L716.618,543.265 L718.280,540.564 L744.252,540.357 L747.576,544.097 L762.952,544.304 L763.991,537.863 L770.016,537.863 L768.146,544.512 L797.858,552.200 L808.662,522.072 z" fill-opacity="0" stroke="#000000" stroke-width="1" />
		<path d="M796.819,556.355 L772.094,550.953 L770.224,557.810 L794.326,563.835 L796.819,556.355 z" fill-opacity="0" stroke="#000000" stroke-width="1" />
		<path d="M711.008,549.499 L716.410,548.876 L723.682,553.239 L743.421,553.031 L746.330,549.914 L765.653,549.914 L765.237,560.719 L776.249,564.043 L773.964,577.964 L778.743,579.003 L781.444,564.874 L793.495,567.368 L776.457,606.637 L768.562,593.963 L766.484,590.223 L763.783,593.963 L762.328,605.598 L746.330,609.130 L741.135,618.896 L706.437,620.558 L709.553,577.341 L750.277,574.432 L750.277,570.069 L710.592,570.069 L711.008,549.499 z" fill-opacity="0" stroke="#000000" stroke-width="1" />
		<path d="M722.020,543.266 L731.162,543.266 L730.954,548.875 L721.189,548.044 L722.020,543.266 z" fill-opacity="0" stroke="#000000" stroke-width="1" />
		<path d="M735.317,543.058 L741.551,543.473 L742.590,545.759 L740.927,550.745 L735.110,549.499 L735.317,543.058 z" fill-opacity="0" stroke="#000000" stroke-width="1" />
		<path d="M647.844,603.313 L702.489,589.807 L701.866,604.559 L652.623,617.026 L647.844,603.313 z" fill-opacity="0" stroke="#000000" stroke-width="1" />
		<path d="M654.077,620.142 L701.866,608.715 L701.658,621.389 L658.441,635.726 L654.077,620.142 z" fill-opacity="0" stroke="#000000" stroke-width="1" />
		<path d="M659.895,638.011 L702.073,625.752 L703.112,633.856 L670.699,645.075 L660.934,646.114 L659.895,638.011 z" fill-opacity="0" stroke="#000000" stroke-width="1" />
		<path d="M606.081,586.483 L640.987,607.884 L620.625,636.349 L597.770,642.374 L606.081,586.483 z" fill-opacity="0" stroke="#000000" stroke-width="1" />
		<path d="M625.820,635.933 L646.805,610.585 L654.908,639.466 L653.641,639.331 L650.304,638.972 L645.595,638.458 L640.208,637.856 L634.841,637.234 L630.190,636.661 L626.950,636.204 L625.820,635.933 z" fill-opacity="0" stroke="#000000" stroke-width="1" />
		<path d="M655.324,642.582 L627.274,639.881 L595.900,649.231 L595.069,658.789 L635.378,649.023 L657.609,646.530 L655.324,642.582 z" fill-opacity="0" stroke="#000000" stroke-width="1" />
		<path d="M591.329,577.964 L601.718,584.405 L592.576,639.881 L576.785,637.180 L578.032,627.207 L579.486,625.129 L585.096,624.921 L585.096,621.181 L576.162,620.558 L572.422,635.102 L557.877,632.401 L553.930,623.051 L552.683,616.195 L548.112,610.377 L544.164,607.260 L546.450,603.520 L552.683,604.975 L559.955,596.041 L556.215,593.132 L550.397,600.196 L546.865,597.495 L558.708,577.756 L564.318,581.081 L561.617,587.729 L563.903,590.015 L570.759,584.613 L579.278,585.860 L583.849,589.392 L584.265,598.534 L585.304,603.936 L592.160,604.144 L594.238,588.145 L590.290,583.159 L591.329,577.964 z" fill-opacity="0" stroke="#000000" stroke-width="1" />
		<path d="M567.435,564.251 L586.966,574.640 L584.473,581.288 L589.667,587.522 L589.459,596.664 L587.797,596.872 L587.589,587.729 L582.810,582.951 L569.097,580.042 L561.825,573.393 L567.435,564.251 z" fill-opacity="0" stroke="#000000" stroke-width="1" />
		<path d="M553.306,555.317 L563.072,561.134 L554.137,577.549 L552.060,577.341 L553.930,560.719 L551.644,558.641 L553.306,555.317 z" fill-opacity="0" stroke="#000000" stroke-width="1" />
		<path d="M549.151,554.693 L535.645,551.577 L521.101,550.953 L518.815,572.562 L548.112,576.510 L550.397,561.758 L549.358,558.018 L549.151,554.693 z" fill-opacity="0" stroke="#000000" stroke-width="1" />
		<path d="M518.192,576.925 L551.436,581.496 L542.917,594.794 L516.114,589.599 L518.192,576.925 z" fill-opacity="0" stroke="#000000" stroke-width="1" />
		<path d="M513.413,594.171 L538.762,600.196 L537.307,606.429 L510.712,602.482 L513.413,594.171 z" fill-opacity="0" stroke="#000000" stroke-width="1" />
		<path d="M489.311,581.704 L509.881,585.236 L508.219,601.235 L486.610,598.118 L489.311,581.704 z" fill-opacity="0" stroke="#000000" stroke-width="1" />
		<path d="M516.945,550.538 L512.374,550.122 L512.243,550.238 L512.027,550.544 L511.757,550.977 L511.465,551.472 L511.183,551.968 L510.943,552.401 L510.775,552.707 L510.712,552.823 L484.948,550.330 L476.014,552.823 L473.105,572.977 L510.712,580.665 L516.945,550.538 z" fill-opacity="0" stroke="#000000" stroke-width="1" />
		<path d="M472.689,579.211 L483.909,581.704 L482.247,597.495 L470.404,596.872 L472.689,579.211 z" fill-opacity="0" stroke="#000000" stroke-width="1" />
		<path d="M466.248,543.889 L472.689,544.304 L465.833,595.625 L459.184,595.625 L466.248,543.889 z" fill-opacity="0" stroke="#000000" stroke-width="1" />
		<path d="M473.520,600.819 L482.039,601.858 L478.092,604.351 L474.975,604.144 L473.520,600.819 z" fill-opacity="0" stroke="#000000" stroke-width="1" />
		<path d="M458.768,599.780 L468.742,601.027 L470.819,606.429 L479.961,608.091 L484.117,606.221 L484.740,601.650 L507.388,605.183 L505.102,621.805 L456.067,616.195 L458.768,599.780 z" fill-opacity="0" stroke="#000000" stroke-width="1" />
		<path d="M416.798,610.169 L397.890,606.429 L398.098,542.850 L408.071,543.058 L408.279,551.369 L413.266,551.992 L413.473,543.058 L425.940,543.473 L425.109,588.145 L424.278,591.885 L418.668,597.287 L416.798,610.169 z" fill-opacity="0" stroke="#000000" stroke-width="1" />
		<path d="M425.524,596.872 L442.354,599.988 L440.900,606.222 L423.862,604.559 L425.524,596.872 z" fill-opacity="0" stroke="#000000" stroke-width="1" />
		<path d="M423.447,608.299 L444.224,610.793 L446.925,600.819 L452.327,601.027 L450.250,615.156 L422.823,612.039 L423.447,608.299 z" fill-opacity="0" stroke="#000000" stroke-width="1" />
		<path d="M450.873,579.003 L436.744,574.640 L428.641,562.796 L429.264,543.473 L459.807,542.227 L455.444,578.795 L450.873,579.003 z" fill-opacity="0" stroke="#000000" stroke-width="1" />
		<path d="M428.849,576.925 L454.405,584.613 L453.782,597.079 L426.771,593.755 L428.849,576.925 z" fill-opacity="0" stroke="#000000" stroke-width="1" />
		<path d="M586.942,174.650 L663.763,142.720 L657.189,128.633 L579.617,164.695 L586.942,174.650 z" fill-opacity="0" stroke="#000000" stroke-width="1" />
		<path d="M639.721,93.697 L598.775,118.678 L590.323,117.551 L586.942,114.734 L575.673,123.374 L595.958,151.735 L654.935,124.876 L639.721,93.697 z" fill-opacity="0" stroke="#000000" stroke-width="1" />
		<path d="M592.013,110.977 L635.213,82.991 L638.782,88.063 L598.400,114.734 L592.013,110.977 z" fill-opacity="0" stroke="#000000" stroke-width="1" />
		<path d="M557.266,136.146 L571.916,125.815 L591.638,153.426 L576.236,161.878 L557.266,136.146 z" fill-opacity="0" stroke="#000000" stroke-width="1" />
		<path d="M507.680,178.594 L513.878,190.991 L530.031,183.290 L529.724,182.717 L528.916,181.209 L527.773,179.080 L526.462,176.645 L525.152,174.219 L524.009,172.117 L523.201,170.653 L522.894,170.142 L522.240,170.559 L520.517,171.542 L518.080,172.899 L515.287,174.439 L512.494,175.969 L510.057,177.300 L508.334,178.239 L507.680,178.594 z" fill-opacity="0" stroke="#000000" stroke-width="1" />
		<path d="M526.838,169.954 L533.412,181.224 L569.662,162.066 L563.276,151.360 L543.179,161.314 L537.732,156.619 L527.026,162.629 L526.838,169.954 z" fill-opacity="0" stroke="#000000" stroke-width="1" />
		<path d="M501.106,162.441 L516.320,154.553 L520.640,160.939 L518.198,168.264 L506.553,174.086 L501.106,162.441 z" fill-opacity="0" stroke="#000000" stroke-width="1" />
		<path d="M536.793,135.019 L546.748,128.821 L559.895,146.476 L550.316,154.365 L536.793,135.019 z" fill-opacity="0" stroke="#000000" stroke-width="1" />
		<path d="M530.595,139.714 L533.600,137.836 L546.560,155.116 L542.615,156.619 L530.595,139.714 z" fill-opacity="0" stroke="#000000" stroke-width="1" />
		<path d="M491.903,146.476 L510.873,137.836 L515.005,150.045 L498.664,159.812 L491.903,146.476 z" fill-opacity="0" stroke="#000000" stroke-width="1" />
		<path d="M513.878,136.709 L514.104,137.323 L514.700,138.942 L515.542,141.236 L516.507,143.870 L517.473,146.513 L518.315,148.833 L518.911,150.497 L519.137,151.172 L519.347,151.589 L519.900,152.572 L520.682,153.929 L521.579,155.469 L522.476,156.999 L523.258,158.330 L523.811,159.269 L524.021,159.624 L534.915,153.238 L522.330,131.826 L513.878,136.709 z" fill-opacity="0" stroke="#000000" stroke-width="1" />
		<path d="M524.209,226.865 L441.378,249.592 L432.926,181.036 L467.861,175.589 L502.609,178.219 L524.209,226.865 z" fill-opacity="0" stroke="#000000" stroke-width="1" />
		<path d="M429.169,135.958 L441.190,134.080 L450.018,126.942 L454.150,151.547 L447.952,153.426 L446.073,158.121 L431.235,160.000 L429.169,135.958 z" fill-opacity="0" stroke="#000000" stroke-width="1" />
		<path d="M431.611,165.071 L446.825,163.380 L447.764,166.010 L461.663,165.446 L463.541,162.253 L462.602,154.177 L458.470,152.299 L458.282,145.537 L465.607,142.907 L464.292,136.709 L473.308,137.273 L477.440,135.207 L494.344,160.751 L500.730,175.213 L497.350,175.401 L489.085,165.446 L479.318,171.457 L468.049,170.893 L432.174,176.153 L431.611,165.071 z" fill-opacity="0" stroke="#000000" stroke-width="1" />
		<path d="M450.769,157.933 L458.094,156.806 L459.033,162.066 L451.332,162.441 L450.769,157.933 z" fill-opacity="0" stroke="#000000" stroke-width="1" />
		<path d="M485.141,172.959 L488.897,170.142 L491.715,172.772 L489.461,174.650 L485.141,172.959 z" fill-opacity="0" stroke="#000000" stroke-width="1" />
		<path d="M453.962,123.374 L463.353,116.048 L474.623,131.638 L471.805,133.141 L464.105,132.201 L461.099,132.765 L461.851,139.714 L457.155,141.968 L453.962,123.374 z" fill-opacity="0" stroke="#000000" stroke-width="1" />
		<path d="M530.219,63.457 L571.541,120.556 L555.012,132.014 L513.878,76.230 L530.219,63.457 z" fill-opacity="0" stroke="#000000" stroke-width="1" />
		<path d="M490.212,141.029 L512.376,130.699 L504.863,119.054 L481.760,134.080 L487.958,142.532 L488.078,142.475 L488.389,142.324 L488.820,142.106 L489.297,141.851 L489.747,141.587 L490.098,141.343 L490.277,141.148 L490.212,141.029 z" fill-opacity="0" stroke="#000000" stroke-width="1" />
		<path d="M487.770,96.702 L496.974,108.535 L484.953,117.739 L488.334,124.876 L479.694,129.008 L466.734,113.231 L486.644,96.515" fill-opacity="0" stroke="#000000" stroke-width="1" />
		<path d="M514.442,102.337 L535.666,131.074 L544.306,124.125 L523.833,97.078 L514.442,102.337 z" fill-opacity="0" stroke="#000000" stroke-width="1" />
		<path d="M510.685,104.591 L533.600,131.826 L529.656,135.207 L508.431,106.094 L510.685,104.591 z" fill-opacity="0" stroke="#000000" stroke-width="1" />
		<path d="M518.949,128.821 L505.426,108.535 L502.045,110.789 L515.569,129.384 L518.949,128.821 z" fill-opacity="0" stroke="#000000" stroke-width="1" />
		<path d="M499.979,112.104 L501.670,114.734 L493.593,121.120 L491.339,119.429 L499.979,112.104 z" fill-opacity="0" stroke="#000000" stroke-width="1" />
		<path d="M490.776,94.824 L500.355,105.906 L520.640,92.195 L510.685,79.423 L490.776,94.824 z" fill-opacity="0" stroke="#000000" stroke-width="1" />
		<path d="M366.301,370.170 L370.121,402.319 L356.752,404.229 L345.293,409.640 L338.926,382.902 L356.115,372.717 L366.301,370.170 z" fill-opacity="0" stroke="#000000" stroke-width="1" />
		<path d="M380.625,454.522 L395.267,452.293 L398.450,486.671 L383.490,487.307 L380.625,454.522 z" fill-opacity="0" stroke="#000000" stroke-width="1" />
		<path d="M390.811,491.764 L398.132,490.172 L399.087,497.175 L392.084,498.448 L390.811,491.764 z" fill-opacity="0" stroke="#000000" stroke-width="1" />
		<path d="M365.346,500.995 L369.802,499.721 L373.940,507.042 L398.768,502.268 L401.633,521.048 L367.256,524.231 L365.346,500.995 z" fill-opacity="0" stroke="#000000" stroke-width="1" />
		<path d="M368.211,528.051 L400.041,525.504 L403.225,537.918 L368.529,537.918 L368.211,528.051 z" fill-opacity="0" stroke="#000000" stroke-width="1" />
		<path d="M361.845,458.341 L374.259,454.840 L378.078,486.989 L371.712,487.944 L370.439,494.628 L365.664,494.628 L361.845,458.341 z" fill-opacity="0" stroke="#000000" stroke-width="1" />
		<path d="M374.577,493.037 L385.718,492.400 L386.354,500.040 L376.487,500.358 L374.577,493.037 z" fill-opacity="0" stroke="#000000" stroke-width="1" />
		<path d="M418.185,450.065 L455.427,444.336 L460.520,489.535 L439.512,492.718 L434.737,472.028 L420.095,472.347 L417.230,470.755 L419.458,465.026 L418.185,450.065 z" fill-opacity="0" stroke="#000000" stroke-width="1" />
		<path d="M421.368,479.350 L430.599,476.803 L434.419,493.037 L422.960,494.310 L421.050,480.941" fill-opacity="0" stroke="#000000" stroke-width="1" />
		<path d="M413.410,451.338 L401.633,453.248 L404.498,496.220 L418.503,495.265 L415.320,476.803 L410.227,469.800 L412.774,463.116 L413.410,451.338 z" fill-opacity="0" stroke="#000000" stroke-width="1" />
		<path d="M366.938,543.011 L391.447,543.011 L392.084,595.213 L379.352,593.304 L375.214,585.983 L376.805,580.890 L376.168,557.335 L368.529,551.924 L366.938,543.011 z" fill-opacity="0" stroke="#000000" stroke-width="1" />
		<path d="M512.086,606.354 L536.914,611.447 L541.370,614.949 L538.505,625.771 L510.494,620.996 L512.086,606.354 z" fill-opacity="0" stroke="#000000" stroke-width="1" />
		<path d="M511.131,627.363 L543.598,632.456 L536.595,646.143 L520.998,652.509 L507.311,652.509 L509.221,626.726 z" fill-opacity="0" stroke="#000000" stroke-width="1" />
		<path d="M549.009,636.594 L576.066,642.323 L573.519,659.512 L530.229,654.419 L541.370,649.326 L549.009,636.594 z" fill-opacity="0" stroke="#000000" stroke-width="1" />
		<path d="M581.158,642.323 L591.663,643.278 L589.116,660.467 L579.249,660.785 L581.158,642.323 z" fill-opacity="0" stroke="#000000" stroke-width="1" />
		<path d="M501.900,627.363 L456.700,620.996 L440.148,644.551 L471.024,649.008 L474.526,632.774 L503.173,633.410 L501.900,627.363 z" fill-opacity="0" stroke="#000000" stroke-width="1" />
		<path d="M708.800,626.408 L746.997,622.906 L749.225,613.675 L766.732,609.856 L773.735,613.039 L731.718,691.024 L714.529,668.743 L708.800,626.408 z" fill-opacity="0" stroke="#000000" stroke-width="1" />
		<path d="M637.181,651.872 L673.786,648.053 L703.389,638.822 L711.665,673.836 L665.192,679.883 L662.963,665.559 L640.364,665.560 L637.181,651.872 z" fill-opacity="0" stroke="#000000" stroke-width="1" />
		<path d="M594.527,663.650 L632.088,655.055 L634.634,669.061 L639.091,671.926 L658.189,670.334 L659.781,681.793 L597.710,686.249 L594.527,663.650 z" fill-opacity="0" stroke="#000000" stroke-width="1" />
		<path d="M652.778,687.523 L715.166,677.973 L728.217,695.162 L725.670,709.804 L655.006,710.441 L652.778,687.523 z" fill-opacity="0" stroke="#000000" stroke-width="1" />
		<path d="M754.000,666.514 L762.594,671.607 L762.276,681.475 L782.011,690.706 L786.785,684.658 L798.563,689.114 L766.095,755.641 L746.360,745.773 L755.909,722.218 L753.045,721.582 L742.540,743.863 L732.355,742.272 L733.628,711.077 L749.543,676.382 L754.000,666.514 z" fill-opacity="0" stroke="#000000" stroke-width="1" />
		<path d="M764.185,645.506 L768.005,648.371 L759.092,661.421 L755.909,658.557 L764.185,645.506 z" fill-opacity="0" stroke="#000000" stroke-width="1" />
		<path d="M781.374,618.132 L789.332,621.951 L771.825,645.506 L766.414,642.641 L767.096,641.601 L768.886,638.856 L771.399,634.970 L774.252,630.506 L777.060,626.027 L779.439,622.096 L781.005,619.276 L781.374,618.132 z" fill-opacity="0" stroke="#000000" stroke-width="1" />
		<path d="M793.470,625.134 L819.889,640.732 L802.064,683.066 L762.594,665.878 L793.470,625.134 z" fill-opacity="0" stroke="#000000" stroke-width="1" />
		<path d="M803.974,558.290 L828.802,567.202 L795.061,591.712 L803.974,558.290 z" fill-opacity="0" stroke="#000000" stroke-width="1" />
		<path d="M821.799,379.719 L839.942,380.038 L845.354,433.195 L843.126,437.651 L833.895,433.513 L827.528,433.513 L821.799,379.719 z" fill-opacity="0" stroke="#000000" stroke-width="1" />
		<path d="M822.754,360.621 L825.619,373.672 L845.035,374.308 L850.765,412.187 L877.821,406.139 L866.362,352.663 L851.720,355.528 L847.582,359.029 L822.754,360.621 z" fill-opacity="0" stroke="#000000" stroke-width="1" />
		<path d="M850.128,419.189 L859.041,418.553 L860.314,433.195 L858.723,443.063 L848.537,437.333 L849.173,430.012 L850.128,419.189 z" fill-opacity="0" stroke="#000000" stroke-width="1" />
		<path d="M699.910,225.582 L721.184,223.087 L701.354,229.915 L699.910,225.582 z" fill-opacity="0" stroke="#000000" stroke-width="1" />
		<path d="M702.536,233.067 L721.315,226.895 L729.063,226.238 L729.982,228.602 L704.375,237.007 L702.536,233.067 z" fill-opacity="0" stroke="#000000" stroke-width="1" />
		<path d="M705.425,240.027 L730.639,232.279 L731.689,235.825 L707.132,244.886 L705.425,240.027 z" fill-opacity="0" stroke="#000000" stroke-width="1" />
		<path d="M708.183,247.906 L733.002,239.108 L735.103,243.704 L709.102,252.108 L708.183,247.906 z" fill-opacity="0" stroke="#000000" stroke-width="1" />
		<path d="M710.284,255.654 L736.285,247.250 L736.942,252.240 L710.809,260.119 L710.284,255.654 z" fill-opacity="0" stroke="#000000" stroke-width="1" />
		<path d="M670.776,149.305 L690.334,141.458 L707.199,181.160 L687.875,190.061 L670.776,149.305 z" fill-opacity="0" stroke="#000000" stroke-width="1" />
		<path d="M664.569,134.665 L718.208,114.404 L718.208,115.810 L707.316,129.044 L697.713,134.080 L669.722,144.854 L664.569,134.665 z" fill-opacity="0" stroke="#000000" stroke-width="1" />
		<path d="M639.730,79.957 L663.671,129.563 L724.578,107.154 L732.814,98.535 L690.294,44.524 L639.730,79.957 z" fill-opacity="0" stroke="#000000" stroke-width="1" />
		<path d="M695.082,140.864 L710.022,133.203 L721.322,118.263 L722.663,112.517 L725.153,111.368 L723.046,175.722 L710.979,179.362 L695.082,140.864 z" fill-opacity="0" stroke="#000000" stroke-width="1" />
		<path d="M729.175,108.878 L727.451,129.563 L746.030,113.092 L737.602,102.175 L729.175,108.878 z" fill-opacity="0" stroke="#000000" stroke-width="1" />
		<path d="M224.782,271.820 L232.622,269.497 L277.048,237.847 L324.378,212.004 L425.136,181.806 L430.653,211.714 L349.640,223.038 L293.019,249.171 L286.050,247.139 L225.944,284.306 L224.782,271.820 z" fill-opacity="0" stroke="#000000" stroke-width="1" />
		<path d="M347.067,460.096 L356.120,456.911 L359.473,492.286 L350.588,492.454 L347.067,460.096 z" fill-opacity="0" stroke="#000000" stroke-width="1" />
		<path d="M350.923,497.987 L359.641,496.813 L363.665,537.889 L353.270,537.721 L350.923,497.987 z" fill-opacity="0" stroke="#000000" stroke-width="1" />
		<path d="M333.654,470.156 L341.869,467.808 L344.049,462.779 L347.905,492.789 L336.001,493.795 L333.654,470.156 z" fill-opacity="0" stroke="#000000" stroke-width="1" />
		<path d="M340.025,498.322 L346.899,497.316 L349.749,518.944 L342.540,519.782 L340.025,498.322 z" fill-opacity="0" stroke="#000000" stroke-width="1" />
		<path d="M335.163,529.171 L349.582,528.165 L350.420,538.224 L334.996,538.057 L335.163,529.171 z" fill-opacity="0" stroke="#000000" stroke-width="1" />
		<path d="M330.469,498.825 L337.510,498.154 L339.522,519.447 L332.481,519.279 L330.469,498.825 z" fill-opacity="0" stroke="#000000" stroke-width="1" />
		<path d="M335.163,522.632 L349.414,521.794 L349.414,525.985 L334.325,527.327 L335.163,522.632 z" fill-opacity="0" stroke="#000000" stroke-width="1" />
		<path d="M363.162,542.751 L365.174,555.158 L371.712,559.182 L372.718,579.803 L370.706,583.492 L370.371,586.342 L346.229,582.318 L344.887,556.834 L344.049,549.625 L336.672,549.457 L336.337,542.751 L363.162,542.751 z" fill-opacity="0" stroke="#000000" stroke-width="1" />
		<path d="M346.396,587.013 L373.054,590.366 L375.233,597.240 L392.166,600.593 L390.658,606.293 L319.403,597.240 L319.236,592.713 L341.534,589.527 L346.396,587.013 z" fill-opacity="0" stroke="#000000" stroke-width="1" />
		<path d="M317.391,542.584 L329.966,543.254 L331.978,559.685 L341.199,559.349 L342.540,580.139 L320.074,587.851 L317.391,542.584 z" fill-opacity="0" stroke="#000000" stroke-width="1" />
		<path d="M330.133,537.218 L326.277,499.831 L321.583,499.496 L311.021,474.515 L301.464,479.209 L310.853,505.364 L316.386,536.715 L330.133,537.218 z" fill-opacity="0" stroke="#000000" stroke-width="1" />
		<path d="M479.590,636.555 L502.242,636.939 L501.602,652.937 L476.390,651.017 L477.286,636.172 L477.390,636.209 L477.664,636.304 L478.049,636.428 L478.486,636.556 L478.917,636.659 L479.284,636.711 L479.528,636.686 L479.590,636.555 z" fill-opacity="0" stroke="#000000" stroke-width="1" />
		<path d="M508.898,659.297 L520.223,658.333 L589.617,666.526 L590.822,687.248 L515.403,700.741 L508.898,659.297 z" fill-opacity="0" stroke="#000000" stroke-width="1" />
		<path d="M518.777,703.873 L590.581,694.235 L594.436,715.921 L519.500,726.282 L518.777,703.873 z" fill-opacity="0" stroke="#000000" stroke-width="1" />
		<path d="M597.568,692.067 L646.723,687.488 L648.410,708.210 L599.978,714.957 L597.568,692.067 z" fill-opacity="0" stroke="#000000" stroke-width="1" />
		<path d="M655.680,716.068 L726.425,714.597 L724.464,740.902 L718.256,745.804 L655.354,748.908 L655.680,716.068 z" fill-opacity="0" stroke="#000000" stroke-width="1" />
		<path d="M598.987,720.316 L647.511,715.088 L650.125,741.556 L637.218,744.660 L635.584,750.378 L602.744,756.587 L598.987,720.316 z" fill-opacity="0" stroke="#000000" stroke-width="1" />
		<path d="M641.956,748.254 L651.269,746.294 L651.432,750.215 L641.139,750.051 L641.956,748.254 z" fill-opacity="0" stroke="#000000" stroke-width="1" />
		<path d="M550.279,727.137 L594.131,720.832 L599.315,756.979 L557.844,762.303 L550.279,727.137 z" fill-opacity="0" stroke="#000000" stroke-width="1" />
		<path d="M546.496,726.997 L552.520,763.003 L528.843,765.946 L523.939,751.795 L520.857,731.200 L546.496,726.997 z" fill-opacity="0" stroke="#000000" stroke-width="1" />
		<path d="M488.016,727.778 L514.215,723.244 L523.032,765.062 L495.321,768.589 L488.016,727.778 z" fill-opacity="0" stroke="#000000" stroke-width="1" />
		<path d="M461.564,653.210 L501.871,656.989 L513.711,719.465 L473.656,723.747 L461.564,653.210 z" fill-opacity="0" stroke="#000000" stroke-width="1" />
		<path d="M445.441,687.471 L461.564,683.440 L469.625,725.007 L449.472,728.534 L445.441,687.471 z" fill-opacity="0" stroke="#000000" stroke-width="1" />
		<path d="M449.220,652.706 L457.030,653.462 L461.312,678.402 L444.686,682.685 L449.220,652.706 z" fill-opacity="0" stroke="#000000" stroke-width="1" />
		<path d="M450.732,732.313 L483.229,728.282 L490.283,767.329 L456.526,774.131 L450.732,732.313 z" fill-opacity="0" stroke="#000000" stroke-width="1" />
		<path d="M481.970,825.271 L479.198,777.154 L523.788,772.116 L481.970,825.271 z" fill-opacity="0" stroke="#000000" stroke-width="1" />
		<path d="M604.906,762.291 L633.877,756.245 L640.679,786.223 L613.471,794.789 L604.906,762.291 z" fill-opacity="0" stroke="#000000" stroke-width="1" />
		<path d="M640.679,756.749 L723.560,752.970 L733.133,799.323 L699.124,806.881 L689.803,793.277 L655.542,799.827 L640.679,756.749 z" fill-opacity="0" stroke="#000000" stroke-width="1" />
		<path d="M531.094,771.360 L600.120,763.802 L609.693,801.842 L576.439,810.408 L570.141,791.010 L551.499,798.315 L524.544,781.437 L531.094,771.360 z" fill-opacity="0" stroke="#000000" stroke-width="1" />
		<path d="M576.691,815.194 L610.448,806.881 L615.487,824.263 L574.424,838.119 L570.393,829.050 L576.691,815.194 z" fill-opacity="0" stroke="#000000" stroke-width="1" />
		<path d="M614.479,799.827 L641.183,791.514 L650.504,824.263 L624.052,832.576 L623.641,831.148 L622.556,827.388 L621.023,822.081 L619.266,816.013 L617.508,809.968 L615.975,804.731 L614.890,801.089 L614.479,799.827 z" fill-opacity="0" stroke="#000000" stroke-width="1" />
		<path d="M652.519,810.911 L683.757,803.606 L691.315,830.309 L659.825,843.157 L652.519,810.911 z" fill-opacity="0" stroke="#000000" stroke-width="1" />
		<path d="M756.058,760.024 L837.176,791.262 L822.816,829.553 L756.058,760.024 z" fill-opacity="0" stroke="#000000" stroke-width="1" />
		<path d="M803.167,690.746 L809.465,693.013 L776.211,759.268 L770.165,757.505 L803.167,690.746 z" fill-opacity="0" stroke="#000000" stroke-width="1" />
		<path d="M822.564,642.629 L825.336,643.385 L810.976,688.227 L805.938,686.463 L822.564,642.629 z" fill-opacity="0" stroke="#000000" stroke-width="1" />
		<path d="M784.021,614.414 L826.343,638.095 L844.230,601.063 L847.001,594.009 L845.993,576.626 L838.183,568.565 L792.838,600.559 L784.021,614.414 z" fill-opacity="0" stroke="#000000" stroke-width="1" />
		<path d="M820.045,511.127 L864.635,531.281 L832.389,564.282 L802.915,552.946 L820.045,511.127 z" fill-opacity="0" stroke="#000000" stroke-width="1" />
		<path d="M828.107,491.226 L876.475,516.418 L866.398,528.258 L821.305,506.845 L828.107,491.226 z" fill-opacity="0" stroke="#000000" stroke-width="1" />
		<path d="M829.114,437.315 L835.916,437.819 L862.620,452.430 L857.329,469.813 L858.841,474.599 L848.512,496.012 L829.618,488.203 L833.145,472.836 L829.114,437.315 z" fill-opacity="0" stroke="#000000" stroke-width="1" />
		<path d="M867.658,454.194 L910.988,469.813 L897.636,487.195 L861.612,471.828 L867.658,454.194 z" fill-opacity="0" stroke="#000000" stroke-width="1" />
		<path d="M861.612,477.622 L893.102,491.982 L878.742,509.112 L852.795,499.287 L861.108,479.134" fill-opacity="0" stroke="#000000" stroke-width="1" />
		<path d="M324.211,427.528 L343.956,420.677 L358.060,409.797 L370.553,407.782 L374.985,446.065 L344.359,453.318 L339.927,442.035 L318.972,446.065 L324.211,438.408 L324.211,427.528 z" fill-opacity="0" stroke="#000000" stroke-width="1" />
		<path d="M283.913,457.348 L306.480,450.497 L318.166,438.408 L319.778,419.872 L337.509,409.797 L331.464,378.365 L363.702,362.649 L367.911,354.477 L395.134,342.501 L399.567,334.844 L398.358,327.994 L398.358,320.337 L399.380,319.818 L402.079,318.448 L405.902,316.512 L410.296,314.293 L414.709,312.073 L418.588,310.137 L421.381,308.767 L422.536,308.248 L423.379,307.988 L425.351,307.303 L428.068,306.335 L431.150,305.225 L434.212,304.116 L436.873,303.148 L438.750,302.463 L439.461,302.203 L437.849,292.129 L419.715,289.711 L389.895,301.800 L377.403,296.562 L369.344,283.667 L350.001,288.502 L348.389,267.548 L350.807,239.340 L355.240,231.683 L318.166,242.966 L291.973,255.458 L282.704,253.041 L225.885,286.084 L233.139,307.845 L258.526,302.203 L285.525,290.920 L293.182,294.144 L293.585,306.636 L297.212,321.546 L245.631,349.754 L252.079,396.096 L259.332,431.155 L283.913,457.348 z" fill-opacity="0" stroke="#000000" stroke-width="1" />
		<path d="M411.366,219.033 L430.699,216.720 L432.186,229.278 L412.523,231.261 L411.366,219.033 z" fill-opacity="0" stroke="#000000" stroke-width="1" />
		<path d="M413.679,234.896 L432.517,232.913 L434.169,252.081 L415.332,255.220 L413.679,234.896 z" fill-opacity="0" stroke="#000000" stroke-width="1" />
		<path d="M416.984,261.004 L416.158,260.012 L434.499,257.699 L438.135,284.467 L420.454,284.302 L416.158,259.351" fill-opacity="0" stroke="#000000" stroke-width="1" />
		<path d="M382.284,232.087 L408.061,229.939 L410.210,257.038 L383.937,260.343 L382.284,232.087 z" fill-opacity="0" stroke="#000000" stroke-width="1" />
		<path d="M379.971,222.834 L406.739,218.868 L407.566,225.643 L382.284,228.121 L379.971,222.834 z" fill-opacity="0" stroke="#000000" stroke-width="1" />
		<path d="M358.986,225.478 L376.832,222.999 L377.658,229.113 L360.308,230.435 L358.986,225.478 z" fill-opacity="0" stroke="#000000" stroke-width="1" />
		<path d="M356.177,235.557 L377.327,233.244 L378.649,243.984 L353.533,246.958 L356.177,235.557 z" fill-opacity="0" stroke="#000000" stroke-width="1" />
		<path d="M354.359,251.585 L377.988,250.594 L379.641,259.847 L354.194,263.317 L354.221,262.820 L354.290,261.507 L354.377,259.648 L354.463,257.513 L354.525,255.370 L354.542,253.488 L354.494,252.136 L354.359,251.585 z" fill-opacity="0" stroke="#000000" stroke-width="1" />
		<path d="M355.185,267.448 L380.302,265.300 L382.615,277.032 L354.359,278.684 L355.185,267.448 z" fill-opacity="0" stroke="#000000" stroke-width="1" />
		<path d="M381.128,284.137 L386.250,280.502 L392.529,284.302 L396.991,294.547 L388.894,297.356 L383.276,294.051 L381.128,284.137 z" fill-opacity="0" stroke="#000000" stroke-width="1" />
		<path d="M385.424,264.639 L410.870,261.499 L414.671,272.570 L395.503,277.527 L393.025,280.832 L387.737,277.032 L385.424,264.639 z" fill-opacity="0" stroke="#000000" stroke-width="1" />
		<path d="M397.817,280.667 L415.167,275.379 L416.323,285.789 L409.383,290.251 L401.287,292.564 L397.817,280.667 z" fill-opacity="0" stroke="#000000" stroke-width="1" />
		<path d="M232.615,312.925 L266.756,303.926 L283.694,294.663 L288.723,297.574 L287.135,311.337 L289.252,320.070 L242.143,343.890 L232.615,312.925 z" fill-opacity="0" stroke="#000000" stroke-width="1" />
		<path d="M315.923,475.106 L326.983,467.344 L330.670,471.419 L332.417,493.347 L323.490,494.705 L318.251,481.510 L315.923,475.106 z" fill-opacity="0" stroke="#000000" stroke-width="1" />
		<path d="M326.595,451.238 L337.268,448.133 L341.925,456.283 L339.014,463.463 L333.387,466.180 L329.118,459.776 L326.595,451.238 z" fill-opacity="0" stroke="#000000" stroke-width="1" />
		<path d="M300.981,457.253 L321.938,452.596 L324.073,459.000 L306.026,470.837 L300.981,468.508 L302.145,462.299 L300.981,457.253 z" fill-opacity="0" stroke="#000000" stroke-width="1" />
		<path d="M289.726,461.328 L296.129,459.000 L297.100,462.881 L294.383,464.627 L295.353,468.314 L299.622,473.165 L301.563,474.718 L298.264,476.076 L287.785,462.881 L289.726,461.328 z" fill-opacity="0" stroke="#000000" stroke-width="1" />
		<path d="M284.486,467.538 L295.159,479.181 L304.279,501.109 L309.713,535.844 L303.115,535.844 L287.785,529.246 L296.323,495.675 L296.906,492.182 L294.577,487.719 L273.231,483.062 L274.784,476.658 L284.486,467.538 z" fill-opacity="0" stroke="#000000" stroke-width="1" />
		<path d="M264.887,449.879 L280.605,463.657 L272.261,474.136 L269.739,484.614 L291.278,491.794 L292.442,495.287 L282.740,528.276 L244.900,517.215 L264.887,449.879 z" fill-opacity="0" stroke="#000000" stroke-width="1" />
		<path d="M242.766,522.454 L287.203,535.067 L310.683,542.247 L313.012,616.374 L310.694,616.905 L304.583,618.184 L295.943,619.959 L286.039,621.977 L276.135,623.986 L267.495,625.734 L261.384,626.968 L259.066,627.435 L254.603,614.434 L239.273,608.612 L225.495,605.119 L223.749,601.626 L242.766,522.454 z" fill-opacity="0" stroke="#000000" stroke-width="1" />
		<path d="M319.672,605.793 L446.971,622.802 L435.449,638.715 L395.119,632.953 L384.968,633.502 L384.694,673.832 L381.127,673.832 L377.561,632.953 L372.348,634.325 L374.543,674.655 L335.859,675.203 L334.487,639.538 L319.947,637.069 L319.672,605.793 z" fill-opacity="0" stroke="#000000" stroke-width="1" />
		<path d="M435.888,649.712 L444.592,652.055 L440.910,682.685 L413.125,689.380 L412.120,681.848 L413.155,680.481 L415.881,676.874 L419.729,671.768 L424.130,665.905 L428.515,660.027 L432.316,654.874 L434.963,651.189 L435.888,649.712 z" fill-opacity="0" stroke="#000000" stroke-width="1" />
		<path d="M433.043,644.858 L432.784,644.635 L432.099,644.047 L431.128,643.216 L430.009,642.263 L428.883,641.311 L427.888,640.480 L427.164,639.892 L426.850,639.669 L389.022,639.334 L389.524,675.153 L407.601,675.153 L403.751,643.519 L407.769,643.519 L411.953,670.299 L433.043,644.858 z" fill-opacity="0" stroke="#000000" stroke-width="1" />
		<path d="M377.473,681.681 L402.580,681.514 L380.318,711.642 L376.971,708.629 L377.473,681.681 z" fill-opacity="0" stroke="#000000" stroke-width="1" />
		<path d="M319.727,641.343 L331.276,642.347 L331.109,676.660 L319.727,676.827 L319.727,641.343 z" fill-opacity="0" stroke="#000000" stroke-width="1" />
		<path d="M313.559,621.982 L308.383,790.814 L259.090,787.117 L249.231,753.104 L260.075,634.306 L313.559,621.982 z" fill-opacity="0" stroke="#000000" stroke-width="1" />
		<path d="M255.146,636.770 L246.273,746.449 L239.618,742.506 L226.309,717.119 L200.183,661.910 L255.146,636.770 z" fill-opacity="0" stroke="#000000" stroke-width="1" />
		<path d="M314.299,802.891 L331.798,804.616 L349.297,810.778 L349.424,811.086 L349.759,811.899 L350.233,813.052 L350.776,814.382 L351.319,815.724 L351.793,816.912 L352.128,817.783 L352.255,818.172 L351.376,818.815 L349.059,820.355 L345.782,822.491 L342.026,824.919 L338.271,827.335 L334.994,829.436 L332.677,830.919 L331.798,831.481 L314.299,802.891 z" fill-opacity="0" stroke="#000000" stroke-width="1" />
		<path d="M324.157,793.032 L347.326,791.060 L349.544,799.440 L347.819,802.644 L324.157,793.032 z" fill-opacity="0" stroke="#000000" stroke-width="1" />
		<path d="M316.024,756.308 L349.297,756.801 L347.572,783.913 L316.517,788.842 L316.024,756.308 z" fill-opacity="0" stroke="#000000" stroke-width="1" />
		<path d="M414.365,693.458 L440.244,687.790 L445.420,728.457 L418.555,733.879 L414.365,693.458 z" fill-opacity="0" stroke="#000000" stroke-width="1" />
		<path d="M419.295,737.823 L445.174,734.126 L450.596,773.561 L423.731,776.765 L423.530,775.071 L423.003,770.611 L422.262,764.314 L421.420,757.109 L420.590,749.928 L419.884,743.700 L419.415,739.355 L419.295,737.823 z" fill-opacity="0" stroke="#000000" stroke-width="1" />
		<path d="M390.951,740.041 L413.133,739.055 L419.295,778.244 L396.373,780.955 L396.170,779.217 L395.630,774.632 L394.852,768.140 L393.939,760.683 L392.991,753.203 L392.110,746.642 L391.396,741.941 L390.951,740.041 z" fill-opacity="0" stroke="#000000" stroke-width="1" />
		<path d="M403.767,711.451 L411.408,708.986 L414.612,734.372 L396.619,733.386 L395.880,725.746 L403.767,721.802 L403.767,711.451 z" fill-opacity="0" stroke="#000000" stroke-width="1" />
		<path d="M408.696,686.311 L410.422,704.550 L399.084,708.739 L398.345,720.077 L393.169,723.528 L393.169,732.893 L389.718,733.633 L387.500,719.584 L384.542,714.408 L408.696,686.311 z" fill-opacity="0" stroke="#000000" stroke-width="1" />
		<path d="M370.987,732.893 L381.092,719.584 L384.050,725.499 L390.704,780.462 L354.473,784.159 L357.184,755.815 L362.607,756.555 L373.205,752.118 L374.930,742.506 L369.754,735.112 L370.987,732.893 z" fill-opacity="0" stroke="#000000" stroke-width="1" />
		<path d="M366.550,738.809 L371.233,743.245 L370.001,749.161 L364.825,752.365 L359.156,751.379 L366.550,738.809 z" fill-opacity="0" stroke="#000000" stroke-width="1" />
		<path d="M359.156,683.846 L371.480,683.353 L372.958,709.479 L376.409,713.915 L355.952,743.492 L359.156,683.846 z" fill-opacity="0" stroke="#000000" stroke-width="1" />
		<path d="M318.982,681.628 L353.734,680.642 L352.994,704.057 L318.735,702.085 L318.776,701.196 L318.878,698.854 L319.008,695.547 L319.136,691.764 L319.229,687.993 L319.255,684.721 L319.184,682.436 L318.982,681.628 z" fill-opacity="0" stroke="#000000" stroke-width="1" />
		<path d="M319.228,706.275 L352.009,706.768 L349.297,750.146 L317.010,750.886 L319.228,706.275 z" fill-opacity="0" stroke="#000000" stroke-width="1" />
		<path d="M211.410,324.238 L226.531,321.403 L233.619,345.502 L214.481,347.629 L211.410,324.238 z" fill-opacity="0" stroke="#000000" stroke-width="1" />
		<path d="M222.514,294.705 L224.404,314.788 L206.212,319.749 L209.992,348.101 L184.948,353.063 L176.915,308.645 L222.514,294.705 z" fill-opacity="0" stroke="#000000" stroke-width="1" />
		<path d="M255.828,438.591 L261.262,446.388 L255.828,465.525 L244.487,462.454 L234.328,490.333 L212.355,482.537 L211.646,474.504 L197.943,469.306 L210.701,459.146 L255.828,438.591 z" fill-opacity="0" stroke="#000000" stroke-width="1" />
		<path d="M245.905,466.471 L254.174,467.888 L242.361,514.669 L229.366,510.652 L245.905,466.471 z" fill-opacity="0" stroke="#000000" stroke-width="1" />
		<path d="M195.108,473.086 L206.448,478.048 L207.393,486.081 L200.542,503.801 L186.129,498.603 L184.948,495.768 L195.108,473.086 z" fill-opacity="0" stroke="#000000" stroke-width="1" />
		<path d="M211.174,487.262 L231.256,493.877 L225.113,510.652 L204.558,504.746 L211.174,487.262 z" fill-opacity="0" stroke="#000000" stroke-width="1" />
		<path d="M206.921,511.361 L238.580,520.339 L231.492,548.691 L198.415,536.878 L198.751,535.801 L199.644,532.957 L200.919,528.929 L202.402,524.297 L203.918,519.643 L205.293,515.548 L206.352,512.593 L206.921,511.361 z" fill-opacity="0" stroke="#000000" stroke-width="1" />
		<path d="M149.744,531.207 L156.596,504.509 L159.904,491.515 L163.212,489.152 L179.041,460.328 L196.289,449.459 L225.586,436.701 L229.602,443.789 L205.267,458.201 L189.437,471.905 L179.986,495.768 L176.679,501.674 L149.744,531.207 z" fill-opacity="0" stroke="#000000" stroke-width="1" />
		<path d="M183.058,502.383 L201.959,509.471 L193.690,533.806 L166.047,523.174 L183.058,502.383 z" fill-opacity="0" stroke="#000000" stroke-width="1" />
		<path d="M164.629,528.372 L227.240,552.235 L218.025,600.906 L222.987,609.175 L232.674,611.302 L231.729,616.263 L212.591,612.956 L203.849,607.758 L190.855,582.714 L176.442,557.433 L168.409,548.691 L154.942,536.405 L164.629,528.372 z" fill-opacity="0" stroke="#000000" stroke-width="1" />
		<path d="M209.520,615.318 L231.729,622.170 L238.108,612.247 L249.921,616.972 L250.394,619.335 L229.839,626.659 L214.718,624.769 L208.575,619.571 L209.520,615.318 z" fill-opacity="0" stroke="#000000" stroke-width="1" />
		<path d="M163.684,589.801 L169.118,586.730 L179.041,588.148 L188.728,590.274 L204.086,620.989 L220.152,629.730 L235.036,627.840 L252.284,621.461 L254.647,626.423 L255.119,629.494 L198.179,657.610 L163.684,589.801 z" fill-opacity="0" stroke="#000000" stroke-width="1" />
		<path d="M236.801,440.683 L252.591,434.521 L246.429,399.476 L216.775,403.327 L211.384,409.874 L183.655,413.340 L156.312,406.793 L142.062,397.165 L142.448,388.307 L157.467,386.767 L215.620,396.010 L243.348,391.003 L234.876,352.877 L183.655,360.194 L173.642,349.796 L147.454,354.417 L139.752,307.048 L136.286,283.941 L77.363,293.954 L81.599,321.682 L76.593,358.653 L75.437,371.747 L93.923,382.531 L93.923,391.388 L108.942,429.515 L107.402,433.751 L108.942,439.528 L117.800,440.683 L123.962,459.939 L118.185,462.635 L113.949,445.690 L90.072,452.237 L127.813,538.118 L128.969,545.050 L129.019,545.446 L129.149,546.488 L129.334,547.954 L129.546,549.623 L129.759,551.274 L129.944,552.686 L130.074,553.638 L130.124,553.908 L129.992,554.443 L129.643,556.092 L129.149,558.491 L128.584,561.273 L128.018,564.073 L127.524,566.526 L127.175,568.266 L127.043,568.927 L130.124,580.866 L153.616,589.724 L156.697,587.028 L162.859,579.711 L177.878,571.238 L147.069,535.422 L150.150,504.613 L156.312,488.823 L167.480,468.797 L190.202,446.460 L208.303,439.528 L222.937,433.751 L229.484,430.285 L236.801,440.683 z" fill-opacity="0" stroke="#000000" stroke-width="1" />
		<path d="M144.238,305.785 L204.355,291.829 L204.713,294.155 L172.865,305.606 L178.233,346.579 L151.752,348.726 L144.238,305.785 z" fill-opacity="0" stroke="#000000" stroke-width="1" />
		<path d="M141.554,282.347 L219.205,276.442 L220.994,284.494 L144.775,301.491 L141.554,282.347 z" fill-opacity="0" stroke="#000000" stroke-width="1" />
		<path d="M155.654,391.859 L210.441,402.678 L208.599,406.591 L183.277,408.433 L155.884,401.527 L149.208,392.780 L155.654,391.859 z" fill-opacity="0" stroke="#000000" stroke-width="1" />
		<path d="M814.910,318.651 L820.315,354.460 L843.625,352.433 L854.773,347.366 L865.921,345.677 L890.582,340.947 L883.487,301.760 L814.910,318.651 z" fill-opacity="0" stroke="#000000" stroke-width="1" />
		<path d="M810.518,286.220 L825.720,284.193 L830.787,303.787 L849.705,301.760 L849.367,297.030 L834.166,299.395 L830.787,282.842 L874.366,276.761 L882.812,296.355 L817.275,313.584 L810.518,286.220 z" fill-opacity="0" stroke="#000000" stroke-width="1" />
		<path d="M864.907,417.970 L903.419,406.147 L903.419,445.334 L901.730,459.185 L864.232,446.685 L864.907,417.970 z" fill-opacity="0" stroke="#000000" stroke-width="1" />
		<path d="M872.339,352.095 L892.609,347.366 L901.730,400.742 L882.812,407.160 L872.339,352.095 z" fill-opacity="0" stroke="#000000" stroke-width="1" />
		<path d="M733.492,225.330 L799.171,227.125 L802.313,280.985 L721.822,298.938 L713.145,263.630 L742.469,254.204 L733.492,225.330 z" fill-opacity="0" stroke="#000000" stroke-width="1" />
		<path d="M694.899,207.647 L780.885,178.068 L787.764,172.393 L802.382,172.565 L802.726,185.634 L798.943,220.373 L775.554,219.169 L737.720,220.029 L716.052,218.825 L699.198,221.405 L694.899,207.647 z" fill-opacity="0" stroke="#000000" stroke-width="1" />
		<path d="M809.777,165.858 L824.051,168.953 L824.566,173.768 L824.440,174.128 L824.109,174.969 L823.641,176.129 L823.105,177.444 L822.568,178.751 L822.100,179.887 L821.769,180.688 L821.643,180.991 L807.713,182.195 L808.573,167.061" fill-opacity="0" stroke="#000000" stroke-width="1" />
		<path d="M728.262,134.043 L748.898,117.189 L799.114,157.947 L804.618,163.794 L800.146,167.749 L784.153,168.265 L753.026,183.399 L693.867,203.348 L690.428,193.545 L722.587,179.615 L729.466,177.724 L727.918,166.546 L728.262,134.043 z" fill-opacity="0" stroke="#000000" stroke-width="1" />
		<path d="M605.169,24.364 L632.531,77.569 L575.070,116.181 L534.939,59.632 L603.649,24.060 z" fill-opacity="0" stroke="#000000" stroke-width="1" />
		<path d="M214.839,206.399 L348.888,144.863 L380.155,136.880 L419.737,136.880 L424.061,175.132 L376.828,189.768 L319.284,208.727 L276.708,231.013 L241.449,254.297 L224.153,267.602 L214.839,206.399 z" fill-opacity="0" stroke="#000000" stroke-width="1" />
		<path d="M187.896,164.821 L203.530,177.461 L218.165,271.261 L206.524,273.257 L184.570,167.482 L187.896,164.821 z" fill-opacity="0" stroke="#000000" stroke-width="1" />
		<path d="M164.613,235.005 L183.572,215.380 L187.896,214.049 L195.547,257.291 L164.613,235.005 z" fill-opacity="0" stroke="#000000" stroke-width="1" />
		<path d="M162.617,240.660 L199.206,271.927 L140.331,276.583 L140.996,262.613 L162.617,240.660 z" fill-opacity="0" stroke="#000000" stroke-width="1" />
		<path d="M144.322,215.713 L179.581,174.467 L186.899,207.397 L180.911,209.725 L161.286,232.011 L144.322,215.713 z" fill-opacity="0" stroke="#000000" stroke-width="1" />
		<path d="M80.125,284.899 L139.333,218.706 L156.962,235.005 L138.335,258.289 L135.341,276.583 L99.085,284.566 L80.125,284.899 z" fill-opacity="0" stroke="#000000" stroke-width="1" />
		<path d="M907.941,401.490 L916.311,399.397 L919.101,445.200 L908.406,443.572 L907.941,401.490 z" fill-opacity="0" stroke="#000000" stroke-width="1" />
		<path d="M897.479,346.619 L907.709,344.294 L915.149,393.585 L905.384,397.305 L897.479,346.619 z" fill-opacity="0" stroke="#000000" stroke-width="1" />
		<path d="M912.359,343.829 L927.006,339.877 L928.866,354.059 L915.149,356.850 L912.359,343.829 z" fill-opacity="0" stroke="#000000" stroke-width="1" />
		<path d="M914.684,360.105 L928.634,357.315 L932.587,375.915 L918.636,378.240 L914.684,360.105 z" fill-opacity="0" stroke="#000000" stroke-width="1" />
		<path d="M920.031,381.030 L932.819,379.635 L934.679,390.795 L919.566,394.747 L920.031,381.030 z" fill-opacity="0" stroke="#000000" stroke-width="1" />
		<path d="M920.496,399.397 L927.936,397.770 L930.959,420.090 L923.751,423.810 L920.496,399.397 z" fill-opacity="0" stroke="#000000" stroke-width="1" />
		<path d="M924.216,428.227 L933.981,420.787 L932.819,397.770 L942.584,394.282 L945.374,408.930 L929.796,429.622 L927.704,434.505 L927.239,443.805 L922.821,444.502 L924.216,428.227 z" fill-opacity="0" stroke="#000000" stroke-width="1" />
		<path d="M948.861,381.727 L973.042,403.815 L933.051,443.340 L930.726,433.575 L944.444,417.765 L949.327,407.302 L947.002,383.122 L948.861,381.727 z" fill-opacity="0" stroke="#000000" stroke-width="1" />
		<path d="M931.424,338.714 L989.317,388.470 L977.924,400.792 L951.187,376.845 L938.631,378.937 L931.424,338.714 z" fill-opacity="0" stroke="#000000" stroke-width="1" />
		<path d="M907.476,447.060 L924.449,450.315 L913.986,466.590 L906.314,463.335 L907.476,447.060 z" fill-opacity="0" stroke="#000000" stroke-width="1" />
		<path d="M890.969,305.699 L926.076,333.832 L895.851,341.504 L890.969,305.699 z" fill-opacity="0" stroke="#000000" stroke-width="1" />
		<path d="M811.903,188.207 L815.831,188.207 L813.539,281.163 L809.284,282.144 L806.666,221.920 L806.666,202.281 L809.284,190.498 L811.903,188.207 z" fill-opacity="0" stroke="#000000" stroke-width="1" />
		<path d="M820.413,190.171 L818.776,278.544 L831.869,277.235 L834.160,203.918 L835.797,199.335 L828.596,188.861 L820.413,190.171 z" fill-opacity="0" stroke="#000000" stroke-width="1" />
		<path d="M838.742,208.827 L866.891,259.233 L854.453,266.106 L851.180,269.379 L850.853,276.253 L836.778,277.235 L838.742,208.827 z" fill-opacity="0" stroke="#000000" stroke-width="1" />
		<path d="M858.708,268.397 L869.509,263.815 L873.437,271.998 L857.726,275.271 L858.708,268.397 z" fill-opacity="0" stroke="#000000" stroke-width="1" />
		<path d="M421.876,5.721 L424.597,14.131 L420.887,129.151 L360.285,134.840 L355.091,126.430 L343.465,129.398 L323.924,85.864 L375.621,62.365 L385.763,49.255 L393.925,37.877 L409.756,29.467 L416.682,22.294 L421.876,5.721 z" fill-opacity="0" stroke="#000000" stroke-width="1" />
		<path d="M309.578,54.945 L416.682,6.958 L414.456,21.304 L404.809,28.725 L394.420,33.425 L374.385,55.687 L320.214,79.927 L309.578,54.945 z" fill-opacity="0" stroke="#000000" stroke-width="1" />
		<path d="M288.058,64.097 L304.136,57.665 L325.161,102.684 L316.009,103.673 L311.557,94.521 L301.910,94.274 L288.058,64.097 z" fill-opacity="0" stroke="#000000" stroke-width="1" />
		<path d="M325.408,106.147 L341.734,140.529 L253.923,179.363 L240.072,155.617 L248.482,149.186 L246.503,141.766 L325.408,106.147 z" fill-opacity="0" stroke="#000000" stroke-width="1" />
		<path d="M252.192,121.977 L268.023,108.620 L285.090,101.447 L307.599,98.231 L312.299,107.136 L251.945,134.098 L248.482,130.140 L252.192,121.977 z" fill-opacity="0" stroke="#000000" stroke-width="1" />
		<path d="M268.270,74.485 L283.606,67.312 L296.468,95.263 L280.390,98.231 L268.270,74.485 z" fill-opacity="0" stroke="#000000" stroke-width="1" />
		<path d="M265.549,76.959 L275.443,98.726 L270.001,101.694 L259.365,77.948 L264.807,74.733 L265.549,76.959 z" fill-opacity="0" stroke="#000000" stroke-width="1" />
		<path d="M256.150,80.422 L265.796,102.436 L265.233,102.936 L263.748,104.256 L261.648,106.128 L259.241,108.280 L256.835,110.444 L254.735,112.350 L253.250,113.728 L252.687,114.309 L252.134,113.200 L250.677,110.124 L248.617,105.731 L246.256,100.674 L243.894,95.606 L241.834,91.178 L240.377,88.043 L239.824,86.853 L256.150,80.422 z" fill-opacity="0" stroke="#000000" stroke-width="1" />
		<path d="M235.619,88.832 L247.987,117.525 L242.793,124.451 L245.761,135.087 L239.824,138.797 L220.531,96.500 L235.619,88.832 z" fill-opacity="0" stroke="#000000" stroke-width="1" />
		<path d="M216.326,98.231 L237.598,141.766 L242.545,142.013 L242.793,147.949 L237.103,153.391 L249.224,181.589 L214.347,195.194 L198.269,107.383 L216.326,98.231 z" fill-opacity="0" stroke="#000000" stroke-width="1" />
		<path d="M346.147,133.211 L352.744,130.697 L354.943,136.666 L348.346,139.807 L346.147,133.211 z" fill-opacity="0" stroke="#000000" stroke-width="1" />
		<path d="M428.667,90.549 L450.851,102.965 L459.625,112.236 L439.262,129.784 L428.336,131.771 L428.667,90.549 z" fill-opacity="0" stroke="#000000" stroke-width="1" />
		<path d="M429.660,69.193 L442.573,68.366 L459.956,59.261 L467.074,53.135 L470.716,57.108 L470.551,60.585 L443.898,81.278 L438.600,89.390 L429.495,86.576 L429.660,69.193 z" fill-opacity="0" stroke="#000000" stroke-width="1" />
		<path d="M471.875,50.487 L475.683,58.267 L473.365,63.896 L446.877,83.927 L442.573,91.046 L456.148,100.482 L463.267,110.084 L527.334,58.930 L502.667,28.303 L471.875,50.487 z" fill-opacity="0" stroke="#000000" stroke-width="1" />
		<path d="M619.839,41.537 L626.562,38.579 L634.359,53.368 L627.906,57.402 L619.839,41.537 z" fill-opacity="0" stroke="#000000" stroke-width="1" />
		<path d="M629.788,60.359 L636.242,57.402 L645.921,68.157 L637.317,76.762 L636.982,76.079 L636.103,74.275 L634.864,71.714 L633.452,68.762 L632.052,65.785 L630.851,63.149 L630.034,61.218 L629.788,60.359 z" fill-opacity="0" stroke="#000000" stroke-width="1" />
		<path d="M511.477,33.740 L530.300,19.757 L551.542,46.915 L550.733,47.285 L548.597,48.259 L545.572,49.637 L542.097,51.217 L538.610,52.797 L535.547,54.175 L533.349,55.149 L532.451,55.519 L531.484,54.616 L529.098,52.229 L525.767,48.841 L521.964,44.932 L518.161,40.985 L514.830,37.483 L512.444,34.907 L511.477,33.740 z" fill-opacity="0" stroke="#000000" stroke-width="1" />
		<path d="M551.273,39.386 L563.642,31.857 L567.406,37.773 L555.575,45.033 L551.273,39.386 z" fill-opacity="0" stroke="#000000" stroke-width="1" />
		<path d="M533.795,17.606 L548.584,36.159 L560.953,28.631 L546.971,7.926 L533.795,17.606 z" fill-opacity="0" stroke="#000000" stroke-width="1" />
		<path d="M888.581,288.456 L896.965,286.037 L899.706,291.519 L904.865,293.292 L923.890,287.004 L934.853,331.987 L934.531,334.244 L898.738,303.933 L890.838,295.711 L888.581,288.456 z" fill-opacity="0" stroke="#000000" stroke-width="1" />
		<path d="M875.844,262.014 L906.638,251.696 L910.669,247.181 L915.022,250.245 L922.761,282.490 L906.316,288.294 L902.446,287.649 L899.222,281.039 L886.324,285.070 L876.328,261.208" fill-opacity="0" stroke="#000000" stroke-width="1" />
		<path d="M833.602,165.761 L833.280,186.882 L860.366,224.126 L874.393,257.016 L904.865,247.342 L911.959,239.603 L875.360,157.216 L833.602,165.761 z" fill-opacity="0" stroke="#000000" stroke-width="1" />
		<path d="M692.659,35.526 L696.342,32.580 L739.984,27.976 L760.977,37.368 L756.742,51.915 L762.450,76.959 L772.762,102.187 L802.410,141.410 L807.198,143.988 L803.330,152.643 L755.821,111.210 L692.659,35.526 z" fill-opacity="0" stroke="#000000" stroke-width="1" />
		<path d="M843.173,564.029 L879.387,522.820 L911.855,538.742 L871.894,589.629 L843.173,564.029 z" fill-opacity="0" stroke="#000000" stroke-width="1" />
		<path d="M850.978,580.263 L885.319,605.863 L854.724,663.306 L827.251,653.316 L832.246,635.833 L851.914,596.497 L850.978,580.263 z" fill-opacity="0" stroke="#000000" stroke-width="1" />
		<path d="M826.315,659.560 L890.002,680.477 L885.006,693.901 L820.071,675.169 L826.315,659.560 z" fill-opacity="0" stroke="#000000" stroke-width="1" />
		<path d="M820.383,680.477 L882.509,697.647 L881.572,704.827 L816.012,688.281 L820.383,680.477 z" fill-opacity="0" stroke="#000000" stroke-width="1" />
		<path d="M815.700,692.964 L878.763,708.262 L878.451,712.320 L811.642,701.706 L814.139,693.276" fill-opacity="0" stroke="#000000" stroke-width="1" />
		<path d="M809.768,707.325 L848.792,713.257 L831.622,742.603 L802.588,720.125 L809.768,707.325 z" fill-opacity="0" stroke="#000000" stroke-width="1" />
		<path d="M798.842,725.120 L802.900,728.554 L797.905,741.042 L854.724,780.378 L850.353,790.056 L779.174,761.022 L798.842,725.120 z" fill-opacity="0" stroke="#000000" stroke-width="1" />
		<path d="M807.271,728.866 L858.158,762.271 L859.407,771.012 L857.221,775.383 L803.525,741.354 L802.276,736.047 L807.271,728.866 z" fill-opacity="0" stroke="#000000" stroke-width="1" />
		<path d="M853.475,714.505 L866.899,716.379 L850.978,751.968 L850.441,751.619 L849.022,750.700 L847.010,749.400 L844.695,747.909 L842.365,746.419 L840.310,745.119 L838.818,744.200 L838.178,743.851 L838.746,742.590 L840.437,739.266 L842.881,734.566 L845.710,729.178 L848.553,723.790 L851.041,719.090 L852.805,715.766 L853.475,714.505 z" fill-opacity="0" stroke="#000000" stroke-width="1" />
		<path d="M888.753,609.297 L860.343,664.243 L874.080,668.925 L900.616,617.726 L888.753,609.297 z" fill-opacity="0" stroke="#000000" stroke-width="1" />
		<path d="M904.987,621.785 L916.225,631.463 L892.187,672.984 L879.075,670.486 L904.987,621.785 z" fill-opacity="0" stroke="#000000" stroke-width="1" />
		<path d="M873.768,717.315 L882.197,717.003 L885.319,719.813 L872.519,747.598 L890.938,765.080 L865.963,771.636 L861.280,761.334 L855.348,756.339 L871.582,717.315 L873.768,717.315 z" fill-opacity="0" stroke="#000000" stroke-width="1" />
		<path d="M862.529,776.631 L885.007,773.197 L893.124,804.416 L892.187,809.099 L854.724,793.177 L862.529,776.631 z" fill-opacity="0" stroke="#000000" stroke-width="1" />
		<path d="M882.197,738.856 L916.850,767.578 L892.499,779.753 L889.689,771.636 L897.806,767.266 L878.763,746.349 L882.197,738.856 z" fill-opacity="0" stroke="#000000" stroke-width="1" />
		<path d="M731.409,753.841 L795.720,811.285 L777.613,834.699 L764.501,839.694 L742.335,796.299 L731.409,753.841 z" fill-opacity="0" stroke="#000000" stroke-width="1" />
		<path d="M134.351,215.425 L76.363,280.711 L65.820,270.573 L121.780,205.287 L134.351,215.425 z" fill-opacity="0" stroke="#000000" stroke-width="1" />
		<path d="M115.697,187.850 L157.059,141.623 L180.173,159.870 L138.811,210.153 L115.697,187.850 z" fill-opacity="0" stroke="#000000" stroke-width="1" />
		<path d="M106.371,193.122 L117.319,201.637 L62.576,265.302 L48.789,256.786 L106.371,193.122 z" fill-opacity="0" stroke="#000000" stroke-width="1" />
		<path d="M44.328,265.302 L69.470,285.577 L13.510,309.097 L7.022,304.230 L44.328,265.302 z" fill-opacity="0" stroke="#000000" stroke-width="1" />
		<path d="M164.261,94.424 L174.347,81.815 L190.739,107.032 L201.246,165.452 L184.014,153.684 L175.188,115.858 L164.261,94.424 z" fill-opacity="0" stroke="#000000" stroke-width="1" />
		<path d="M143.126,118.855 L160.332,98.422 L176.464,146.816 L142.910,121.006 z" fill-opacity="0" stroke="#000000" stroke-width="1" />
		<path d="M455.273,780.952 L473.188,777.296 L476.478,820.438 L453.079,809.104 L457.101,798.501 L455.273,780.952 z" fill-opacity="0" stroke="#000000" stroke-width="1" />
		<path d="M449.057,780.586 L449.789,796.308 L446.864,808.373 L391.291,786.436 L449.057,780.586 z" fill-opacity="0" stroke="#000000" stroke-width="1" />
		<path d="M355.827,791.555 L381.785,788.630 L445.401,813.126 L377.398,842.740 L360.579,816.051 L351.439,803.985 L355.095,798.501 L355.827,791.555 z" fill-opacity="0" stroke="#000000" stroke-width="1" />
		<path d="M402.911,325.255 L402.954,325.943 L403.071,327.755 L403.241,330.317 L403.442,333.255 L403.656,336.192 L403.860,338.755 L404.036,340.567 L404.161,341.255 L405.780,340.911 L409.891,340.005 L415.661,338.724 L422.255,337.255 L428.836,335.786 L434.571,334.505 L438.624,333.599 L440.161,333.255 L440.193,332.224 L440.274,329.505 L440.385,325.661 L440.505,321.255 L440.613,316.849 L440.688,313.005 L440.711,310.286 L440.661,309.255 L439.332,309.642 L435.985,310.661 L431.296,312.103 L425.942,313.755 L420.600,315.407 L415.946,316.849 L412.658,317.868 L411.411,318.255 L411.036,318.556 L410.048,319.349 L408.656,320.470 L407.067,321.755 L405.491,323.040 L404.134,324.161 L403.204,324.954 L402.911,325.255 z" fill-opacity="0" stroke="#000000" stroke-width="1" />
		<path d="M521.449,786.070 L552.526,803.620 L566.784,800.695 L570.441,808.738 L563.494,826.653 L566.419,836.891 L533.514,848.956 L524.739,843.837 L515.599,847.493 L496.221,836.525 L501.706,824.825 L493.662,818.610 L519.620,786.802" fill-opacity="0" stroke="#000000" stroke-width="1" />
	</g>
	<g id="Layer_3">
		<path d="M73.934,295.006 L76.358,323.011 L69.357,372.287 L69.357,377.134 L86.590,383.866 L87.667,394.637 L91.437,398.676 L103.554,431.796 L106.247,442.567 L84.974,450.107 L104.093,495.883 L124.827,542.467 L126.173,555.392 L122.134,567.240 L125.096,582.319 L159.563,597.668 L228.227,733.919 L233.074,744.151 L233.882,758.423 L255.154,797.467 L309.008,804.199 L328.127,833.819 L330.012,837.319 L355.054,820.086 L372.287,849.706 L452.261,816.854 L484.304,834.088 L489.959,823.317 L496.421,826.548 L491.305,840.550 L516.078,854.014 L524.156,849.167 L530.888,854.014 L615.170,830.049 L617.863,836.511 L650.445,829.779 L657.446,849.706 L692.451,835.703 L693.528,817.662 L737.689,806.084 L760.846,846.744 L777.810,840.281 L801.506,816.047 L823.586,839.473 L842.974,794.236 L889.827,814.162 L896.289,811.469 L893.866,793.159 L891.981,784.542 L921.870,768.924 L918.908,762.731 L882.557,733.919 L890.365,719.378 L885.519,712.646 L887.673,704.299 L895.482,678.449 L921.870,630.249 L877.171,592.551 L918.100,537.081 L882.018,517.963 L929.140,454.684 L993.227,391.675 L993.227,383.866 L938.296,337.282 L921.332,255.693 L914.869,244.114 L918.100,238.190 L877.171,152.023 L831.664,159.832 L808.238,152.831 L812.277,139.637 L807.161,138.290 L777.002,101.939 L761.654,52.123 L765.693,38.391 L763.000,31.659 L740.112,22.503 L695.144,28.427 L685.719,35.967 L687.604,40.006 L649.637,66.395 L628.903,34.621 L618.670,36.775 L606.823,18.195 L571.009,36.775 L545.698,3.385 L510.693,28.966 L499.922,23.042 L466.801,48.892 L429.642,64.241 L431.257,2.577 L415.101,1.500 L194.568,102.208 L178.412,75.281 L171.680,77.435 L136.405,117.287 L155.523,137.213 L111.094,187.567 L106.247,185.143 L1.500,304.969 L13.617,313.586 L73.934,295.006 z" fill-opacity="0" stroke="#F30B0B" stroke-width="1" />
	</g>
</svg>
