<?xml version="1.0" encoding="UTF-8"?>
<!DOCTYPE svg PUBLIC "-//W3C//DTD SVG 1.1//EN" "http://www.w3.org/Graphics/SVG/1.1/DTD/svg11.dtd">
<svg version="1.1" xmlns="http://www.w3.org/2000/svg" xmlns:xlink="http://www.w3.org/1999/xlink" x="0" y="0" width="612" height="792" viewBox="0, 0, 612, 792">

  <g id="Layer_1">
    <path d="M222.752,390.487 L322.498,387.658 L330.279,397.208 L286.065,420.552 L221.337,418.43 L222.752,390.487" fill-opacity="0" stroke="#583D84" stroke-width="0.709" stroke-linecap="round" stroke-linejoin="round"/>
    <path d="M342.305,404.636 L359.637,437.532 L321.438,456.631 L292.078,427.627 L340.537,400.745 L342.305,404.636" fill-opacity="0" stroke="#583D84" stroke-width="0.709" stroke-linecap="round" stroke-linejoin="round"/>
    <path d="M358.223,397.208 L399.608,383.767 L413.401,424.797 L384.397,431.164 L376.969,417.369 L364.237,420.199 L357.516,398.27 L358.223,397.208" fill-opacity="0" stroke="#583D84" stroke-width="0.709" stroke-linecap="round" stroke-linejoin="round"/>
    <path d="M423.305,384.121 L500.414,382.706 L502.182,432.579 L450.188,430.81 L445.588,420.199 L424.721,419.492 L423.305,384.121" fill-opacity="0" stroke="#583D84" stroke-width="0.709" stroke-linecap="round" stroke-linejoin="round"/>
    <path d="M501.121,450.972 L500.06,483.868 L440.99,484.575 L445.234,448.496 L501.121,450.972" fill-opacity="0" stroke="#583D84" stroke-width="0.709" stroke-linecap="round" stroke-linejoin="round"/>
    <path d="M427.902,439.653 L431.086,489.88 L400.314,488.819 L386.873,458.754 L400.314,454.862 L398.191,441.068 L427.902,439.653" fill-opacity="0" stroke="#583D84" stroke-width="0.709" stroke-linecap="round" stroke-linejoin="round"/>
    <path d="M362.113,450.618 L377.676,482.452 L365.65,491.648 L342.304,464.059 L362.113,450.618" fill-opacity="0" stroke="#583D84" stroke-width="0.709" stroke-linecap="round" stroke-linejoin="round"/>
    <path d="M324.266,473.609 L355.746,503.674 L354.332,516.408 L327.096,520.652 L317.545,494.478 L324.266,473.609" fill-opacity="0" stroke="#583D84" stroke-width="0.709" stroke-linecap="round" stroke-linejoin="round"/>
    <path d="M409.156,506.858 L451.601,506.504 L451.955,564.867 L402.435,532.679 L409.156,506.858" fill-opacity="0" stroke="#583D84" stroke-width="0.709" stroke-linecap="round" stroke-linejoin="round"/>
    <path d="M465.397,508.627 L499.354,507.565 L496.523,582.906 L463.629,565.574 L465.397,508.627" fill-opacity="0" stroke="#583D84" stroke-width="0.709" stroke-linecap="round" stroke-linejoin="round"/>
    <path d="M459.383,583.613 L491.926,601.652 L495.108,653.295 L470.703,652.232 L466.457,620.398 L443.113,622.168 L442.051,606.959 L459.383,583.613" fill-opacity="0" stroke="#583D84" stroke-width="0.709" stroke-linecap="round" stroke-linejoin="round"/>
    <path d="M395.008,547.182 L442.051,576.893 L418.354,592.811 L391.824,590.334 L395.008,547.182" fill-opacity="0" stroke="#583D84" stroke-width="0.709" stroke-linecap="round" stroke-linejoin="round"/>
    <path d="M396.777,605.896 L428.965,605.896 L432.148,634.193 L454.785,630.302 L454.785,653.294 L393.593,651.172 L396.777,605.896" fill-opacity="0" stroke="#583D84" stroke-width="0.709" stroke-linecap="round" stroke-linejoin="round"/>
    <path d="M378.385,550.012 L378.03,593.871 L328.512,593.164 L329.572,552.84 L378.385,550.012" fill-opacity="0" stroke="#583D84" stroke-width="0.709" stroke-linecap="round" stroke-linejoin="round"/>
    <path d="M310.826,608.727 L373.431,605.897 L375.908,653.295 L311.18,652.233 L310.826,608.727" fill-opacity="0" stroke="#583D84" stroke-width="0.709" stroke-linecap="round" stroke-linejoin="round"/>
    <path d="M314.363,544.705 L315.424,590.687 L274.747,589.273 L275.1,547.889 L314.363,544.705" fill-opacity="0" stroke="#583D84" stroke-width="0.709" stroke-linecap="round" stroke-linejoin="round"/>
    <path d="M312.947,522.775 L305.519,495.185 L317.9,465.12 L276.515,438.945 L265.904,487.404 L273.685,531.617 L312.947,523.836 L312.947,522.775" fill-opacity="0" stroke="#583D84" stroke-width="0.709" stroke-linecap="round" stroke-linejoin="round"/>
    <path d="M262.014,550.719 L259.184,587.858 L237.608,587.504 L241.145,558.5 L262.014,550.719" fill-opacity="0" stroke="#583D84" stroke-width="0.709" stroke-linecap="round" stroke-linejoin="round"/>
    <path d="M187.026,569.465 L227.703,558.147 L226.996,589.274 L188.441,592.811 L189.503,616.861 L150.948,618.278 L149.886,600.592 L177.476,595.992 L187.026,569.465" fill-opacity="0" stroke="#583D84" stroke-width="0.709" stroke-linecap="round" stroke-linejoin="round"/>
    <path d="M210.018,603.422 L288.896,602.006 L290.311,637.024 L234.071,634.547 L236.193,651.879 L175.708,650.465 L175.001,633.84 L211.787,632.426 L210.018,603.422" fill-opacity="0" stroke="#583D84" stroke-width="0.709" stroke-linecap="round" stroke-linejoin="round"/>
    <path d="M258.122,502.968 L262.721,528.434 L181.367,549.656 L180.307,504.029 L258.122,502.968" fill-opacity="0" stroke="#583D84" stroke-width="0.709" stroke-linecap="round" stroke-linejoin="round"/>
    <path d="M252.109,493.417 L180.66,493.417 L178.183,471.841 L142.105,472.194 L142.459,434.348 L266.611,437.178 L253.171,473.609 L252.109,493.417" fill-opacity="0" stroke="#583D84" stroke-width="0.709" stroke-linecap="round" stroke-linejoin="round"/>
    <path d="M135.738,600.945 L135.738,630.302 L160.852,631.718 L162.621,648.695 L92.586,648.695 L90.817,600.238 L135.738,600.945" fill-opacity="0" stroke="#583D84" stroke-width="0.709" stroke-linecap="round" stroke-linejoin="round"/>
    <path d="M117.346,577.953 L91.171,575.125 L95.063,483.867 L156.254,482.099 L163.328,546.119 L153.071,560.976 L119.115,562.39 L117.346,577.953" fill-opacity="0" stroke="#583D84" stroke-width="0.709" stroke-linecap="round" stroke-linejoin="round"/>
    <path d="M95.062,419.492 L134.678,419.846 L136.092,468.657 L92.939,468.657 L94.001,419.846 L95.062,419.492" fill-opacity="0" stroke="#583D84" stroke-width="0.709" stroke-linecap="round" stroke-linejoin="round"/>
    <path d="M100.722,388.719 L207.189,387.658 L206.834,413.479 L151.656,412.064 L152.01,400.745 L102.137,403.929 L100.722,388.719" fill-opacity="0" stroke="#583D84" stroke-width="0.709" stroke-linecap="round" stroke-linejoin="round"/>
    <path d="M76,374 L511,374 L511,664 L76,664 L76,374 z" fill-opacity="0" stroke="#000000" stroke-width="1"/>
  </g>
</svg>
