<?xml version="1.0" encoding="UTF-8"?>
<!DOCTYPE svg PUBLIC "-//W3C//DTD SVG 1.1//EN" "http://www.w3.org/Graphics/SVG/1.1/DTD/svg11.dtd">
<svg version="1.1" xmlns="http://www.w3.org/2000/svg" xmlns:xlink="http://www.w3.org/1999/xlink" x="0" y="0" width="553.505" height="369.67" viewBox="0, 0, 553.505, 369.67">
  <g id="Unintell" transform="translate(7.246, 0.766)">
    <path d="M33.626,20.037 L150.572,18.723 L150.182,50.708 L89.573,48.956 L89.962,34.934 L35.18,38.879 L33.626,20.037" fill-opacity="0" stroke="#583D84" stroke-width="0.709" stroke-linecap="round" stroke-linejoin="round"/>
    <path d="M157.585,30.348 L284.046,26.762 L293.911,38.87 L237.855,68.466 L155.791,65.775 L157.585,30.348" fill-opacity="0" stroke="#583D84" stroke-width="0.709" stroke-linecap="round" stroke-linejoin="round"/>
    <path d="M326.883,40.575 L348.857,82.281 L300.427,106.496 L263.204,69.723 L324.642,35.642 L326.883,40.575" fill-opacity="0" stroke="#583D84" stroke-width="0.709" stroke-linecap="round" stroke-linejoin="round"/>
    <path d="M345.064,45.157 L397.533,28.117 L415.02,80.135 L378.248,88.208 L368.831,70.718 L352.689,74.306 L344.168,46.504 L345.064,45.157" fill-opacity="0" stroke="#583D84" stroke-width="0.709" stroke-linecap="round" stroke-linejoin="round"/>
    <path d="M428.577,37.565 L526.338,35.771 L528.579,99.002 L462.66,96.759 L456.828,83.306 L430.372,82.41 L428.577,37.565" fill-opacity="0" stroke="#583D84" stroke-width="0.709" stroke-linecap="round" stroke-linejoin="round"/>
    <path d="M528.234,114.321 L526.889,156.027 L451.999,156.924 L457.379,111.182 L528.234,114.321" fill-opacity="0" stroke="#583D84" stroke-width="0.709" stroke-linecap="round" stroke-linejoin="round"/>
    <path d="M441.405,93.97 L445.442,157.649 L406.428,156.304 L389.388,118.187 L406.428,113.253 L403.737,95.764 L441.405,93.97" fill-opacity="0" stroke="#583D84" stroke-width="0.709" stroke-linecap="round" stroke-linejoin="round"/>
    <path d="M359.996,85.872 L379.727,126.232 L364.48,137.891 L334.882,102.913 L359.996,85.872" fill-opacity="0" stroke="#583D84" stroke-width="0.709" stroke-linecap="round" stroke-linejoin="round"/>
    <path d="M333.752,132.569 L373.663,170.686 L371.87,186.83 L337.34,192.211 L325.231,159.027 L333.752,132.569" fill-opacity="0" stroke="#583D84" stroke-width="0.709" stroke-linecap="round" stroke-linejoin="round"/>
    <path d="M387.132,165.476 L440.945,165.027 L441.394,239.021 L378.611,198.213 L387.132,165.476" fill-opacity="0" stroke="#583D84" stroke-width="0.709" stroke-linecap="round" stroke-linejoin="round"/>
    <path d="M477.942,165.417 L520.994,164.071 L517.405,259.59 L475.701,237.616 L477.942,165.417" fill-opacity="0" stroke="#583D84" stroke-width="0.709" stroke-linecap="round" stroke-linejoin="round"/>
    <path d="M477.318,253.487 L518.577,276.357 L522.611,341.831 L491.669,340.484 L486.286,300.124 L456.69,302.368 L455.344,283.085 L477.318,253.487" fill-opacity="0" stroke="#583D84" stroke-width="0.709" stroke-linecap="round" stroke-linejoin="round"/>
    <path d="M398.783,220.298 L458.426,257.967 L428.382,278.148 L394.747,275.008 L398.783,220.298" fill-opacity="0" stroke="#583D84" stroke-width="0.709" stroke-linecap="round" stroke-linejoin="round"/>
    <path d="M375.944,299.738 L416.753,299.738 L420.788,335.613 L449.488,330.68 L449.488,359.83 L371.907,357.14 L375.944,299.738" fill-opacity="0" stroke="#583D84" stroke-width="0.709" stroke-linecap="round" stroke-linejoin="round"/>
    <path d="M376.476,233.133 L376.025,288.738 L313.245,287.842 L314.589,236.718 L376.476,233.133" fill-opacity="0" stroke="#583D84" stroke-width="0.709" stroke-linecap="round" stroke-linejoin="round"/>
    <path d="M273.973,303.327 L353.345,299.739 L356.486,359.831 L274.422,358.485 L273.973,303.327" fill-opacity="0" stroke="#583D84" stroke-width="0.709" stroke-linecap="round" stroke-linejoin="round"/>
    <path d="M303.32,216.542 L304.665,274.839 L253.094,273.046 L253.542,220.578 L303.32,216.542" fill-opacity="0" stroke="#583D84" stroke-width="0.709" stroke-linecap="round" stroke-linejoin="round"/>
    <path d="M303.292,194.204 L293.875,159.225 L309.572,121.107 L257.103,87.922 L243.65,149.36 L253.515,205.414 L303.292,195.549 L303.292,194.204" fill-opacity="0" stroke="#583D84" stroke-width="0.709" stroke-linecap="round" stroke-linejoin="round"/>
    <path d="M246.197,197.66 L242.609,244.746 L215.255,244.297 L219.739,207.525 L246.197,197.66" fill-opacity="0" stroke="#583D84" stroke-width="0.709" stroke-linecap="round" stroke-linejoin="round"/>
    <path d="M140.016,232.549 L191.588,218.2 L190.691,257.664 L141.81,262.148 L143.157,292.639 L94.276,294.436 L92.929,272.013 L127.908,266.181 L140.016,232.549" fill-opacity="0" stroke="#583D84" stroke-width="0.709" stroke-linecap="round" stroke-linejoin="round"/>
    <path d="M168.166,279.601 L268.17,277.806 L269.964,322.203 L198.661,319.062 L201.351,341.036 L124.667,339.243 L123.771,318.166 L170.409,316.373 L168.166,279.601" fill-opacity="0" stroke="#583D84" stroke-width="0.709" stroke-linecap="round" stroke-linejoin="round"/>
    <path d="M218.154,164.243 L223.984,196.529 L120.842,223.435 L119.498,165.588 L218.154,164.243" fill-opacity="0" stroke="#583D84" stroke-width="0.709" stroke-linecap="round" stroke-linejoin="round"/>
    <path d="M225.009,153.983 L134.424,153.983 L131.284,126.628 L85.543,127.076 L85.992,79.094 L243.395,82.682 L226.356,128.87 L225.009,153.983" fill-opacity="0" stroke="#583D84" stroke-width="0.709" stroke-linecap="round" stroke-linejoin="round"/>
    <path d="M79.992,274.461 L79.992,311.68 L111.832,313.475 L114.075,334.999 L25.283,334.999 L23.04,273.564 L79.992,274.461" fill-opacity="0" stroke="#583D84" stroke-width="0.709" stroke-linecap="round" stroke-linejoin="round"/>
    <path d="M47.373,266.091 L14.187,262.506 L19.122,146.807 L96.701,144.565 L105.67,225.731 L92.666,244.568 L49.615,246.36 L47.373,266.091" fill-opacity="0" stroke="#583D84" stroke-width="0.709" stroke-linecap="round" stroke-linejoin="round"/>
    <path d="M29.422,56.41 L79.648,56.859 L81.441,118.742 L26.73,118.742 L28.077,56.859 L29.422,56.41" fill-opacity="0" stroke="#583D84" stroke-width="0.709" stroke-linecap="round" stroke-linejoin="round"/>
    <path d="M-5.746,0.734 L545.759,0.734 L545.759,368.403 L-5.746,368.403 L-5.746,0.734 z" fill-opacity="0" stroke="#000000" stroke-width="1"/>
  </g>
</svg>
