<?xml version="1.0" encoding="UTF-8"?>
<!DOCTYPE svg PUBLIC "-//W3C//DTD SVG 1.1//EN" "http://www.w3.org/Graphics/SVG/1.1/DTD/svg11.dtd">
<svg version="1.1" xmlns="http://www.w3.org/2000/svg" xmlns:xlink="http://www.w3.org/1999/xlink" x="0" y="0" width="993.727" height="854.514" viewBox="0, 0, 993.727, 854.514">
  <g id="Layer_2">
    <path d="M538.405,382.947 L538.405,382.947" fill-opacity="0" stroke="#000000" stroke-width="1" stroke-linecap="round" stroke-linejoin="round"/>
    <path d="M534.524,465.455 L534.386,465.455" fill-opacity="0" stroke="#000000" stroke-width="1" stroke-linecap="round" stroke-linejoin="round"/>
    <path d="M538.405,382.947 C538.405,382.947 534.386,465.455 534.386,465.455 L504.171,465.455 L504.171,441.881 L508.745,439.183 L512.071,436.485 L515.121,431.799 L516.784,426.97 L517.338,419.586 L517.893,410.355 L518.308,401.692 L518.447,390.332 L518.724,382.237 L538.405,382.947 z" fill-opacity="0" stroke="#000000" stroke-width="1"/>
    <path d="M506.161,432.505 L510.161,426.755 L511.794,417.74 L511.933,401.834 L511.656,389.48 L512.21,384.083 C512.21,384.083 509.022,380.817 509.022,380.817 C509.022,380.817 485.183,380.533 485.183,380.533 L484.213,385.077 C484.213,385.077 486.708,401.834 486.569,401.834 C486.431,401.834 486.411,413.505 486.411,413.505 C486.411,413.505 487.661,422.005 487.661,422.005 L488.911,428.255 C488.911,428.255 494.608,433.787 494.608,433.787 C494.608,433.787 500.706,435.349 500.706,435.349 L506.161,432.505 z" fill-opacity="0" stroke="#000000" stroke-width="1"/>
    <path d="M498.766,466.875 L498.766,439.893 L493.915,439.467 C493.915,439.467 490.588,436.201 490.588,436.201 C490.588,436.201 485.599,430.521 485.599,430.521 C485.599,430.521 482.411,421.716 482.411,421.716 C482.411,421.716 481.025,414.189 481.025,414.189 C481.025,414.189 480.748,406.663 480.748,406.521 C480.748,406.379 480.471,400.272 480.471,400.272 C480.471,400.272 479.778,394.592 479.778,394.592 C479.778,394.592 479.501,389.196 479.501,389.196 C479.501,389.196 478.661,384.755 478.661,384.755 C478.661,384.755 477.911,381.005 477.911,381.005 L457.047,382.095 L467.165,465.029 L498.766,466.875 z" fill-opacity="0" stroke="#000000" stroke-width="1"/>
    <path d="M502.092,344.604 L502.231,350.427 L507.498,352.699 L512.487,355.823 C512.487,355.823 515.952,359.657 515.952,359.657 C515.952,359.657 517.754,363.208 517.754,363.35 C517.754,363.492 518.863,367.326 518.863,367.326 C518.863,367.326 519.14,372.58 519.14,372.58 C519.14,372.58 519.972,376.699 519.972,376.699 L538.821,376.557 L541.316,314.924 L502.369,330.119 L502.092,344.604 z" fill-opacity="0" stroke="#000000" stroke-width="1"/>
    <path d="M497.38,331.823 C497.38,331.823 497.934,350.001 497.934,350.001 C497.934,350.001 492.806,351.705 492.667,351.705 C492.529,351.705 486.153,353.977 486.153,353.977 L482.827,356.959 L479.639,360.509 C479.639,360.509 477.144,366.332 477.144,366.332 C477.144,366.332 476.174,374 476.174,374 L457.325,377.125 L454.691,349.007 L497.38,331.823 z" fill-opacity="0" stroke="#000000" stroke-width="1"/>
    <path d="M496.41,327.989 L454.275,344.746 L451.919,326.285 L487.678,309.528 L496.41,327.989 z" fill-opacity="0" stroke="#000000" stroke-width="1"/>
    <path d="M543.118,286.948 L542.563,307.398 L500.29,325.291 L492.667,307.682 L543.118,286.948 z" fill-opacity="0" stroke="#000000" stroke-width="1"/>
    <path d="M482.966,374.71 L483.797,367.184 C483.797,367.184 486.846,361.646 486.846,361.646 C486.846,361.646 494.331,357.811 494.331,357.811 L499.736,357.101 L505.141,358.237 L509.161,361.504 C509.161,361.504 512.903,366.048 512.903,366.048 C512.903,366.048 514.012,370.024 514.012,370.024 L514.012,374.71 L514.012,375.705 L482.966,374.71 z" fill-opacity="0" stroke="#000000" stroke-width="1"/>
    <path d="M547.137,377.693 L548.911,307.755 L615.466,288.226 L625.584,320.321 L598.28,329.409 L592.736,333.527 L594.954,343.184 L596.201,347.871 L576.936,352.841 L572.223,353.693 L570.56,336.226 L566.125,320.605 L565.571,324.439 C565.571,324.439 568.481,338.214 568.481,338.214 C568.481,338.214 567.927,346.592 567.927,346.592 C567.927,346.592 569.036,358.663 569.036,358.663 C569.036,358.663 570.006,365.48 570.006,365.48 L570.422,372.722 L570.283,376.699 L547.137,377.693 z" fill-opacity="0" stroke="#000000" stroke-width="1"/>
    <path d="M574.58,358.237 L596.201,352.131 C596.201,352.131 599.389,354.829 599.389,354.829 C599.389,354.829 633.9,345.314 633.9,345.314 L640.414,370.166 L602.3,378.261 C602.3,378.261 592.875,380.107 592.875,380.107 C592.875,380.107 574.58,378.971 574.58,378.971 C574.58,378.971 574.58,358.237 574.58,358.237 z" fill-opacity="0" stroke="#000000" stroke-width="1"/>
    <path d="M546.661,383.755 C546.661,383.755 569.452,382.947 569.452,382.947 L569.313,400.982 C569.313,400.982 572.639,401.55 572.639,401.408 C572.639,401.266 573.194,382.663 573.194,382.663 C573.194,382.663 589.826,383.373 589.826,383.373 C589.826,383.373 593.984,413.479 593.984,413.479 L544.911,411.505 L546.661,383.755 z" fill-opacity="0" stroke="#000000" stroke-width="1"/>
    <path d="M593.152,383.941 L642.216,373.432 L648.037,402.118 L643.879,418.308 L641.385,421.006 L610.477,415.609 L598.557,413.905 L596.756,413.053 L593.152,383.941 z" fill-opacity="0" stroke="#000000" stroke-width="1"/>
    <path d="M549.427,301.875 L613.996,281.237 L607.219,262.335 L553.945,281.237 L551.31,284.516 L549.239,285.866 C549.239,285.866 549.427,301.875 549.427,301.875 z" fill-opacity="0" stroke="#000000" stroke-width="1"/>
    <path d="M640.131,424.696 L633.854,449.618 L631.892,459.064 L629.146,465.295 L625.811,465.898 C625.811,465.898 622.477,467.104 622.281,467.104 C622.084,467.104 607.569,468.711 607.569,468.711 L598.546,468.711 L596.388,457.255 L594.426,445.598 L590.699,439.971 L585.403,435.75 L581.791,435.724 C581.791,435.724 576.995,435.8 576.995,435.8 C576.995,435.8 573.379,437.917 573.379,437.917 C573.379,437.917 570.132,440.865 570.132,440.865 L567.033,445.175 C567.033,445.175 565.114,450.845 565.114,450.845 C565.114,450.845 564.377,455.608 564.377,455.608 C564.377,455.608 563.712,460.296 563.712,460.296 L562.458,466.798 L541.797,465.967 L544.453,416.747 L602.305,417.427 L640.131,424.696 z" fill-opacity="0" stroke="#000000" stroke-width="1"/>
    <path d="M595.096,467.887 C595.096,467.887 592.404,451.707 592.404,451.707 C592.404,451.707 590.954,445.872 590.954,445.872 C590.954,445.872 587.744,441.787 587.744,441.787 C587.744,441.787 583.24,439.453 583.24,439.453 L578.684,439.082 L574.179,441.575 L571.384,444.652 C571.384,444.652 566.879,466.455 566.879,466.455 C566.879,466.455 595.096,467.887 595.096,467.887 z" fill-opacity="0" stroke="#000000" stroke-width="1"/>
    <path d="M540.363,472.054 C540.363,472.324 621.153,471.242 621.153,471.242 L603.992,581.073 L549.603,549.963 L535.346,549.152 L540.363,472.054 z" fill-opacity="0" stroke="#000000" stroke-width="1"/>
    <path d="M503.135,470.701 L535.874,470.972 L532.178,547.799 L497.855,543.2 L503.135,470.701 z" fill-opacity="0" stroke="#000000" stroke-width="1"/>
    <path d="M466.7,470.16 L498.383,470.431 L494.687,542.389 L468.285,540.495 L470.397,517.501 L466.7,470.16 z" fill-opacity="0" stroke="#000000" stroke-width="1"/>
    <path d="M630.658,472.054 C630.658,472.054 633.298,529.674 633.298,529.674 L633.034,551.857 L641.747,601.903 L610.064,584.59 L625.378,479.087 L630.658,472.054 z" fill-opacity="0" stroke="#000000" stroke-width="1"/>
    <path d="M442.196,419.705 L443.801,439.984 L456.818,438.888 L454.678,417.695 L442.196,419.705 z" fill-opacity="0" stroke="#000000" stroke-width="1"/>
    <path d="M454.472,414.613 L441.562,416.567 L440.902,399.055 L452.272,397.853 L454.472,414.613 z" fill-opacity="0" stroke="#000000" stroke-width="1"/>
    <path d="M452.418,395.072 L440.609,396.35 L439.068,379.815 L450.658,378.838 L452.272,394.621 z" fill-opacity="0" stroke="#000000" stroke-width="1"/>
    <path d="M448.531,359.373 L450.218,375.757 L438.042,376.659 L436.208,360.35 C436.208,360.35 448.677,359.373 448.531,359.373 z" fill-opacity="0" stroke="#000000" stroke-width="1"/>
    <path d="M448.164,356.066 L435.988,357.043 L434.447,339.381 L446.257,338.329 L448.164,356.066 z" fill-opacity="0" stroke="#000000" stroke-width="1"/>
    <path d="M399.752,346.446 C399.752,346.446 430.266,342.462 430.266,342.462 L432.834,367.565 L439.289,441.443 L382.074,450.237 L372.099,358.471 L399.752,346.446 z" fill-opacity="0" stroke="#000000" stroke-width="1"/>
    <path d="M486.727,291.421 L541.863,267.304 L546.084,277.527 L490.948,302.3 L486.727,290.635" fill-opacity="0" stroke="#000000" stroke-width="1"/>
    <path d="M451.164,317.636 L488.262,304.135 L482.761,290.242 L541.607,264.551 C541.607,264.551 528.047,229.555 528.047,229.555 C528.047,229.555 518.58,232.569 518.58,232.569 L522.546,250.789 L474.446,267.435 L461.27,270.187 L457.944,269.794 C457.944,269.794 455.385,251.313 455.513,251.313 C455.641,251.313 443.36,255.638 443.36,255.638 C443.36,255.638 449.756,318.947 449.756,318.947 L451.164,317.636 z" fill-opacity="0" stroke="#000000" stroke-width="1"/>
    <path d="M611.785,261 L685.112,229.912 L696.375,227.792 L708.558,271.834 L625.117,298.448 L611.785,261 z" fill-opacity="0" stroke="#000000" stroke-width="1"/>
    <path d="M627.646,301.746 L710.397,276.78 L715.454,299.39 L633.622,319.881 L627.646,301.746 z" fill-opacity="0" stroke="#000000" stroke-width="1"/>
    <path d="M634.772,323.414 L715.914,303.63 L722.12,325.533 L641.208,343.668 L634.772,323.414 z" fill-opacity="0" stroke="#000000" stroke-width="1"/>
    <path d="M642.587,346.73 C642.587,346.73 721.661,329.537 721.661,329.537 L726.028,351.912 L647.874,369.105 L642.587,346.73 z" fill-opacity="0" stroke="#000000" stroke-width="1"/>
    <path d="M647.874,373.108 L727.407,356.151 L730.165,370.282 L728.786,378.997 L704.651,385.356 L696.835,390.537 L652.701,395.954 L647.874,373.108 z" fill-opacity="0" stroke="#000000" stroke-width="1"/>
    <path d="M654.54,400.9 L669.941,399.251 L673.159,416.444 L665.574,419.977 L668.792,444.707 L676.837,445.413 L679.365,462.371 L636.151,468.024 L645.575,423.746 L647.874,420.919 L654.54,400.9 z" fill-opacity="0" stroke="#000000" stroke-width="1"/>
    <path d="M669.941,421.861 L682.354,420.919 C682.354,420.919 684.882,439.996 685.112,439.996 C685.342,439.996 673.849,440.467 673.849,440.467 L669.941,421.861 z" fill-opacity="0" stroke="#000000" stroke-width="1"/>
    <path d="M674.308,399.016 L677.527,416.915 L686.032,416.209 C686.032,416.209 689.709,442.116 689.709,442.116 C689.709,442.116 681.434,445.178 681.434,445.178 C681.434,445.178 684.422,462.371 684.422,462.371 L710.857,458.838 L728.097,382.765 L704.191,388.888 L700.973,393.363 L674.308,399.016 z" fill-opacity="0" stroke="#000000" stroke-width="1"/>
    <path d="M637.76,472.734 C637.99,472.734 678.676,466.139 678.676,466.139 L677.297,511.359 L667.642,514.421 L666.033,519.603 L638.22,520.78 L637.76,472.734 z" fill-opacity="0" stroke="#000000" stroke-width="1"/>
    <path d="M670.171,518.425 L686.032,517.954 L685.802,531.143 L669.941,530.908 L670.171,518.425 z" fill-opacity="0" stroke="#000000" stroke-width="1"/>
    <path d="M638.22,525.255 L665.344,527.139 L664.654,533.969 C664.654,533.969 675.688,536.56 675.688,536.56 C675.688,536.56 672.469,593.792 672.469,593.792 L647.414,600.622 L643.047,579.425 L638.22,525.255 z" fill-opacity="0" stroke="#000000" stroke-width="1"/>
    <path d="M691.088,526.668 L706.26,527.375 L702.582,587.433 C702.582,587.433 696.375,587.904 696.375,587.904 C696.375,587.904 676.607,593.792 676.607,593.792 L680.055,535.854 L690.399,534.911 L691.088,526.668 z" fill-opacity="0" stroke="#000000" stroke-width="1"/>
    <path d="M684.652,466.139 L709.937,463.313 L706.949,522.193 L691.318,522.664 L691.089,513.008 L681.894,513.244 L684.652,466.139 z" fill-opacity="0" stroke="#000000" stroke-width="1"/>
    <path d="M448.032,497.997 L463.218,496.089 L464.937,520.162 L463.074,538.951 L450.897,539.244 L450.611,510.768 L448.032,497.997 z" fill-opacity="0" stroke="#000000" stroke-width="1"/>
    <path d="M446.313,498.878 L448.462,529.85 L408.921,530.584 L406.916,502.254 L446.313,498.878 z" fill-opacity="0" stroke="#000000" stroke-width="1"/>
    <path d="M409.208,533.813 L448.462,533.226 L448.462,540.125 L409.495,540.565 L409.208,533.813 z" fill-opacity="0" stroke="#000000" stroke-width="1"/>
    <path d="M747.659,296.486 C747.659,296.486 756.144,341.163 756.144,341.163 C756.144,341.163 731.16,346.234 731.16,346.234 C731.16,346.234 723.147,302.282 723.147,302.282 L747.659,296.486 z" fill-opacity="0" stroke="#000000" stroke-width="1"/>
    <path d="M735.874,348.166 L756.144,344.302 L760.858,372.557 L735.167,376.904 L735.06,371.658 L731.16,349.132 L735.874,348.166 z" fill-opacity="0" stroke="#000000" stroke-width="1"/>
    <path d="M794.617,332.35 L808.287,329.368 L809.081,337.32 L795.058,339.579 L794.617,332.35 z" fill-opacity="0" stroke="#000000" stroke-width="1"/>
    <path d="M751.227,296.205 L802.378,285 L807.758,327.109 L758.9,336.145 L751.227,296.205 z" fill-opacity="0" stroke="#000000" stroke-width="1"/>
    <path d="M733.228,383.118 L714.743,466.424 L748.858,466.116 L749.158,438.399 L743.297,437.167 L743.598,401.904 L750.812,400.98 L750.361,378.344 L733.228,383.118 z" fill-opacity="0" stroke="#000000" stroke-width="1"/>
    <path d="M714.593,470.274 L734.28,470.582 L733.829,515.853 L712.188,516.469 L714.593,470.274 z" fill-opacity="0" stroke="#000000" stroke-width="1"/>
    <path d="M738.338,470.582 L748.708,470.582 L748.708,514.929 C748.708,514.929 737.887,516.007 737.887,516.007 C737.887,516.007 738.338,470.582 738.338,470.582 z" fill-opacity="0" stroke="#000000" stroke-width="1"/>
    <path d="M747.704,405.462 L757.17,405.462 L756.838,432.857 L746.541,433.198 L747.704,405.462 z" fill-opacity="0" stroke="#000000" stroke-width="1"/>
    <path d="M755.209,378.063 L813.621,368.182 L816.652,391.896 L775.598,398.672 L776.097,432.996 C776.097,432.996 760.15,434.928 760.235,434.928 C760.321,434.928 760.411,401.979 760.411,401.979 L754.323,401.573 L755.209,378.063 z" fill-opacity="0" stroke="#000000" stroke-width="1"/>
    <path d="M755.382,438.453 C755.382,438.453 788.201,436.012 788.201,436.012 C788.201,436.012 788.995,486.452 788.995,486.452 L790.054,494.181 L762.396,498.248 L762.396,515.604 L752.206,515.333 L752.603,438.724 L755.382,438.453 z" fill-opacity="0" stroke="#000000" stroke-width="1"/>
    <path d="M765.44,500.689 L790.318,501.503 L790.318,515.062 L765.307,515.875 L765.44,500.689 z" fill-opacity="0" stroke="#000000" stroke-width="1"/>
    <path d="M791.509,435.335 L821.417,431.131 L826.181,471.944 L812.55,515.062 C812.55,515.062 793.759,515.197 793.759,515.197 C793.759,515.197 793.494,492.147 793.494,492.147 L792.039,486.859 L791.509,435.335 z" fill-opacity="0" stroke="#000000" stroke-width="1"/>
    <path d="M778.408,401.166 L791.245,399.132 L792.965,430.047 L779.335,432.08 L778.408,401.166 z" fill-opacity="0" stroke="#000000" stroke-width="1"/>
    <path d="M795.215,398.725 L817.182,395.335 L821.152,427.064 L795.744,429.504 L795.215,398.725 z" fill-opacity="0" stroke="#000000" stroke-width="1"/>
    <path d="M809.522,339.759 L812.785,365.332 C812.785,365.332 764.632,372.651 764.632,372.651 C764.632,372.651 762.78,362.079 762.78,362.079 C762.78,362.079 797.175,356.025 797.175,356.025 L795.676,341.838 L809.522,339.759 z" fill-opacity="0" stroke="#000000" stroke-width="1"/>
    <path d="M791.266,334.699 L794.97,354.037 L771.247,358.284 L767.807,338.494 L791.266,334.699 z" fill-opacity="0" stroke="#000000" stroke-width="1"/>
    <path d="M760.046,338.585 L766.22,338.043 L769.218,358.193 L762.163,358.826 L760.046,338.585 z" fill-opacity="0" stroke="#000000" stroke-width="1"/>
    <path d="M458.738,250.177 L514.832,233.783 L519.061,247.727 L471.06,264.31 L460.577,265.44 L458.738,250.177 z" fill-opacity="0" stroke="#000000" stroke-width="1"/>
    <path d="M627.828,325.098 L632.896,340.515 L600.269,348.954 L596.468,333.375 L627.828,325.098 z" fill-opacity="0" stroke="#000000" stroke-width="1"/>
    <path d="M665.704,145.158 L694.853,220.483 L663.64,232.906 L638.103,156.523 L665.704,145.158 z" fill-opacity="0" stroke="#000000" stroke-width="1"/>
    <path d="M604.569,205.154 C604.569,205.154 643.778,188.503 643.778,188.503 C643.778,188.503 660.803,234.227 660.803,234.227 L622.626,247.971 L614.113,228.412 L604.569,205.154 z" fill-opacity="0" stroke="#000000" stroke-width="1"/>
    <path d="M643.004,183.217 L634.838,162.441 L589.008,182.539 L598.4,201.697 L643.004,183.217 z" fill-opacity="0" stroke="#000000" stroke-width="1"/>
    <path d="M574.905,162.602 L618.757,251.935 L601.474,259.336 L584.707,229.205 L568.198,237.134 L562.781,226.562 L536.986,239.513 L517.381,193.26 L525.12,187.974 L533.374,206.74 L546.272,200.397 L539.565,181.631 L574.905,162.602 z" fill-opacity="0" stroke="#000000" stroke-width="1"/>
    <path d="M536.47,184.274 L542.66,198.018 L534.406,201.189 L529.247,187.446 L536.47,184.274 z" fill-opacity="0" stroke="#000000" stroke-width="1"/>
    <path d="M569.488,240.042 L583.675,233.434 L598.12,259.336 L581.869,266.207 L569.488,240.042 z" fill-opacity="0" stroke="#000000" stroke-width="1"/>
    <path d="M560.717,231.055 L578,265.943 L551.947,276.251 L538.533,241.627 L560.717,231.055 z" fill-opacity="0" stroke="#000000" stroke-width="1"/>
    <path d="M808.662,522.072 L714.748,520.618 L711.423,543.058 L716.618,543.265 L718.28,540.564 L744.252,540.357 C744.252,540.357 747.576,544.097 747.576,544.097 C747.576,544.097 762.952,544.304 762.952,544.304 L763.991,537.863 L770.016,537.863 L768.146,544.512 L797.858,552.2 L808.662,522.072 z" fill-opacity="0" stroke="#000000" stroke-width="1"/>
    <path d="M796.819,556.355 L772.094,550.953 L770.224,557.81 L794.326,563.835 L796.819,556.355 z" fill-opacity="0" stroke="#000000" stroke-width="1"/>
    <path d="M711.008,549.499 L716.41,548.876 L723.682,553.239 L743.421,553.031 L746.33,549.914 L765.653,549.914 C765.653,549.914 765.237,560.719 765.237,560.719 C765.237,560.719 776.249,564.043 776.249,564.043 C776.249,564.043 773.964,577.964 773.964,577.964 L778.743,579.003 L781.444,564.874 L793.495,567.368 L776.457,606.637 L768.562,593.963 L766.484,590.223 L763.783,593.963 L762.328,605.598 L746.33,609.13 L741.135,618.896 L706.437,620.558 L709.553,577.341 L750.277,574.432 L750.277,570.069 L710.592,570.069 L711.008,549.499 z" fill-opacity="0" stroke="#000000" stroke-width="1"/>
    <path d="M722.02,543.266 L731.162,543.266 L730.954,548.875 L721.189,548.044 L722.02,543.266 z" fill-opacity="0" stroke="#000000" stroke-width="1"/>
    <path d="M735.317,543.058 L741.551,543.473 C741.551,543.473 742.59,545.759 742.59,545.759 C742.59,545.759 740.927,550.745 740.927,550.745 L735.11,549.499 L735.317,543.058 z" fill-opacity="0" stroke="#000000" stroke-width="1"/>
    <path d="M647.844,603.313 L702.489,589.807 L701.866,604.559 L652.623,617.026 L647.844,603.313 z" fill-opacity="0" stroke="#000000" stroke-width="1"/>
    <path d="M654.077,620.142 L701.866,608.715 L701.658,621.389 L658.441,635.726 L654.077,620.142 z" fill-opacity="0" stroke="#000000" stroke-width="1"/>
    <path d="M659.895,638.011 L702.073,625.752 L703.112,633.856 L670.699,645.075 L660.934,646.114 L659.895,638.011 z" fill-opacity="0" stroke="#000000" stroke-width="1"/>
    <path d="M606.081,586.483 L640.987,607.884 L620.625,636.349 L597.77,642.374 L606.081,586.483 z" fill-opacity="0" stroke="#000000" stroke-width="1"/>
    <path d="M625.82,635.933 L646.805,610.585 L654.908,639.466 C654.908,639.466 625.404,636.349 625.82,635.933 z" fill-opacity="0" stroke="#000000" stroke-width="1"/>
    <path d="M655.324,642.582 L627.274,639.881 L595.9,649.231 L595.069,658.789 L635.378,649.023 L657.609,646.53 L655.324,642.582 z" fill-opacity="0" stroke="#000000" stroke-width="1"/>
    <path d="M591.329,577.964 L601.718,584.405 L592.576,639.881 L576.785,637.18 L578.032,627.207 L579.486,625.129 L585.096,624.921 L585.096,621.181 L576.162,620.558 C576.162,620.558 572.422,635.102 572.422,635.102 C572.422,635.102 557.877,632.401 557.877,632.401 L553.93,623.051 L552.683,616.195 C552.683,616.195 548.112,610.377 548.112,610.377 C548.112,610.377 544.164,607.26 544.164,607.26 L546.45,603.52 L552.683,604.975 L559.955,596.041 L556.215,593.132 L550.397,600.196 L546.865,597.495 L558.708,577.756 L564.318,581.081 C564.318,581.081 561.617,587.729 561.617,587.729 C561.617,587.729 563.903,590.015 563.903,590.015 L570.759,584.613 C570.759,584.613 579.278,585.86 579.278,585.86 C579.278,585.86 583.849,589.392 583.849,589.392 L584.265,598.534 C584.265,598.534 585.304,603.936 585.304,603.936 C585.304,603.936 592.16,604.144 592.16,604.144 L594.238,588.145 L590.29,583.159 L591.329,577.964 z" fill-opacity="0" stroke="#000000" stroke-width="1"/>
    <path d="M567.435,564.251 L586.966,574.64 L584.473,581.288 L589.667,587.522 L589.459,596.664 L587.797,596.872 L587.589,587.729 L582.81,582.951 L569.097,580.042 L561.825,573.393 L567.435,564.251 z" fill-opacity="0" stroke="#000000" stroke-width="1"/>
    <path d="M553.306,555.317 L563.072,561.134 L554.137,577.549 L552.06,577.341 L553.93,560.719 L551.644,558.641 L553.306,555.317 z" fill-opacity="0" stroke="#000000" stroke-width="1"/>
    <path d="M549.151,554.693 L535.645,551.577 L521.101,550.953 L518.815,572.562 L548.112,576.51 L550.397,561.758 L549.358,558.018 L549.151,554.693 z" fill-opacity="0" stroke="#000000" stroke-width="1"/>
    <path d="M518.192,576.925 L551.436,581.496 L542.917,594.794 L516.114,589.599 L518.192,576.925 z" fill-opacity="0" stroke="#000000" stroke-width="1"/>
    <path d="M513.413,594.171 L538.762,600.196 L537.307,606.429 L510.712,602.482 L513.413,594.171 z" fill-opacity="0" stroke="#000000" stroke-width="1"/>
    <path d="M489.311,581.704 L509.881,585.236 L508.219,601.235 L486.61,598.118 L489.311,581.704 z" fill-opacity="0" stroke="#000000" stroke-width="1"/>
    <path d="M516.945,550.538 C516.945,550.538 512.582,550.122 512.374,550.122 C512.167,550.122 510.712,552.823 510.712,552.823 L484.948,550.33 L476.014,552.823 L473.105,572.977 L510.712,580.665 L516.945,550.538 z" fill-opacity="0" stroke="#000000" stroke-width="1"/>
    <path d="M472.689,579.211 L483.909,581.704 L482.247,597.495 L470.404,596.872 L472.689,579.211 z" fill-opacity="0" stroke="#000000" stroke-width="1"/>
    <path d="M466.248,543.889 L472.689,544.304 L465.833,595.625 L459.184,595.625 L466.248,543.889 z" fill-opacity="0" stroke="#000000" stroke-width="1"/>
    <path d="M473.52,600.819 L482.039,601.858 L478.092,604.351 L474.975,604.144 L473.52,600.819 z" fill-opacity="0" stroke="#000000" stroke-width="1"/>
    <path d="M458.768,599.78 L468.742,601.027 L470.819,606.429 C470.819,606.429 479.961,608.091 479.961,608.091 C479.961,608.091 484.117,606.221 484.117,606.221 L484.74,601.65 L507.388,605.183 L505.102,621.805 L456.067,616.195 L458.768,599.78 z" fill-opacity="0" stroke="#000000" stroke-width="1"/>
    <path d="M416.798,610.169 L397.89,606.429 L398.098,542.85 L408.071,543.058 L408.279,551.369 L413.266,551.992 L413.473,543.058 L425.94,543.473 L425.109,588.145 L424.278,591.885 L418.668,597.287 L416.798,610.169 z" fill-opacity="0" stroke="#000000" stroke-width="1"/>
    <path d="M425.524,596.872 L442.354,599.988 L440.9,606.222 L423.862,604.559 L425.524,596.872 z" fill-opacity="0" stroke="#000000" stroke-width="1"/>
    <path d="M423.447,608.299 L444.224,610.793 L446.925,600.819 L452.327,601.027 L450.25,615.156 L422.823,612.039 L423.447,608.299 z" fill-opacity="0" stroke="#000000" stroke-width="1"/>
    <path d="M450.873,579.003 L436.744,574.64 L428.641,562.796 L429.264,543.473 L459.807,542.227 L455.444,578.795 L450.873,579.003 z" fill-opacity="0" stroke="#000000" stroke-width="1"/>
    <path d="M428.849,576.925 L454.405,584.613 L453.782,597.079 L426.771,593.755 L428.849,576.925 z" fill-opacity="0" stroke="#000000" stroke-width="1"/>
    <path d="M586.942,174.65 L663.763,142.72 L657.189,128.633 L579.617,164.695 L586.942,174.65 z" fill-opacity="0" stroke="#000000" stroke-width="1"/>
    <path d="M639.721,93.697 L598.775,118.678 L590.323,117.551 L586.942,114.734 L575.673,123.374 L595.958,151.735 L654.935,124.876 L639.721,93.697 z" fill-opacity="0" stroke="#000000" stroke-width="1"/>
    <path d="M592.013,110.977 L635.213,82.991 L638.782,88.063 L598.4,114.734 L592.013,110.977 z" fill-opacity="0" stroke="#000000" stroke-width="1"/>
    <path d="M557.266,136.146 L571.916,125.815 L591.638,153.426 L576.236,161.878 C576.236,161.878 557.454,136.334 557.266,136.146 z" fill-opacity="0" stroke="#000000" stroke-width="1"/>
    <path d="M507.68,178.594 C507.68,178.594 513.878,190.991 513.878,190.991 C513.878,190.991 530.031,183.29 530.031,183.29 C530.031,183.29 522.894,169.954 522.894,170.142 C522.894,170.33 507.68,178.594 507.68,178.594 z" fill-opacity="0" stroke="#000000" stroke-width="1"/>
    <path d="M526.838,169.954 C526.838,169.954 533.412,181.224 533.412,181.224 C533.412,181.224 569.662,162.066 569.662,162.066 L563.276,151.36 L543.179,161.314 L537.732,156.619 L527.026,162.629 L526.838,169.954 z" fill-opacity="0" stroke="#000000" stroke-width="1"/>
    <path d="M501.106,162.441 L516.32,154.553 L520.64,160.939 L518.198,168.264 L506.553,174.086 L501.106,162.441 z" fill-opacity="0" stroke="#000000" stroke-width="1"/>
    <path d="M536.793,135.019 L546.748,128.821 L559.895,146.476 L550.316,154.365 L536.793,135.019 z" fill-opacity="0" stroke="#000000" stroke-width="1"/>
    <path d="M530.595,139.714 L533.6,137.836 L546.56,155.116 L542.615,156.619 L530.595,139.714 z" fill-opacity="0" stroke="#000000" stroke-width="1"/>
    <path d="M491.903,146.476 L510.873,137.836 L515.005,150.045 L498.664,159.812 L491.903,146.476 z" fill-opacity="0" stroke="#000000" stroke-width="1"/>
    <path d="M513.878,136.709 C513.878,136.709 519.137,150.984 519.137,151.172 C519.137,151.36 524.021,159.624 524.021,159.624 C524.021,159.624 534.915,153.238 534.915,153.238 C534.915,153.238 522.33,131.826 522.33,131.826 C522.33,131.826 513.878,136.709 513.878,136.709 z" fill-opacity="0" stroke="#000000" stroke-width="1"/>
    <path d="M524.209,226.865 L441.378,249.592 L432.926,181.036 L467.861,175.589 L502.609,178.219 L524.209,226.865 z" fill-opacity="0" stroke="#000000" stroke-width="1"/>
    <path d="M429.169,135.958 L441.19,134.08 L450.018,126.942 L454.15,151.547 L447.952,153.426 L446.073,158.121 L431.235,160 L429.169,135.958 z" fill-opacity="0" stroke="#000000" stroke-width="1"/>
    <path d="M431.611,165.071 L446.825,163.38 L447.764,166.01 L461.663,165.446 L463.541,162.253 L462.602,154.177 C462.602,154.177 458.47,152.299 458.47,152.299 C458.47,152.299 458.282,145.537 458.282,145.537 L465.607,142.907 L464.292,136.709 L473.308,137.273 L477.44,135.207 L494.344,160.751 L500.73,175.213 L497.35,175.401 L489.085,165.446 L479.318,171.457 L468.049,170.893 L432.174,176.153 L431.611,165.071 z" fill-opacity="0" stroke="#000000" stroke-width="1"/>
    <path d="M450.769,157.933 L458.094,156.806 L459.033,162.066 L451.332,162.441 L450.769,157.933 z" fill-opacity="0" stroke="#000000" stroke-width="1"/>
    <path d="M485.141,172.959 L488.897,170.142 L491.715,172.772 L489.461,174.65 L485.141,172.959 z" fill-opacity="0" stroke="#000000" stroke-width="1"/>
    <path d="M453.962,123.374 L463.353,116.048 L474.623,131.638 L471.805,133.141 L464.105,132.201 L461.099,132.765 L461.851,139.714 L457.155,141.968 L453.962,123.374 z" fill-opacity="0" stroke="#000000" stroke-width="1"/>
    <path d="M530.219,63.457 L571.541,120.556 L555.012,132.014 L513.878,76.23 L530.219,63.457 z" fill-opacity="0" stroke="#000000" stroke-width="1"/>
    <path d="M490.212,141.029 L512.376,130.699 L504.863,119.054 L481.76,134.08 L487.958,142.532 C487.958,142.532 490.776,141.217 490.212,141.029 z" fill-opacity="0" stroke="#000000" stroke-width="1"/>
    <path d="M487.77,96.702 L496.974,108.535 L484.953,117.739 L488.334,124.876 L479.694,129.008 L466.734,113.231 L486.644,96.515" fill-opacity="0" stroke="#000000" stroke-width="1"/>
    <path d="M514.442,102.337 L535.666,131.074 L544.306,124.125 L523.833,97.078 L514.442,102.337 z" fill-opacity="0" stroke="#000000" stroke-width="1"/>
    <path d="M510.685,104.591 L533.6,131.826 L529.656,135.207 L508.431,106.094 L510.685,104.591 z" fill-opacity="0" stroke="#000000" stroke-width="1"/>
    <path d="M518.949,128.821 L505.426,108.535 L502.045,110.789 L515.569,129.384 L518.949,128.821 z" fill-opacity="0" stroke="#000000" stroke-width="1"/>
    <path d="M499.979,112.104 C499.979,112.104 501.67,114.734 501.67,114.734 C501.67,114.734 493.593,121.12 493.593,121.12 L491.339,119.429 L499.979,112.104 z" fill-opacity="0" stroke="#000000" stroke-width="1"/>
    <path d="M490.776,94.824 L500.355,105.906 L520.64,92.195 L510.685,79.423 L490.776,94.824 z" fill-opacity="0" stroke="#000000" stroke-width="1"/>
    <path d="M366.301,370.17 L370.121,402.319 L356.752,404.229 L345.293,409.64 L338.926,382.902 C338.926,382.902 356.115,372.717 356.115,372.717 C356.115,372.717 366.301,370.17 366.301,370.17 z" fill-opacity="0" stroke="#000000" stroke-width="1"/>
    <path d="M380.625,454.522 L395.267,452.293 L398.45,486.671 L383.49,487.307 L380.625,454.522 z" fill-opacity="0" stroke="#000000" stroke-width="1"/>
    <path d="M390.811,491.764 L398.132,490.172 L399.087,497.175 L392.084,498.448 L390.811,491.764 z" fill-opacity="0" stroke="#000000" stroke-width="1"/>
    <path d="M365.346,500.995 L369.802,499.721 L373.94,507.042 L398.768,502.268 L401.633,521.048 L367.256,524.231 L365.346,500.995 z" fill-opacity="0" stroke="#000000" stroke-width="1"/>
    <path d="M368.211,528.051 L400.041,525.504 L403.225,537.918 L368.529,537.918 L368.211,528.051 z" fill-opacity="0" stroke="#000000" stroke-width="1"/>
    <path d="M361.845,458.341 L374.259,454.84 L378.078,486.989 L371.712,487.944 C371.712,487.944 370.439,494.628 370.439,494.628 C370.439,494.628 365.664,494.628 365.664,494.628 L361.845,458.341 z" fill-opacity="0" stroke="#000000" stroke-width="1"/>
    <path d="M374.577,493.037 C374.577,493.037 385.718,492.4 385.718,492.4 C385.718,492.4 386.354,500.04 386.354,500.04 L376.487,500.358 L374.577,493.037 z" fill-opacity="0" stroke="#000000" stroke-width="1"/>
    <path d="M418.185,450.065 L455.427,444.336 L460.52,489.535 L439.512,492.718 C439.512,492.718 434.737,472.028 434.737,472.028 C434.737,472.028 420.095,472.347 420.095,472.347 L417.23,470.755 L419.458,465.026 L418.185,450.065 z" fill-opacity="0" stroke="#000000" stroke-width="1"/>
    <path d="M421.368,479.35 L430.599,476.803 L434.419,493.037 L422.96,494.31 C422.96,494.31 421.05,480.941 421.05,480.941" fill-opacity="0" stroke="#000000" stroke-width="1"/>
    <path d="M413.41,451.338 L401.633,453.248 L404.498,496.22 L418.503,495.265 L415.32,476.803 L410.227,469.8 L412.774,463.116 L413.41,451.338 z" fill-opacity="0" stroke="#000000" stroke-width="1"/>
    <path d="M366.938,543.011 L391.447,543.011 L392.084,595.213 L379.352,593.304 L375.214,585.983 L376.805,580.89 L376.168,557.335 C376.168,557.335 368.529,551.924 368.529,551.924 C368.529,551.924 366.938,543.011 366.938,543.011 z" fill-opacity="0" stroke="#000000" stroke-width="1"/>
    <path d="M512.086,606.354 L536.914,611.447 L541.37,614.949 L538.505,625.771 L510.494,620.996 L512.086,606.354 z" fill-opacity="0" stroke="#000000" stroke-width="1"/>
    <path d="M511.131,627.363 L543.598,632.456 L536.595,646.143 L520.998,652.509 L507.311,652.509 L509.221,626.726 z" fill-opacity="0" stroke="#000000" stroke-width="1"/>
    <path d="M549.009,636.594 L576.066,642.323 L573.519,659.512 L530.229,654.419 L541.37,649.326 L549.009,636.594 z" fill-opacity="0" stroke="#000000" stroke-width="1"/>
    <path d="M581.158,642.323 L591.663,643.278 L589.116,660.467 L579.249,660.785 L581.158,642.323 z" fill-opacity="0" stroke="#000000" stroke-width="1"/>
    <path d="M501.9,627.363 L456.7,620.996 L440.148,644.551 L471.024,649.008 L474.526,632.774 L503.173,633.41 L501.9,627.363 z" fill-opacity="0" stroke="#000000" stroke-width="1"/>
    <path d="M708.8,626.408 L746.997,622.906 L749.225,613.675 L766.732,609.856 L773.735,613.039 L731.718,691.024 L714.529,668.743 L708.8,626.408 z" fill-opacity="0" stroke="#000000" stroke-width="1"/>
    <path d="M637.181,651.872 L673.786,648.053 L703.389,638.822 L711.665,673.836 L665.192,679.883 L662.963,665.559 L640.364,665.56 L637.181,651.872 z" fill-opacity="0" stroke="#000000" stroke-width="1"/>
    <path d="M594.527,663.65 L632.088,655.055 L634.634,669.061 L639.091,671.926 L658.189,670.334 L659.781,681.793 L597.71,686.249 L594.527,663.65 z" fill-opacity="0" stroke="#000000" stroke-width="1"/>
    <path d="M652.778,687.523 L715.166,677.973 L728.217,695.162 L725.67,709.804 L655.006,710.441 L652.778,687.523 z" fill-opacity="0" stroke="#000000" stroke-width="1"/>
    <path d="M754,666.514 C754,666.514 762.594,671.607 762.594,671.607 L762.276,681.475 L782.011,690.706 L786.785,684.658 L798.563,689.114 L766.095,755.641 L746.36,745.773 L755.909,722.218 C755.909,722.218 753.045,721.582 753.045,721.582 C753.045,721.582 742.54,743.863 742.54,743.863 C742.54,743.863 732.355,742.272 732.355,742.272 C732.355,742.272 733.628,711.077 733.628,711.077 L749.543,676.382 L754,666.514 z" fill-opacity="0" stroke="#000000" stroke-width="1"/>
    <path d="M764.185,645.506 L768.005,648.371 L759.092,661.421 L755.909,658.557 L764.185,645.506 z" fill-opacity="0" stroke="#000000" stroke-width="1"/>
    <path d="M781.374,618.132 L789.332,621.951 L771.825,645.506 L766.414,642.641 C766.414,642.641 782.329,618.45 781.374,618.132 z" fill-opacity="0" stroke="#000000" stroke-width="1"/>
    <path d="M793.47,625.134 L819.889,640.732 L802.064,683.066 L762.594,665.878 L793.47,625.134 z" fill-opacity="0" stroke="#000000" stroke-width="1"/>
    <path d="M803.974,558.29 L828.802,567.202 L795.061,591.712 L803.974,558.29 z" fill-opacity="0" stroke="#000000" stroke-width="1"/>
    <path d="M821.799,379.719 L839.942,380.038 L845.354,433.195 L843.126,437.651 L833.895,433.513 L827.528,433.513 L821.799,379.719 z" fill-opacity="0" stroke="#000000" stroke-width="1"/>
    <path d="M822.754,360.621 L825.619,373.672 L845.035,374.308 L850.765,412.187 L877.821,406.139 L866.362,352.663 L851.72,355.528 L847.582,359.029 L822.754,360.621 z" fill-opacity="0" stroke="#000000" stroke-width="1"/>
    <path d="M850.128,419.189 L859.041,418.553 L860.314,433.195 L858.723,443.063 L848.537,437.333 L849.173,430.012 L850.128,419.189 z" fill-opacity="0" stroke="#000000" stroke-width="1"/>
    <path d="M699.91,225.582 L721.184,223.087 L701.354,229.915 L699.91,225.582 z" fill-opacity="0" stroke="#000000" stroke-width="1"/>
    <path d="M702.536,233.067 L721.315,226.895 L729.063,226.238 L729.982,228.602 L704.375,237.007 L702.536,233.067 z" fill-opacity="0" stroke="#000000" stroke-width="1"/>
    <path d="M705.425,240.027 L730.639,232.279 L731.689,235.825 L707.132,244.886 L705.425,240.027 z" fill-opacity="0" stroke="#000000" stroke-width="1"/>
    <path d="M708.183,247.906 L733.002,239.108 L735.103,243.704 L709.102,252.108 L708.183,247.906 z" fill-opacity="0" stroke="#000000" stroke-width="1"/>
    <path d="M710.284,255.654 L736.285,247.25 L736.942,252.24 L710.809,260.119 L710.284,255.654 z" fill-opacity="0" stroke="#000000" stroke-width="1"/>
    <path d="M670.776,149.305 L690.334,141.458 L707.199,181.16 L687.875,190.061 L670.776,149.305 z" fill-opacity="0" stroke="#000000" stroke-width="1"/>
    <path d="M664.569,134.665 L718.208,114.404 L718.208,115.81 L707.316,129.044 L697.713,134.08 L669.722,144.854 L664.569,134.665 z" fill-opacity="0" stroke="#000000" stroke-width="1"/>
    <path d="M639.73,79.957 L663.671,129.563 L724.578,107.154 L732.814,98.535 L690.294,44.524 L639.73,79.957 z" fill-opacity="0" stroke="#000000" stroke-width="1"/>
    <path d="M695.082,140.864 L710.022,133.203 L721.322,118.263 L722.663,112.517 L725.153,111.368 L723.046,175.722 L710.979,179.362 L695.082,140.864 z" fill-opacity="0" stroke="#000000" stroke-width="1"/>
    <path d="M729.175,108.878 L727.451,129.563 L746.03,113.092 L737.602,102.175 L729.175,108.878 z" fill-opacity="0" stroke="#000000" stroke-width="1"/>
    <path d="M224.782,271.82 L232.622,269.497 L277.048,237.847 L324.378,212.004 L425.136,181.806 L430.653,211.714 L349.64,223.038 L293.019,249.171 L286.05,247.139 L225.944,284.306 L224.782,271.82 z" fill-opacity="0" stroke="#000000" stroke-width="1"/>
    <path d="M347.067,460.096 L356.12,456.911 L359.473,492.286 L350.588,492.454 L347.067,460.096 z" fill-opacity="0" stroke="#000000" stroke-width="1"/>
    <path d="M350.923,497.987 L359.641,496.813 L363.665,537.889 L353.27,537.721 L350.923,497.987 z" fill-opacity="0" stroke="#000000" stroke-width="1"/>
    <path d="M333.654,470.156 L341.869,467.808 L344.049,462.779 L347.905,492.789 L336.001,493.795 L333.654,470.156 z" fill-opacity="0" stroke="#000000" stroke-width="1"/>
    <path d="M340.025,498.322 L346.899,497.316 L349.749,518.944 L342.54,519.782 L340.025,498.322 z" fill-opacity="0" stroke="#000000" stroke-width="1"/>
    <path d="M335.163,529.171 L349.582,528.165 L350.42,538.224 L334.996,538.057 L335.163,529.171 z" fill-opacity="0" stroke="#000000" stroke-width="1"/>
    <path d="M330.469,498.825 L337.51,498.154 L339.522,519.447 L332.481,519.279 L330.469,498.825 z" fill-opacity="0" stroke="#000000" stroke-width="1"/>
    <path d="M335.163,522.632 L349.414,521.794 L349.414,525.985 L334.325,527.327 L335.163,522.632 z" fill-opacity="0" stroke="#000000" stroke-width="1"/>
    <path d="M363.162,542.751 L365.174,555.158 L371.712,559.182 L372.718,579.803 C372.718,579.803 370.706,583.492 370.706,583.492 C370.706,583.492 370.371,586.342 370.371,586.342 L346.229,582.318 L344.887,556.834 L344.049,549.625 L336.672,549.457 L336.337,542.751 L363.162,542.751 z" fill-opacity="0" stroke="#000000" stroke-width="1"/>
    <path d="M346.396,587.013 L373.054,590.366 L375.233,597.24 L392.166,600.593 L390.658,606.293 L319.403,597.24 L319.236,592.713 L341.534,589.527 L346.396,587.013 z" fill-opacity="0" stroke="#000000" stroke-width="1"/>
    <path d="M317.391,542.584 L329.966,543.254 L331.978,559.685 L341.199,559.349 L342.54,580.139 L320.074,587.851 L317.391,542.584 z" fill-opacity="0" stroke="#000000" stroke-width="1"/>
    <path d="M330.133,537.218 L326.277,499.831 L321.583,499.496 L311.021,474.515 L301.464,479.209 C301.464,479.209 310.853,505.364 310.853,505.364 C310.853,505.364 316.386,536.715 316.386,536.715 L330.133,537.218 z" fill-opacity="0" stroke="#000000" stroke-width="1"/>
    <path d="M479.59,636.555 L502.242,636.939 L501.602,652.937 L476.39,651.017 L477.286,636.172 C477.286,636.172 479.718,637.067 479.59,636.555 z" fill-opacity="0" stroke="#000000" stroke-width="1"/>
    <path d="M508.898,659.297 L520.223,658.333 L589.617,666.526 C589.617,666.526 590.822,687.248 590.822,687.248 C590.822,687.248 515.403,700.741 515.403,700.741 L508.898,659.297 z" fill-opacity="0" stroke="#000000" stroke-width="1"/>
    <path d="M518.777,703.873 L590.581,694.235 L594.436,715.921 L519.5,726.282 L518.777,703.873 z" fill-opacity="0" stroke="#000000" stroke-width="1"/>
    <path d="M597.568,692.067 L646.723,687.488 L648.41,708.21 L599.978,714.957 L597.568,692.067 z" fill-opacity="0" stroke="#000000" stroke-width="1"/>
    <path d="M655.68,716.068 L726.425,714.597 L724.464,740.902 L718.256,745.804 L655.354,748.908 L655.68,716.068 z" fill-opacity="0" stroke="#000000" stroke-width="1"/>
    <path d="M598.987,720.316 L647.511,715.088 L650.125,741.556 C650.125,741.556 637.218,744.66 637.218,744.66 C637.218,744.66 635.584,750.378 635.584,750.378 L602.744,756.587 L598.987,720.316 z" fill-opacity="0" stroke="#000000" stroke-width="1"/>
    <path d="M641.956,748.254 L651.269,746.294 L651.432,750.215 L641.139,750.051 L641.956,748.254 z" fill-opacity="0" stroke="#000000" stroke-width="1"/>
    <path d="M550.279,727.137 L594.131,720.832 L599.315,756.979 L557.844,762.303 L550.279,727.137 z" fill-opacity="0" stroke="#000000" stroke-width="1"/>
    <path d="M546.496,726.997 L552.52,763.003 L528.843,765.946 L523.939,751.795 L520.857,731.2 L546.496,726.997 z" fill-opacity="0" stroke="#000000" stroke-width="1"/>
    <path d="M488.016,727.778 L514.215,723.244 L523.032,765.062 L495.321,768.589 L488.016,727.778 z" fill-opacity="0" stroke="#000000" stroke-width="1"/>
    <path d="M461.564,653.21 L501.871,656.989 L513.711,719.465 L473.656,723.747 L461.564,653.21 z" fill-opacity="0" stroke="#000000" stroke-width="1"/>
    <path d="M445.441,687.471 L461.564,683.44 L469.625,725.007 L449.472,728.534 L445.441,687.471 z" fill-opacity="0" stroke="#000000" stroke-width="1"/>
    <path d="M449.22,652.706 L457.03,653.462 L461.312,678.402 L444.686,682.685 L449.22,652.706 z" fill-opacity="0" stroke="#000000" stroke-width="1"/>
    <path d="M450.732,732.313 L483.229,728.282 L490.283,767.329 L456.526,774.131 L450.732,732.313 z" fill-opacity="0" stroke="#000000" stroke-width="1"/>
    <path d="M481.97,825.271 L479.198,777.154 L523.788,772.116 L481.97,825.271 z" fill-opacity="0" stroke="#000000" stroke-width="1"/>
    <path d="M604.906,762.291 L633.877,756.245 L640.679,786.223 L613.471,794.789 L604.906,762.291 z" fill-opacity="0" stroke="#000000" stroke-width="1"/>
    <path d="M640.679,756.749 L723.56,752.97 L733.133,799.323 L699.124,806.881 L689.803,793.277 L655.542,799.827 L640.679,756.749 z" fill-opacity="0" stroke="#000000" stroke-width="1"/>
    <path d="M531.094,771.36 L600.12,763.802 L609.693,801.842 L576.439,810.408 L570.141,791.01 L551.499,798.315 L524.544,781.437 L531.094,771.36 z" fill-opacity="0" stroke="#000000" stroke-width="1"/>
    <path d="M576.691,815.194 L610.448,806.881 L615.487,824.263 L574.424,838.119 L570.393,829.05 L576.691,815.194 z" fill-opacity="0" stroke="#000000" stroke-width="1"/>
    <path d="M614.479,799.827 L641.183,791.514 C641.183,791.514 650.504,824.263 650.504,824.263 C650.504,824.263 624.052,832.576 624.052,832.576 C624.052,832.576 614.479,799.323 614.479,799.827 z" fill-opacity="0" stroke="#000000" stroke-width="1"/>
    <path d="M652.519,810.911 L683.757,803.606 L691.315,830.309 L659.825,843.157 L652.519,810.911 z" fill-opacity="0" stroke="#000000" stroke-width="1"/>
    <path d="M756.058,760.024 C756.058,760.024 837.176,791.262 837.176,791.262 C837.176,791.262 822.816,829.553 822.816,829.553 L756.058,760.024 z" fill-opacity="0" stroke="#000000" stroke-width="1"/>
    <path d="M803.167,690.746 L809.465,693.013 L776.211,759.268 L770.165,757.505 L803.167,690.746 z" fill-opacity="0" stroke="#000000" stroke-width="1"/>
    <path d="M822.564,642.629 L825.336,643.385 L810.976,688.227 L805.938,686.463 L822.564,642.629 z" fill-opacity="0" stroke="#000000" stroke-width="1"/>
    <path d="M784.021,614.414 L826.343,638.095 L844.23,601.063 L847.001,594.009 L845.993,576.626 L838.183,568.565 L792.838,600.559 L784.021,614.414 z" fill-opacity="0" stroke="#000000" stroke-width="1"/>
    <path d="M820.045,511.127 L864.635,531.281 L832.389,564.282 L802.915,552.946 L820.045,511.127 z" fill-opacity="0" stroke="#000000" stroke-width="1"/>
    <path d="M828.107,491.226 L876.475,516.418 L866.398,528.258 L821.305,506.845 L828.107,491.226 z" fill-opacity="0" stroke="#000000" stroke-width="1"/>
    <path d="M829.114,437.315 L835.916,437.819 L862.62,452.43 C862.62,452.43 857.329,469.813 857.329,469.813 C857.329,469.813 858.841,474.599 858.841,474.599 L848.512,496.012 L829.618,488.203 L833.145,472.836 L829.114,437.315 z" fill-opacity="0" stroke="#000000" stroke-width="1"/>
    <path d="M867.658,454.194 L910.988,469.813 C910.988,469.813 897.636,487.195 897.636,487.195 C897.636,487.195 861.612,471.828 861.612,471.828 L867.658,454.194 z" fill-opacity="0" stroke="#000000" stroke-width="1"/>
    <path d="M861.612,477.622 L893.102,491.982 L878.742,509.112 L852.795,499.287 L861.108,479.134" fill-opacity="0" stroke="#000000" stroke-width="1"/>
    <path d="M324.211,427.528 L343.956,420.677 L358.06,409.797 L370.553,407.782 C370.553,407.782 374.985,446.065 374.985,446.065 C374.985,446.065 344.359,453.318 344.359,453.318 L339.927,442.035 L318.972,446.065 L324.211,438.408 L324.211,427.528 z" fill-opacity="0" stroke="#000000" stroke-width="1"/>
    <path d="M283.913,457.348 L306.48,450.497 L318.166,438.408 L319.778,419.872 L337.509,409.797 L331.464,378.365 L363.702,362.649 L367.911,354.477 L395.134,342.501 L399.567,334.844 L398.358,327.994 L398.358,320.337 C398.358,320.337 422.133,308.248 422.536,308.248 C422.939,308.248 439.461,302.203 439.461,302.203 L437.849,292.129 L419.715,289.711 C419.715,289.711 389.895,301.8 389.895,301.8 C389.895,301.8 377.403,296.562 377.403,296.562 L369.344,283.667 L350.001,288.502 L348.389,267.548 L350.807,239.34 L355.24,231.683 C355.24,231.683 318.166,242.966 318.166,242.966 C318.166,242.966 291.973,255.458 291.973,255.458 C291.973,255.458 282.704,253.041 282.704,253.041 L225.885,286.084 L233.139,307.845 L258.526,302.203 L285.525,290.92 L293.182,294.144 L293.585,306.636 C293.585,306.636 297.212,321.546 297.212,321.546 C297.212,321.546 245.631,349.754 245.631,349.754 L252.079,396.096 C252.079,396.096 259.332,431.155 259.332,431.155 C259.332,431.155 283.913,457.348 283.913,457.348 z" fill-opacity="0" stroke="#000000" stroke-width="1"/>
    <path d="M411.366,219.033 L430.699,216.72 L432.186,229.278 L412.523,231.261 L411.366,219.033 z" fill-opacity="0" stroke="#000000" stroke-width="1"/>
    <path d="M413.679,234.896 L432.517,232.913 L434.169,252.081 L415.332,255.22 L413.679,234.896 z" fill-opacity="0" stroke="#000000" stroke-width="1"/>
    <path d="M416.984,261.004 L416.158,260.012 L434.499,257.699 L438.135,284.467 L420.454,284.302 C420.454,284.302 416.158,259.351 416.158,259.351" fill-opacity="0" stroke="#000000" stroke-width="1"/>
    <path d="M382.284,232.087 L408.061,229.939 C408.061,229.939 410.21,257.038 410.21,257.038 C410.21,257.038 383.937,260.343 383.937,260.343 L382.284,232.087 z" fill-opacity="0" stroke="#000000" stroke-width="1"/>
    <path d="M379.971,222.834 L406.739,218.868 C406.739,218.868 407.566,225.643 407.566,225.643 C407.566,225.643 382.284,228.121 382.284,228.121 L379.971,222.834 z" fill-opacity="0" stroke="#000000" stroke-width="1"/>
    <path d="M358.986,225.478 L376.832,222.999 C376.832,222.999 377.658,229.113 377.658,229.113 C377.658,229.113 360.308,230.435 360.308,230.435 L358.986,225.478 z" fill-opacity="0" stroke="#000000" stroke-width="1"/>
    <path d="M356.177,235.557 L377.327,233.244 L378.649,243.984 L353.533,246.958 L356.177,235.557 z" fill-opacity="0" stroke="#000000" stroke-width="1"/>
    <path d="M354.359,251.585 L377.988,250.594 L379.641,259.847 L354.194,263.317 C354.194,263.317 354.855,251.75 354.359,251.585 z" fill-opacity="0" stroke="#000000" stroke-width="1"/>
    <path d="M355.185,267.448 L380.302,265.3 L382.615,277.032 L354.359,278.684 L355.185,267.448 z" fill-opacity="0" stroke="#000000" stroke-width="1"/>
    <path d="M381.128,284.137 L386.25,280.502 L392.529,284.302 L396.991,294.547 L388.894,297.356 C388.894,297.356 383.276,294.051 383.276,294.051 C383.276,294.051 381.128,284.137 381.128,284.137 z" fill-opacity="0" stroke="#000000" stroke-width="1"/>
    <path d="M385.424,264.639 C385.424,264.639 410.87,261.499 410.87,261.499 C410.87,261.499 414.671,272.57 414.671,272.57 L395.503,277.527 L393.025,280.832 L387.737,277.032 L385.424,264.639 z" fill-opacity="0" stroke="#000000" stroke-width="1"/>
    <path d="M397.817,280.667 L415.167,275.379 L416.323,285.789 L409.383,290.251 L401.287,292.564 L397.817,280.667 z" fill-opacity="0" stroke="#000000" stroke-width="1"/>
    <path d="M232.615,312.925 L266.756,303.926 L283.694,294.663 L288.723,297.574 L287.135,311.337 L289.252,320.07 L242.143,343.89 L232.615,312.925 z" fill-opacity="0" stroke="#000000" stroke-width="1"/>
    <path d="M315.923,475.106 L326.983,467.344 C326.983,467.344 330.67,471.419 330.67,471.419 C330.67,471.419 332.417,493.347 332.417,493.347 L323.49,494.705 L318.251,481.51 L315.923,475.106 z" fill-opacity="0" stroke="#000000" stroke-width="1"/>
    <path d="M326.595,451.238 L337.268,448.133 L341.925,456.283 L339.014,463.463 L333.387,466.18 L329.118,459.776 L326.595,451.238 z" fill-opacity="0" stroke="#000000" stroke-width="1"/>
    <path d="M300.981,457.253 L321.938,452.596 C321.938,452.596 324.073,459 324.073,459 C324.073,459 306.026,470.837 306.026,470.837 L300.981,468.508 C300.981,468.508 302.145,462.299 302.145,462.299 C302.145,462.299 300.981,457.253 300.981,457.253 z" fill-opacity="0" stroke="#000000" stroke-width="1"/>
    <path d="M289.726,461.328 L296.129,459 L297.1,462.881 L294.383,464.627 L295.353,468.314 L299.622,473.165 L301.563,474.718 L298.264,476.076 L287.785,462.881 L289.726,461.328 z" fill-opacity="0" stroke="#000000" stroke-width="1"/>
    <path d="M284.486,467.538 L295.159,479.181 L304.279,501.109 C304.279,501.109 309.713,535.844 309.713,535.844 C309.713,535.844 303.115,535.844 303.115,535.844 L287.785,529.246 L296.323,495.675 L296.906,492.182 L294.577,487.719 L273.231,483.062 L274.784,476.658 L284.486,467.538 z" fill-opacity="0" stroke="#000000" stroke-width="1"/>
    <path d="M264.887,449.879 L280.605,463.657 L272.261,474.136 L269.739,484.614 L291.278,491.794 L292.442,495.287 L282.74,528.276 L244.9,517.215 L264.887,449.879 z" fill-opacity="0" stroke="#000000" stroke-width="1"/>
    <path d="M242.766,522.454 L287.203,535.067 L310.683,542.247 C310.683,542.247 313.012,616.18 313.012,616.374 C313.012,616.568 259.066,627.435 259.066,627.435 L254.603,614.434 L239.273,608.612 L225.495,605.119 L223.749,601.626 L242.766,522.454 z" fill-opacity="0" stroke="#000000" stroke-width="1"/>
    <path d="M319.672,605.793 L446.971,622.802 L435.449,638.715 L395.119,632.953 L384.968,633.502 C384.968,633.502 384.694,673.832 384.694,673.832 C384.694,673.832 381.127,673.832 381.127,673.832 L377.561,632.953 L372.348,634.325 L374.543,674.655 L335.859,675.203 L334.487,639.538 L319.947,637.069 L319.672,605.793 z" fill-opacity="0" stroke="#000000" stroke-width="1"/>
    <path d="M435.888,649.712 L444.592,652.055 L440.91,682.685 L413.125,689.38 L412.12,681.848 C412.12,681.848 436.223,650.046 435.888,649.712 z" fill-opacity="0" stroke="#000000" stroke-width="1"/>
    <path d="M433.043,644.858 C433.043,644.858 427.017,639.669 426.85,639.669 C426.682,639.669 389.022,639.334 389.022,639.334 L389.524,675.153 L407.601,675.153 L403.751,643.519 L407.769,643.519 L411.953,670.299 L433.043,644.858 z" fill-opacity="0" stroke="#000000" stroke-width="1"/>
    <path d="M377.473,681.681 L402.58,681.514 L380.318,711.642 L376.971,708.629 L377.473,681.681 z" fill-opacity="0" stroke="#000000" stroke-width="1"/>
    <path d="M319.727,641.343 L331.276,642.347 C331.276,642.347 331.109,676.66 331.109,676.66 C331.109,676.66 319.727,676.827 319.727,676.827 L319.727,641.343 z" fill-opacity="0" stroke="#000000" stroke-width="1"/>
    <path d="M313.559,621.982 L308.383,790.814 L259.09,787.117 L249.231,753.104 L260.075,634.306 L313.559,621.982 z" fill-opacity="0" stroke="#000000" stroke-width="1"/>
    <path d="M255.146,636.77 L246.273,746.449 L239.618,742.506 L226.309,717.119 L200.183,661.91 L255.146,636.77 z" fill-opacity="0" stroke="#000000" stroke-width="1"/>
    <path d="M314.299,802.891 L331.798,804.616 L349.297,810.778 C349.297,810.778 352.255,817.925 352.255,818.172 C352.255,818.418 331.798,831.481 331.798,831.481 L314.299,802.891 z" fill-opacity="0" stroke="#000000" stroke-width="1"/>
    <path d="M324.157,793.032 L347.326,791.06 L349.544,799.44 L347.819,802.644 L324.157,793.032 z" fill-opacity="0" stroke="#000000" stroke-width="1"/>
    <path d="M316.024,756.308 L349.297,756.801 L347.572,783.913 L316.517,788.842 L316.024,756.308 z" fill-opacity="0" stroke="#000000" stroke-width="1"/>
    <path d="M414.365,693.458 L440.244,687.79 C440.244,687.79 445.42,728.457 445.42,728.457 C445.42,728.457 418.555,733.879 418.555,733.879 L414.365,693.458 z" fill-opacity="0" stroke="#000000" stroke-width="1"/>
    <path d="M419.295,737.823 C419.295,737.823 445.174,734.126 445.174,734.126 C445.174,734.126 450.596,773.561 450.596,773.561 C450.596,773.561 423.731,776.765 423.731,776.765 C423.731,776.765 419.048,737.33 419.295,737.823 z" fill-opacity="0" stroke="#000000" stroke-width="1"/>
    <path d="M390.951,740.041 L413.133,739.055 L419.295,778.244 L396.373,780.955 C396.373,780.955 391.69,740.534 390.951,740.041 z" fill-opacity="0" stroke="#000000" stroke-width="1"/>
    <path d="M403.767,711.451 L411.408,708.986 L414.612,734.372 L396.619,733.386 L395.88,725.746 L403.767,721.802 L403.767,711.451 z" fill-opacity="0" stroke="#000000" stroke-width="1"/>
    <path d="M408.696,686.311 L410.422,704.55 L399.084,708.739 L398.345,720.077 L393.169,723.528 L393.169,732.893 L389.718,733.633 L387.5,719.584 L384.542,714.408 L408.696,686.311 z" fill-opacity="0" stroke="#000000" stroke-width="1"/>
    <path d="M370.987,732.893 L381.092,719.584 L384.05,725.499 L390.704,780.462 L354.473,784.159 L357.184,755.815 L362.607,756.555 L373.205,752.118 L374.93,742.506 L369.754,735.112 L370.987,732.893 z" fill-opacity="0" stroke="#000000" stroke-width="1"/>
    <path d="M366.55,738.809 L371.233,743.245 L370.001,749.161 L364.825,752.365 L359.156,751.379 L366.55,738.809 z" fill-opacity="0" stroke="#000000" stroke-width="1"/>
    <path d="M359.156,683.846 C359.156,683.846 371.48,683.353 371.48,683.353 C371.48,683.353 372.958,709.479 372.958,709.479 L376.409,713.915 L355.952,743.492 L359.156,683.846 z" fill-opacity="0" stroke="#000000" stroke-width="1"/>
    <path d="M318.982,681.628 L353.734,680.642 L352.994,704.057 L318.735,702.085 C318.735,702.085 319.721,681.382 318.982,681.628 z" fill-opacity="0" stroke="#000000" stroke-width="1"/>
    <path d="M319.228,706.275 L352.009,706.768 L349.297,750.146 L317.01,750.886 L319.228,706.275 z" fill-opacity="0" stroke="#000000" stroke-width="1"/>
    <path d="M211.41,324.238 L226.531,321.403 L233.619,345.502 L214.481,347.629 L211.41,324.238 z" fill-opacity="0" stroke="#000000" stroke-width="1"/>
    <path d="M222.514,294.705 L224.404,314.788 L206.212,319.749 C206.212,319.749 209.992,348.101 209.992,348.101 C209.992,348.101 184.948,353.063 184.948,353.063 L176.915,308.645 L222.514,294.705 z" fill-opacity="0" stroke="#000000" stroke-width="1"/>
    <path d="M255.828,438.591 L261.262,446.388 L255.828,465.525 L244.487,462.454 L234.328,490.333 L212.355,482.537 L211.646,474.504 L197.943,469.306 L210.701,459.146 L255.828,438.591 z" fill-opacity="0" stroke="#000000" stroke-width="1"/>
    <path d="M245.905,466.471 L254.174,467.888 L242.361,514.669 L229.366,510.652 L245.905,466.471 z" fill-opacity="0" stroke="#000000" stroke-width="1"/>
    <path d="M195.108,473.086 C195.108,473.086 206.448,478.048 206.448,478.048 L207.393,486.081 L200.542,503.801 C200.542,503.801 186.129,498.603 186.129,498.603 C186.129,498.603 184.948,495.768 184.948,495.768 C184.948,495.768 195.108,473.086 195.108,473.086 z" fill-opacity="0" stroke="#000000" stroke-width="1"/>
    <path d="M211.174,487.262 C211.174,487.262 231.256,493.877 231.256,493.877 C231.256,493.877 225.113,510.652 225.113,510.652 C225.113,510.652 204.558,504.746 204.558,504.746 L211.174,487.262 z" fill-opacity="0" stroke="#000000" stroke-width="1"/>
    <path d="M206.921,511.361 L238.58,520.339 L231.492,548.691 L198.415,536.878 C198.415,536.878 206.212,511.834 206.921,511.361 z" fill-opacity="0" stroke="#000000" stroke-width="1"/>
    <path d="M149.744,531.207 L156.596,504.509 C156.596,504.509 159.904,491.515 159.904,491.515 C159.904,491.515 163.212,489.152 163.212,489.152 L179.041,460.328 L196.289,449.459 L225.586,436.701 L229.602,443.789 L205.267,458.201 C205.267,458.201 189.437,471.905 189.437,471.905 C189.437,471.905 179.986,495.768 179.986,495.768 L176.679,501.674 L149.744,531.207 z" fill-opacity="0" stroke="#000000" stroke-width="1"/>
    <path d="M183.058,502.383 L201.959,509.471 L193.69,533.806 L166.047,523.174 L183.058,502.383 z" fill-opacity="0" stroke="#000000" stroke-width="1"/>
    <path d="M164.629,528.372 L227.24,552.235 L218.025,600.906 L222.987,609.175 L232.674,611.302 L231.729,616.263 L212.591,612.956 L203.849,607.758 L190.855,582.714 L176.442,557.433 L168.409,548.691 L154.942,536.405 L164.629,528.372 z" fill-opacity="0" stroke="#000000" stroke-width="1"/>
    <path d="M209.52,615.318 L231.729,622.17 L238.108,612.247 L249.921,616.972 L250.394,619.335 L229.839,626.659 L214.718,624.769 L208.575,619.571 L209.52,615.318 z" fill-opacity="0" stroke="#000000" stroke-width="1"/>
    <path d="M163.684,589.801 L169.118,586.73 C169.118,586.73 179.041,588.148 179.041,588.148 C179.041,588.148 188.728,590.274 188.728,590.274 L204.086,620.989 L220.152,629.73 L235.036,627.84 C235.036,627.84 252.284,621.461 252.284,621.461 C252.284,621.461 254.647,626.423 254.647,626.423 L255.119,629.494 L198.179,657.61 L163.684,589.801 z" fill-opacity="0" stroke="#000000" stroke-width="1"/>
    <path d="M236.801,440.683 L252.591,434.521 L246.429,399.476 L216.775,403.327 L211.384,409.874 L183.655,413.34 L156.312,406.793 L142.062,397.165 L142.448,388.307 L157.467,386.767 L215.62,396.01 L243.348,391.003 L234.876,352.877 L183.655,360.194 L173.642,349.796 L147.454,354.417 L139.752,307.048 L136.286,283.941 L77.363,293.954 L81.599,321.682 L76.593,358.653 L75.437,371.747 L93.923,382.531 L93.923,391.388 L108.942,429.515 L107.402,433.751 C107.402,433.751 108.942,439.528 108.942,439.528 C108.942,439.528 117.8,440.683 117.8,440.683 L123.962,459.939 L118.185,462.635 L113.949,445.69 L90.072,452.237 L127.813,538.118 L128.969,545.05 C128.969,545.05 130.124,554.293 130.124,553.908 C130.124,553.523 127.043,568.927 127.043,568.927 L130.124,580.866 L153.616,589.724 L156.697,587.028 L162.859,579.711 L177.878,571.238 L147.069,535.422 L150.15,504.613 L156.312,488.823 L167.48,468.797 L190.202,446.46 L208.303,439.528 L222.937,433.751 L229.484,430.285 L236.801,440.683 z" fill-opacity="0" stroke="#000000" stroke-width="1"/>
    <path d="M144.238,305.785 L204.355,291.829 L204.713,294.155 L172.865,305.606 L178.233,346.579 L151.752,348.726 L144.238,305.785 z" fill-opacity="0" stroke="#000000" stroke-width="1"/>
    <path d="M141.554,282.347 L219.205,276.442 L220.994,284.494 L144.775,301.491 L141.554,282.347 z" fill-opacity="0" stroke="#000000" stroke-width="1"/>
    <path d="M155.654,391.859 L210.441,402.678 L208.599,406.591 L183.277,408.433 L155.884,401.527 L149.208,392.78 L155.654,391.859 z" fill-opacity="0" stroke="#000000" stroke-width="1"/>
    <path d="M814.91,318.651 L820.315,354.46 C820.315,354.46 843.625,352.433 843.625,352.433 C843.625,352.433 854.773,347.366 854.773,347.366 L865.921,345.677 L890.582,340.947 L883.487,301.76 L814.91,318.651 z" fill-opacity="0" stroke="#000000" stroke-width="1"/>
    <path d="M810.518,286.22 L825.72,284.193 L830.787,303.787 L849.705,301.76 L849.367,297.03 L834.166,299.395 L830.787,282.842 L874.366,276.761 L882.812,296.355 L817.275,313.584 L810.518,286.22 z" fill-opacity="0" stroke="#000000" stroke-width="1"/>
    <path d="M864.907,417.97 L903.419,406.147 L903.419,445.334 L901.73,459.185 L864.232,446.685 L864.907,417.97 z" fill-opacity="0" stroke="#000000" stroke-width="1"/>
    <path d="M872.339,352.095 L892.609,347.366 L901.73,400.742 L882.812,407.16 L872.339,352.095 z" fill-opacity="0" stroke="#000000" stroke-width="1"/>
    <path d="M733.492,225.33 L799.171,227.125 L802.313,280.985 L721.822,298.938 L713.145,263.63 L742.469,254.204 L733.492,225.33 z" fill-opacity="0" stroke="#000000" stroke-width="1"/>
    <path d="M694.899,207.647 L780.885,178.068 L787.764,172.393 L802.382,172.565 L802.726,185.634 L798.943,220.373 L775.554,219.169 L737.72,220.029 L716.052,218.825 L699.198,221.405 L694.899,207.647 z" fill-opacity="0" stroke="#000000" stroke-width="1"/>
    <path d="M809.777,165.858 L824.051,168.953 C824.051,168.953 824.566,173.596 824.566,173.768 C824.566,173.94 821.643,180.991 821.643,180.991 L807.713,182.195 L808.573,167.061" fill-opacity="0" stroke="#000000" stroke-width="1"/>
    <path d="M728.262,134.043 L748.898,117.189 C748.898,117.189 799.114,157.947 799.114,157.947 C799.114,157.947 804.618,163.794 804.618,163.794 L800.146,167.749 L784.153,168.265 L753.026,183.399 L693.867,203.348 L690.428,193.545 L722.587,179.615 L729.466,177.724 L727.918,166.546 L728.262,134.043 z" fill-opacity="0" stroke="#000000" stroke-width="1"/>
    <path d="M605.169,24.364 L632.531,77.569 L575.07,116.181 L534.939,59.632 L603.649,24.06 z" fill-opacity="0" stroke="#000000" stroke-width="1"/>
    <path d="M214.839,206.399 L348.888,144.863 L380.155,136.88 L419.737,136.88 L424.061,175.132 L376.828,189.768 L319.284,208.727 L276.708,231.013 L241.449,254.297 L224.153,267.602 L214.839,206.399 z" fill-opacity="0" stroke="#000000" stroke-width="1"/>
    <path d="M187.896,164.821 L203.53,177.461 L218.165,271.261 L206.524,273.257 L184.57,167.482 L187.896,164.821 z" fill-opacity="0" stroke="#000000" stroke-width="1"/>
    <path d="M164.613,235.005 L183.572,215.38 L187.896,214.049 L195.547,257.291 L164.613,235.005 z" fill-opacity="0" stroke="#000000" stroke-width="1"/>
    <path d="M162.617,240.66 L199.206,271.927 L140.331,276.583 L140.996,262.613 L162.617,240.66 z" fill-opacity="0" stroke="#000000" stroke-width="1"/>
    <path d="M144.322,215.713 L179.581,174.467 L186.899,207.397 L180.911,209.725 L161.286,232.011 L144.322,215.713 z" fill-opacity="0" stroke="#000000" stroke-width="1"/>
    <path d="M80.125,284.899 L139.333,218.706 L156.962,235.005 L138.335,258.289 L135.341,276.583 L99.085,284.566 L80.125,284.899 z" fill-opacity="0" stroke="#000000" stroke-width="1"/>
    <path d="M907.941,401.49 L916.311,399.397 L919.101,445.2 L908.406,443.572 L907.941,401.49 z" fill-opacity="0" stroke="#000000" stroke-width="1"/>
    <path d="M897.479,346.619 L907.709,344.294 C907.709,344.294 915.149,393.585 915.149,393.585 C915.149,393.585 905.384,397.305 905.384,397.305 L897.479,346.619 z" fill-opacity="0" stroke="#000000" stroke-width="1"/>
    <path d="M912.359,343.829 L927.006,339.877 L928.866,354.059 L915.149,356.85 L912.359,343.829 z" fill-opacity="0" stroke="#000000" stroke-width="1"/>
    <path d="M914.684,360.105 L928.634,357.315 C928.634,357.315 932.587,375.915 932.587,375.915 C932.587,375.915 918.636,378.24 918.636,378.24 L914.684,360.105 z" fill-opacity="0" stroke="#000000" stroke-width="1"/>
    <path d="M920.031,381.03 L932.819,379.635 L934.679,390.795 L919.566,394.747 L920.031,381.03 z" fill-opacity="0" stroke="#000000" stroke-width="1"/>
    <path d="M920.496,399.397 L927.936,397.77 L930.959,420.09 L923.751,423.81 L920.496,399.397 z" fill-opacity="0" stroke="#000000" stroke-width="1"/>
    <path d="M924.216,428.227 C924.216,428.227 933.981,420.787 933.981,420.787 L932.819,397.77 L942.584,394.282 L945.374,408.93 L929.796,429.622 L927.704,434.505 L927.239,443.805 L922.821,444.502 L924.216,428.227 z" fill-opacity="0" stroke="#000000" stroke-width="1"/>
    <path d="M948.861,381.727 L973.042,403.815 L933.051,443.34 L930.726,433.575 L944.444,417.765 L949.327,407.302 L947.002,383.122 L948.861,381.727 z" fill-opacity="0" stroke="#000000" stroke-width="1"/>
    <path d="M931.424,338.714 L989.317,388.47 L977.924,400.792 L951.187,376.845 L938.631,378.937 L931.424,338.714 z" fill-opacity="0" stroke="#000000" stroke-width="1"/>
    <path d="M907.476,447.06 L924.449,450.315 L913.986,466.59 L906.314,463.335 L907.476,447.06 z" fill-opacity="0" stroke="#000000" stroke-width="1"/>
    <path d="M890.969,305.699 L926.076,333.832 L895.851,341.504 L890.969,305.699 z" fill-opacity="0" stroke="#000000" stroke-width="1"/>
    <path d="M811.903,188.207 L815.831,188.207 L813.539,281.163 L809.284,282.144 L806.666,221.92 L806.666,202.281 L809.284,190.498 L811.903,188.207 z" fill-opacity="0" stroke="#000000" stroke-width="1"/>
    <path d="M820.413,190.171 L818.776,278.544 L831.869,277.235 L834.16,203.918 L835.797,199.335 L828.596,188.861 L820.413,190.171 z" fill-opacity="0" stroke="#000000" stroke-width="1"/>
    <path d="M838.742,208.827 L866.891,259.233 L854.453,266.106 L851.18,269.379 L850.853,276.253 L836.778,277.235 L838.742,208.827 z" fill-opacity="0" stroke="#000000" stroke-width="1"/>
    <path d="M858.708,268.397 L869.509,263.815 L873.437,271.998 L857.726,275.271 L858.708,268.397 z" fill-opacity="0" stroke="#000000" stroke-width="1"/>
    <path d="M421.876,5.721 L424.597,14.131 L420.887,129.151 L360.285,134.84 L355.091,126.43 L343.465,129.398 L323.924,85.864 L375.621,62.365 L385.763,49.255 L393.925,37.877 C393.925,37.877 409.756,29.467 409.756,29.467 C409.756,29.467 416.682,22.294 416.682,22.294 L421.876,5.721 z" fill-opacity="0" stroke="#000000" stroke-width="1"/>
    <path d="M309.578,54.945 L416.682,6.958 L414.456,21.304 L404.809,28.725 L394.42,33.425 L374.385,55.687 L320.214,79.927 L309.578,54.945 z" fill-opacity="0" stroke="#000000" stroke-width="1"/>
    <path d="M288.058,64.097 C288.058,64.097 304.136,57.665 304.136,57.665 C304.136,57.665 325.161,102.684 325.161,102.684 L316.009,103.673 C316.009,103.673 311.557,94.521 311.557,94.521 C311.557,94.521 301.91,94.274 301.91,94.274 L288.058,64.097 z" fill-opacity="0" stroke="#000000" stroke-width="1"/>
    <path d="M325.408,106.147 L341.734,140.529 L253.923,179.363 L240.072,155.617 L248.482,149.186 L246.503,141.766 L325.408,106.147 z" fill-opacity="0" stroke="#000000" stroke-width="1"/>
    <path d="M252.192,121.977 L268.023,108.62 L285.09,101.447 L307.599,98.231 C307.599,98.231 312.299,107.136 312.299,107.136 C312.299,107.136 251.945,134.098 251.945,134.098 C251.945,134.098 248.482,130.14 248.482,130.14 L252.192,121.977 z" fill-opacity="0" stroke="#000000" stroke-width="1"/>
    <path d="M268.27,74.485 L283.606,67.312 L296.468,95.263 L280.39,98.231 L268.27,74.485 z" fill-opacity="0" stroke="#000000" stroke-width="1"/>
    <path d="M265.549,76.959 C265.549,76.959 275.443,98.726 275.443,98.726 C275.443,98.726 270.001,101.694 270.001,101.694 L259.365,77.948 L264.807,74.733 L265.549,76.959 z" fill-opacity="0" stroke="#000000" stroke-width="1"/>
    <path d="M256.15,80.422 L265.796,102.436 C265.796,102.436 252.687,114.062 252.687,114.309 C252.687,114.557 239.824,86.853 239.824,86.853 L256.15,80.422 z" fill-opacity="0" stroke="#000000" stroke-width="1"/>
    <path d="M235.619,88.832 L247.987,117.525 L242.793,124.451 L245.761,135.087 L239.824,138.797 L220.531,96.5 L235.619,88.832 z" fill-opacity="0" stroke="#000000" stroke-width="1"/>
    <path d="M216.326,98.231 C216.326,98.231 237.598,141.766 237.598,141.766 C237.598,141.766 242.545,142.013 242.545,142.013 C242.545,142.013 242.793,147.949 242.793,147.949 L237.103,153.391 L249.224,181.589 L214.347,195.194 L198.269,107.383 L216.326,98.231 z" fill-opacity="0" stroke="#000000" stroke-width="1"/>
    <path d="M346.147,133.211 L352.744,130.697 L354.943,136.666 L348.346,139.807 L346.147,133.211 z" fill-opacity="0" stroke="#000000" stroke-width="1"/>
    <path d="M428.667,90.549 L450.851,102.965 L459.625,112.236 L439.262,129.784 L428.336,131.771 L428.667,90.549 z" fill-opacity="0" stroke="#000000" stroke-width="1"/>
    <path d="M429.66,69.193 L442.573,68.366 L459.956,59.261 L467.074,53.135 L470.716,57.108 L470.551,60.585 L443.898,81.278 L438.6,89.39 L429.495,86.576 L429.66,69.193 z" fill-opacity="0" stroke="#000000" stroke-width="1"/>
    <path d="M471.875,50.487 C471.875,50.487 475.683,58.267 475.683,58.267 C475.683,58.267 473.365,63.896 473.365,63.896 L446.877,83.927 C446.877,83.927 442.573,91.046 442.573,91.046 C442.573,91.046 456.148,100.482 456.148,100.482 C456.148,100.482 463.267,110.084 463.267,110.084 C463.267,110.084 527.334,58.93 527.334,58.93 L502.667,28.303 L471.875,50.487 z" fill-opacity="0" stroke="#000000" stroke-width="1"/>
    <path d="M619.839,41.537 L626.562,38.579 L634.359,53.368 L627.906,57.402 L619.839,41.537 z" fill-opacity="0" stroke="#000000" stroke-width="1"/>
    <path d="M629.788,60.359 L636.242,57.402 L645.921,68.157 L637.317,76.762 C637.317,76.762 629.519,60.897 629.788,60.359 z" fill-opacity="0" stroke="#000000" stroke-width="1"/>
    <path d="M511.477,33.74 L530.3,19.757 L551.542,46.915 C551.542,46.915 532.72,55.519 532.451,55.519 C532.182,55.519 511.746,34.546 511.477,33.74 z" fill-opacity="0" stroke="#000000" stroke-width="1"/>
    <path d="M551.273,39.386 L563.642,31.857 L567.406,37.773 L555.575,45.033 L551.273,39.386 z" fill-opacity="0" stroke="#000000" stroke-width="1"/>
    <path d="M533.795,17.606 L548.584,36.159 L560.953,28.631 L546.971,7.926 L533.795,17.606 z" fill-opacity="0" stroke="#000000" stroke-width="1"/>
    <path d="M888.581,288.456 L896.965,286.037 L899.706,291.519 C899.706,291.519 904.865,293.292 904.865,293.292 C904.865,293.292 923.89,287.004 923.89,287.004 L934.853,331.987 L934.531,334.244 L898.738,303.933 L890.838,295.711 L888.581,288.456 z" fill-opacity="0" stroke="#000000" stroke-width="1"/>
    <path d="M875.844,262.014 L906.638,251.696 L910.669,247.181 L915.022,250.245 L922.761,282.49 L906.316,288.294 L902.446,287.649 C902.446,287.649 899.222,281.039 899.222,281.039 C899.222,281.039 886.324,285.07 886.324,285.07 L876.328,261.208" fill-opacity="0" stroke="#000000" stroke-width="1"/>
    <path d="M833.602,165.761 L833.28,186.882 L860.366,224.126 L874.393,257.016 C874.393,257.016 904.865,247.342 904.865,247.342 C904.865,247.342 911.959,239.603 911.959,239.603 C911.959,239.603 875.36,157.216 875.36,157.216 L833.602,165.761 z" fill-opacity="0" stroke="#000000" stroke-width="1"/>
    <path d="M692.659,35.526 L696.342,32.58 L739.984,27.976 C739.984,27.976 760.977,37.368 760.977,37.368 C760.977,37.368 756.742,51.915 756.742,51.915 C756.742,51.915 762.45,76.959 762.45,76.959 C762.45,76.959 772.762,102.187 772.762,102.187 L802.41,141.41 L807.198,143.988 L803.33,152.643 L755.821,111.21 L692.659,35.526 z" fill-opacity="0" stroke="#000000" stroke-width="1"/>
    <path d="M843.173,564.029 L879.387,522.82 L911.855,538.742 L871.894,589.629 L843.173,564.029 z" fill-opacity="0" stroke="#000000" stroke-width="1"/>
    <path d="M850.978,580.263 L885.319,605.863 L854.724,663.306 L827.251,653.316 L832.246,635.833 L851.914,596.497 L850.978,580.263 z" fill-opacity="0" stroke="#000000" stroke-width="1"/>
    <path d="M826.315,659.56 L890.002,680.477 L885.006,693.901 L820.071,675.169 L826.315,659.56 z" fill-opacity="0" stroke="#000000" stroke-width="1"/>
    <path d="M820.383,680.477 L882.509,697.647 L881.572,704.827 L816.012,688.281 L820.383,680.477 z" fill-opacity="0" stroke="#000000" stroke-width="1"/>
    <path d="M815.7,692.964 L878.763,708.262 L878.451,712.32 L811.642,701.706 L814.139,693.276" fill-opacity="0" stroke="#000000" stroke-width="1"/>
    <path d="M809.768,707.325 L848.792,713.257 L831.622,742.603 L802.588,720.125 L809.768,707.325 z" fill-opacity="0" stroke="#000000" stroke-width="1"/>
    <path d="M798.842,725.12 L802.9,728.554 L797.905,741.042 L854.724,780.378 L850.353,790.056 L779.174,761.022 L798.842,725.12 z" fill-opacity="0" stroke="#000000" stroke-width="1"/>
    <path d="M807.271,728.866 L858.158,762.271 L859.407,771.012 L857.221,775.383 L803.525,741.354 L802.276,736.047 L807.271,728.866 z" fill-opacity="0" stroke="#000000" stroke-width="1"/>
    <path d="M853.475,714.505 L866.899,716.379 L850.978,751.968 C850.978,751.968 838.49,743.851 838.178,743.851 C837.866,743.851 853.475,714.505 853.475,714.505 z" fill-opacity="0" stroke="#000000" stroke-width="1"/>
    <path d="M888.753,609.297 L860.343,664.243 L874.08,668.925 L900.616,617.726 L888.753,609.297 z" fill-opacity="0" stroke="#000000" stroke-width="1"/>
    <path d="M904.987,621.785 L916.225,631.463 L892.187,672.984 L879.075,670.486 L904.987,621.785 z" fill-opacity="0" stroke="#000000" stroke-width="1"/>
    <path d="M873.768,717.315 L882.197,717.003 L885.319,719.813 L872.519,747.598 L890.938,765.08 L865.963,771.636 L861.28,761.334 L855.348,756.339 L871.582,717.315 L873.768,717.315 z" fill-opacity="0" stroke="#000000" stroke-width="1"/>
    <path d="M862.529,776.631 L885.007,773.197 L893.124,804.416 L892.187,809.099 L854.724,793.177 L862.529,776.631 z" fill-opacity="0" stroke="#000000" stroke-width="1"/>
    <path d="M882.197,738.856 L916.85,767.578 L892.499,779.753 L889.689,771.636 L897.806,767.266 L878.763,746.349 L882.197,738.856 z" fill-opacity="0" stroke="#000000" stroke-width="1"/>
    <path d="M731.409,753.841 L795.72,811.285 L777.613,834.699 L764.501,839.694 L742.335,796.299 L731.409,753.841 z" fill-opacity="0" stroke="#000000" stroke-width="1"/>
    <path d="M134.351,215.425 L76.363,280.711 L65.82,270.573 L121.78,205.287 L134.351,215.425 z" fill-opacity="0" stroke="#000000" stroke-width="1"/>
    <path d="M115.697,187.85 L157.059,141.623 L180.173,159.87 L138.811,210.153 L115.697,187.85 z" fill-opacity="0" stroke="#000000" stroke-width="1"/>
    <path d="M106.371,193.122 L117.319,201.637 L62.576,265.302 L48.789,256.786 L106.371,193.122 z" fill-opacity="0" stroke="#000000" stroke-width="1"/>
    <path d="M44.328,265.302 L69.47,285.577 L13.51,309.097 L7.022,304.23 L44.328,265.302 z" fill-opacity="0" stroke="#000000" stroke-width="1"/>
    <path d="M164.261,94.424 L174.347,81.815 L190.739,107.032 L201.246,165.452 L184.014,153.684 L175.188,115.858 L164.261,94.424 z" fill-opacity="0" stroke="#000000" stroke-width="1"/>
    <path d="M143.126,118.855 L160.332,98.422 L176.464,146.816 L142.91,121.006 z" fill-opacity="0" stroke="#000000" stroke-width="1"/>
    <path d="M455.273,780.952 L473.188,777.296 L476.478,820.438 L453.079,809.104 L457.101,798.501 L455.273,780.952 z" fill-opacity="0" stroke="#000000" stroke-width="1"/>
    <path d="M449.057,780.586 L449.789,796.308 L446.864,808.373 L391.291,786.436 L449.057,780.586 z" fill-opacity="0" stroke="#000000" stroke-width="1"/>
    <path d="M355.827,791.555 C355.827,791.555 381.785,788.63 381.785,788.63 C381.785,788.63 445.401,813.126 445.401,813.126 L377.398,842.74 L360.579,816.051 L351.439,803.985 L355.095,798.501 L355.827,791.555 z" fill-opacity="0" stroke="#000000" stroke-width="1"/>
    <path d="M402.911,325.255 C402.911,325.255 403.911,341.255 404.161,341.255 C404.411,341.255 440.161,333.255 440.161,333.255 C440.161,333.255 440.911,309.255 440.661,309.255 C440.411,309.255 411.411,318.255 411.411,318.255 C411.411,318.255 402.661,325.255 402.911,325.255 z" fill-opacity="0" stroke="#000000" stroke-width="1"/>
    <path d="M521.449,786.07 L552.526,803.62 L566.784,800.695 L570.441,808.738 L563.494,826.653 L566.419,836.891 L533.514,848.956 L524.739,843.837 L515.599,847.493 L496.221,836.525 L501.706,824.825 L493.662,818.61 L519.62,786.802" fill-opacity="0" stroke="#000000" stroke-width="1"/>
  </g>
  <g id="Layer_3">
    <path d="M73.934,295.006 L76.358,323.011 L69.357,372.287 L69.357,377.134 L86.59,383.866 L87.667,394.637 L91.437,398.676 L103.554,431.796 L106.247,442.567 L84.974,450.107 L104.093,495.883 L124.827,542.467 L126.173,555.392 L122.134,567.24 L125.096,582.319 L159.563,597.668 L228.227,733.919 L233.074,744.151 L233.882,758.423 L255.154,797.467 L309.008,804.199 L328.127,833.819 L330.012,837.319 L355.054,820.086 L372.287,849.706 L452.261,816.854 L484.304,834.088 L489.959,823.317 L496.421,826.548 L491.305,840.55 L516.078,854.014 L524.156,849.167 L530.888,854.014 L615.17,830.049 L617.863,836.511 L650.445,829.779 L657.446,849.706 L692.451,835.703 L693.528,817.662 L737.689,806.084 L760.846,846.744 C760.846,846.744 777.81,840.281 777.81,840.281 C777.81,840.281 801.506,816.047 801.506,816.047 L823.586,839.473 L842.974,794.236 L889.827,814.162 L896.289,811.469 L893.866,793.159 L891.981,784.542 L921.87,768.924 L918.908,762.731 L882.557,733.919 L890.365,719.378 L885.519,712.646 L887.673,704.299 L895.482,678.449 L921.87,630.249 L877.171,592.551 L918.1,537.081 L882.018,517.963 L929.14,454.684 L993.227,391.675 L993.227,383.866 L938.296,337.282 L921.332,255.693 L914.869,244.114 L918.1,238.19 L877.171,152.023 L831.664,159.832 L808.238,152.831 L812.277,139.637 L807.161,138.29 L777.002,101.939 L761.654,52.123 L765.693,38.391 C765.693,38.391 763,31.659 763,31.659 C763,31.659 740.112,22.503 740.112,22.503 C740.112,22.503 695.144,28.427 695.144,28.427 L685.719,35.967 L687.604,40.006 L649.637,66.395 L628.903,34.621 L618.67,36.775 L606.823,18.195 L571.009,36.775 L545.698,3.385 L510.693,28.966 C510.693,28.966 499.922,23.042 499.922,23.042 C499.922,23.042 466.801,48.892 466.801,48.892 L429.642,64.241 L431.257,2.577 C431.257,2.577 415.101,1.5 415.101,1.5 C415.101,1.5 194.568,102.208 194.568,102.208 L178.412,75.281 L171.68,77.435 L136.405,117.287 L155.523,137.213 L111.094,187.567 L106.247,185.143 L1.5,304.969 L13.617,313.586 L73.934,295.006 z" fill-opacity="0" stroke="#F30B0B" stroke-width="1"/>
  </g>
</svg>
